SplineFontDB: 3.0
FontName: Nobile-Medium
FullName: Nobile Medium
FamilyName: Nobile
Weight: Medium
Copyright: Copyright (c) 2010 by vernon adams. All rights reserved.
Version: 001.000
ItalicAngle: 0
UnderlinePosition: -292
UnderlineWidth: 40
Ascent: 1638
Descent: 410
sfntRevision: 0x00010000
LayerCount: 2
Layer: 0 1 "Back"  1
Layer: 1 1 "Fore"  0
XUID: [1021 332 469972825 15395775]
FSType: 0
OS2Version: 2
OS2_WeightWidthSlopeOnly: 0
OS2_UseTypoMetrics: 1
CreationTime: 1291285008
ModificationTime: 1291304913
PfmFamily: 17
TTFWeight: 500
TTFWidth: 5
LineGap: 0
VLineGap: 0
Panose: 2 0 5 3 5 0 0 2 0 4
OS2TypoAscent: -24
OS2TypoAOffset: 1
OS2TypoDescent: -92
OS2TypoDOffset: 1
OS2TypoLinegap: 0
OS2WinAscent: -702
OS2WinAOffset: 1
OS2WinDescent: -178
OS2WinDOffset: 1
HheadAscent: -702
HheadAOffset: 1
HheadDescent: 178
HheadDOffset: 1
OS2SubXSize: 1331
OS2SubYSize: 1433
OS2SubXOff: 0
OS2SubYOff: 286
OS2SupXSize: 1331
OS2SupYSize: 1433
OS2SupXOff: 0
OS2SupYOff: 983
OS2StrikeYSize: 102
OS2StrikeYPos: 512
OS2Vendor: 'SIL '
OS2CodePages: 00000005.00000000
OS2UnicodeRanges: a000026f.4000000a.00000000.00000000
Lookup: 4 0 1 "'liga' Standard Ligatures in Latin lookup 0"  {"'liga' Standard Ligatures in Latin lookup 0 subtable"  } ['liga' ('latn' <'dflt' > ) ]
Lookup: 258 0 0 "'kern' Horizontal Kerning in Latin lookup 0"  {"'kern' Horizontal Kerning in Latin lookup 0 subtable"  } ['kern' ('latn' <'dflt' > ) ]
MarkAttachClasses: 1
DEI: 91125
TtTable: prep
PUSHW_1
 511
SCANCTRL
PUSHB_1
 1
SCANTYPE
SVTCA[y-axis]
MPPEM
PUSHB_1
 8
LT
IF
PUSHB_2
 1
 1
INSTCTRL
EIF
PUSHB_2
 70
 6
CALL
IF
POP
PUSHB_1
 16
EIF
MPPEM
PUSHB_1
 20
GT
IF
POP
PUSHB_1
 128
EIF
SCVTCI
PUSHB_1
 6
CALL
NOT
IF
SVTCA[y-axis]
PUSHB_1
 6
DUP
RCVT
PUSHB_1
 3
CALL
WCVTP
PUSHB_1
 8
DUP
RCVT
PUSHB_3
 6
 70
 2
CALL
PUSHB_1
 3
CALL
WCVTP
PUSHB_1
 7
DUP
RCVT
PUSHB_3
 8
 16
 2
CALL
PUSHB_1
 3
CALL
WCVTP
PUSHB_1
 9
DUP
RCVT
PUSHB_3
 6
 122
 2
CALL
PUSHB_1
 3
CALL
WCVTP
PUSHB_1
 10
DUP
RCVT
PUSHB_3
 9
 58
 2
CALL
PUSHB_1
 3
CALL

StartChar: .notdef
Encoding: 65536 -1 0
Width: 759
Flags: W
HStem: 0 69<138 552> 1316 69<138 552>
VStem: 69 69<69 1316> 552 69<69 1316>
LayerCount: 2
Fore
SplineSet
552 69 m 1,0,-1
 552 1316 l 1,1,-1
 138 1316 l 1,2,-1
 138 69 l 1,3,-1
 552 69 l 1,0,-1
69 1385 m 1,4,-1
 621 1385 l 1,5,-1
 621 0 l 1,6,-1
 69 0 l 1,7,-1
 69 1385 l 1,4,-1
EndSplineSet
EndChar

StartChar: exclam
Encoding: 33 33 6
Width: 771
Flags: W
HStem: -6 300<284.786 519.928> 1582 20G<247 492>
VStem: 247 245<453 1602> 274 281<20.2773 151.691 155.655 261.505>
LayerCount: 2
Fore
SplineSet
283 22 m 1,0,1
 256 80 256 80 256 154 c 0,2,3
 256 207 256 207 274 254 c 1,4,5
 303 273 303 273 338 283.5 c 128,-1,6
 373 294 373 294 415 294 c 0,7,8
 487 294 487 294 521 262.5 c 128,-1,9
 555 231 555 231 555 154 c 0,10,11
 555 119 555 119 549.5 89.5 c 128,-1,12
 544 60 544 60 528.5 39 c 128,-1,13
 513 18 513 18 485.5 6 c 128,-1,14
 458 -6 458 -6 415 -6 c 0,15,16
 340 -6 340 -6 283 22 c 1,0,1
492 453 m 1,17,-1
 247 453 l 1,18,-1
 247 1602 l 1,19,-1
 492 1602 l 1,20,-1
 492 453 l 1,17,-1
EndSplineSet
EndChar

StartChar: quotedbl
Encoding: 34 34 7
Width: 853
Flags: W
HStem: 943 659<131 298 569 736>
VStem: 131 167<943 1040.38> 569 167<943 1040.48>
LayerCount: 2
Fore
SplineSet
828 1602 m 1,0,-1
 816 1487 l 1,1,-1
 736 943 l 1,2,-1
 569 943 l 1,3,-1
 504 1487 l 1,4,-1
 496 1602 l 1,5,-1
 828 1602 l 1,0,-1
390 1602 m 1,6,-1
 380 1500 l 1,7,-1
 298 943 l 1,8,-1
 131 943 l 1,9,-1
 65 1500 l 1,10,-1
 58 1602 l 1,11,-1
 390 1602 l 1,6,-1
EndSplineSet
EndChar

StartChar: numbersign
Encoding: 35 35 8
Width: 1270
Flags: W
HStem: 501 140<183 349 552 733 936 1130> 879 141<197 392 596 775 982 1141>
VStem: 299 188<147 335> 456 185<1196 1381> 685 188<147 335> 838 189<1191 1380>
DStem2: 299 147 487 147 0.126211 0.992003<23.7277 357.48 521.981 737.884 903.504 1243.95> 685 147 873 147 0.123936 0.99229<23.2999 357.22 521.299 737.511 903.078 1242.46>
LayerCount: 2
Fore
SplineSet
746 641 m 1,0,-1
 775 879 l 1,1,-1
 582 879 l 1,2,-1
 552 641 l 1,3,-1
 746 641 l 1,0,-1
537 501 m 1,4,-1
 487 147 l 1,5,-1
 299 147 l 1,6,-1
 349 501 l 1,7,-1
 183 501 l 1,8,-1
 183 641 l 1,9,-1
 362 641 l 1,10,-1
 392 879 l 1,11,-1
 197 879 l 1,12,-1
 197 1020 l 1,13,-1
 410 1020 l 1,14,-1
 456 1381 l 1,15,-1
 641 1381 l 1,16,-1
 596 1020 l 1,17,-1
 796 1020 l 1,18,-1
 838 1380 l 1,19,-1
 1027 1380 l 1,20,-1
 982 1020 l 1,21,-1
 1141 1020 l 1,22,-1
 1141 879 l 1,23,-1
 966 879 l 1,24,-1
 936 641 l 1,25,-1
 1130 641 l 1,26,-1
 1130 501 l 1,27,-1
 920 501 l 1,28,-1
 873 147 l 1,29,-1
 685 147 l 1,30,-1
 733 501 l 1,31,-1
 537 501 l 1,4,-1
EndSplineSet
EndChar

StartChar: dollar
Encoding: 36 36 9
Width: 1278
Flags: W
HStem: -29 217<361.345 593 701 812.921> 1229 214<416.251 593 701 936.236>
VStem: 104 255<977.907 1178.1> 593 108<-165 -29 196 597 890 1227 1443 1576> 900 257<266.869 510.268>
DStem2: 829.5 1424 809.5 1215.5 0.973037 -0.230651<-77.7896 256.696>
LayerCount: 2
Fore
SplineSet
701 196 m 1,0,1
 746 201 746 201 782.5 216.5 c 128,-1,2
 819 232 819 232 845.5 257 c 128,-1,3
 872 282 872 282 886 315 c 128,-1,4
 900 348 900 348 900 389 c 0,5,6
 900 428 900 428 890.5 456.5 c 128,-1,7
 881 485 881 485 857.5 508.5 c 128,-1,8
 834 532 834 532 796 553 c 128,-1,9
 758 574 758 574 701 597 c 1,10,-1
 701 196 l 1,0,1
593 1229 m 1,11,12
 470 1228 470 1228 414.5 1188 c 128,-1,13
 359 1148 359 1148 359 1069 c 0,14,15
 359 1044 359 1044 366.5 1023 c 128,-1,16
 374 1002 374 1002 399 981.5 c 128,-1,17
 424 961 424 961 470 939 c 128,-1,18
 516 917 516 917 593 890 c 1,19,-1
 593 1229 l 1,11,12
593 1576 m 1,20,-1
 701 1576 l 1,21,-1
 701 1438 l 1,22,23
 767 1435 767 1435 829.5 1424 c 128,-1,24
 892 1413 892 1413 944.5 1399.5 c 128,-1,25
 997 1386 997 1386 1036 1372 c 128,-1,26
 1075 1358 1075 1358 1094 1348 c 1,27,-1
 1031 1153 l 1,28,29
 974 1173 974 1173 917 1190 c 0,30,31
 867 1204 867 1204 809.5 1215.5 c 128,-1,32
 752 1227 752 1227 701 1227 c 1,33,-1
 701 854 l 1,34,35
 738 840 738 840 772.5 827.5 c 128,-1,36
 807 815 807 815 840 801 c 0,37,38
 996 738 996 738 1076.5 645 c 128,-1,39
 1157 552 1157 552 1157 420 c 0,40,41
 1157 311 1157 311 1124 230.5 c 128,-1,42
 1091 150 1091 150 1031 95.5 c 128,-1,43
 971 41 971 41 887 11 c 128,-1,44
 803 -19 803 -19 701 -27 c 1,45,-1
 701 -165 l 1,46,-1
 593 -165 l 1,47,-1
 593 -29 l 1,48,49
 559 -29 559 -29 521.5 -24.5 c 128,-1,50
 484 -20 484 -20 446.5 -12 c 128,-1,51
 409 -4 409 -4 372.5 5.5 c 128,-1,52
 336 15 336 15 303 26 c 0,53,54
 226 51 226 51 150 82 c 1,55,-1
 208 290 l 1,56,57
 275 261 275 261 343 239 c 1,58,59
 401 219 401 219 468 203.5 c 128,-1,60
 535 188 535 188 593 188 c 1,61,-1
 593 635 l 1,62,63
 469 676 469 676 377 716 c 128,-1,64
 285 756 285 756 224.5 805 c 128,-1,65
 164 854 164 854 134 916.5 c 128,-1,66
 104 979 104 979 104 1066 c 0,67,68
 104 1176 104 1176 141.5 1247 c 128,-1,69
 179 1318 179 1318 245 1360.5 c 128,-1,70
 311 1403 311 1403 400.5 1421 c 128,-1,71
 490 1439 490 1439 593 1443 c 1,72,-1
 593 1576 l 1,20,-1
EndSplineSet
EndChar

StartChar: percent
Encoding: 37 37 10
Width: 1724
Flags: W
HStem: -31 21G<562.436 614.489> 11 157<1268.42 1507.6> 621 157<270.419 509.598> 754 160<1272.09 1503.8> 1364 160<274.091 505.798>
VStem: 32 177<844.507 1289.66> 572 182<845.461 1290.98> 1030 177<234.507 679.657> 1570 182<235.461 680.976>
DStem2: 439 47 605 -31 0.427243 0.904137<0.399659 1624.13>
LayerCount: 2
Fore
SplineSet
1388 168 m 256,0,1
 1434 168 1434 168 1468 184 c 128,-1,2
 1502 200 1502 200 1524.5 234.5 c 128,-1,3
 1547 269 1547 269 1558.5 323.5 c 128,-1,4
 1570 378 1570 378 1570 456 c 0,5,6
 1570 606 1570 606 1527 680 c 128,-1,7
 1484 754 1484 754 1388 754 c 256,8,9
 1292 754 1292 754 1249.5 679.5 c 128,-1,10
 1207 605 1207 605 1207 456 c 0,11,12
 1207 378 1207 378 1218 323.5 c 128,-1,13
 1229 269 1229 269 1251.5 234.5 c 128,-1,14
 1274 200 1274 200 1308 184 c 128,-1,15
 1342 168 1342 168 1388 168 c 256,0,1
1391 11 m 0,16,17
 1322 11 1322 11 1268.5 30 c 128,-1,18
 1215 49 1215 49 1175 82 c 128,-1,19
 1135 115 1135 115 1107.5 158.5 c 128,-1,20
 1080 202 1080 202 1062.5 251 c 128,-1,21
 1045 300 1045 300 1037.5 351.5 c 128,-1,22
 1030 403 1030 403 1030 451 c 0,23,24
 1030 682 1030 682 1123.5 798 c 128,-1,25
 1217 914 1217 914 1391 914 c 0,26,27
 1570 914 1570 914 1661 798 c 128,-1,28
 1752 682 1752 682 1752 451 c 0,29,30
 1752 382 1752 382 1734.5 305 c 128,-1,31
 1717 228 1717 228 1675.5 162.5 c 128,-1,32
 1634 97 1634 97 1564.5 54 c 128,-1,33
 1495 11 1495 11 1391 11 c 0,16,17
390 778 m 256,34,35
 436 778 436 778 470 794 c 128,-1,36
 504 810 504 810 526.5 844.5 c 128,-1,37
 549 879 549 879 560.5 933.5 c 128,-1,38
 572 988 572 988 572 1066 c 0,39,40
 572 1216 572 1216 529 1290 c 128,-1,41
 486 1364 486 1364 390 1364 c 256,42,43
 294 1364 294 1364 251.5 1289.5 c 128,-1,44
 209 1215 209 1215 209 1066 c 0,45,46
 209 988 209 988 220 933.5 c 128,-1,47
 231 879 231 879 253.5 844.5 c 128,-1,48
 276 810 276 810 310 794 c 128,-1,49
 344 778 344 778 390 778 c 256,34,35
393 621 m 0,50,51
 324 621 324 621 270.5 640 c 128,-1,52
 217 659 217 659 177 692 c 128,-1,53
 137 725 137 725 109.5 768.5 c 128,-1,54
 82 812 82 812 64.5 861 c 128,-1,55
 47 910 47 910 39.5 961.5 c 128,-1,56
 32 1013 32 1013 32 1061 c 0,57,58
 32 1292 32 1292 125.5 1408 c 128,-1,59
 219 1524 219 1524 393 1524 c 0,60,61
 572 1524 572 1524 663 1408 c 128,-1,62
 754 1292 754 1292 754 1061 c 0,63,64
 754 992 754 992 736.5 915 c 128,-1,65
 719 838 719 838 677.5 772.5 c 128,-1,66
 636 707 636 707 566.5 664 c 128,-1,67
 497 621 497 621 393 621 c 0,50,51
1136 1522 m 1,68,-1
 1301 1436 l 1,69,-1
 605 -31 l 1,70,-1
 439 47 l 1,71,-1
 1136 1522 l 1,68,-1
EndSplineSet
EndChar

StartChar: ampersand
Encoding: 38 38 11
Width: 1716
Flags: W
HStem: -40 207<529.491 1062.33> -32 21G<1551.27 1591.3> 1369 183<578.314 898.958>
VStem: 147 252<287.609 603.423> 289 237<1072.82 1318.46> 955 215<1081.65 1313.69> 1265.5 228<479.815 862>
DStem2: 845 816 656 727 0.765971 -0.642875<-436.887 -301.287 0 533.638 804.835 1101.61>
LayerCount: 2
Fore
SplineSet
399 445 m 0,0,1
 399 311 399 311 487 239 c 128,-1,2
 575 167 575 167 766 167 c 0,3,4
 865 167 865 167 937.5 179 c 128,-1,5
 1010 191 1010 191 1059.5 210 c 128,-1,6
 1109 229 1109 229 1138 251.5 c 128,-1,7
 1167 274 1167 274 1180 294 c 1,8,-1
 656 727 l 1,9,10
 597 713 597 713 549.5 690 c 128,-1,11
 502 667 502 667 468.5 633 c 128,-1,12
 435 599 435 599 417 552.5 c 128,-1,13
 399 506 399 506 399 445 c 0,0,1
766 -40 m 0,14,15
 625 -40 625 -40 510.5 -13 c 128,-1,16
 396 14 396 14 315 71 c 128,-1,17
 234 128 234 128 190.5 215 c 128,-1,18
 147 302 147 302 147 422 c 0,19,20
 147 516 147 516 173 588 c 128,-1,21
 199 660 199 660 246 714 c 128,-1,22
 293 768 293 768 357.5 806.5 c 128,-1,23
 422 845 422 845 500 873 c 1,24,25
 490 880 490 880 470.5 895 c 128,-1,26
 451 910 451 910 427.5 933 c 128,-1,27
 404 956 404 956 379.5 986 c 128,-1,28
 355 1016 355 1016 335 1051 c 128,-1,29
 315 1086 315 1086 302 1126 c 128,-1,30
 289 1166 289 1166 289 1209 c 0,31,32
 289 1288 289 1288 321.5 1352 c 128,-1,33
 354 1416 354 1416 413 1460 c 128,-1,34
 472 1504 472 1504 554 1528 c 128,-1,35
 636 1552 636 1552 734 1552 c 0,36,37
 836 1552 836 1552 916.5 1527 c 128,-1,38
 997 1502 997 1502 1053.5 1457 c 128,-1,39
 1110 1412 1110 1412 1140 1349.5 c 128,-1,40
 1170 1287 1170 1287 1170 1213 c 0,41,42
 1170 1066 1170 1066 1088 968.5 c 128,-1,43
 1006 871 1006 871 845 816 c 1,44,-1
 1258 478 l 1,45,46
 1263 536 1263 536 1264.5 605.5 c 128,-1,47
 1266 675 1266 675 1266 740 c 0,48,49
 1266 782 1266 782 1265.5 814.5 c 128,-1,50
 1265 847 1265 847 1265 862 c 1,51,-1
 1495 862 l 1,52,53
 1495 840 1495 840 1493.5 803.5 c 128,-1,54
 1492 767 1492 767 1489 723 c 128,-1,55
 1486 679 1486 679 1482.5 631 c 128,-1,56
 1479 583 1479 583 1475 538 c 128,-1,57
 1471 493 1471 493 1466.5 454 c 128,-1,58
 1462 415 1462 415 1457 390 c 2,59,-1
 1444 322 l 1,60,-1
 1694 114 l 1,61,-1
 1575 -32 l 1,62,-1
 1346 161 l 1,63,64
 1279 61 1279 61 1137 10.5 c 128,-1,65
 995 -40 995 -40 766 -40 c 0,14,15
955 1195 m 0,66,67
 955 1282 955 1282 897.5 1325.5 c 128,-1,68
 840 1369 840 1369 739 1369 c 0,69,70
 526 1369 526 1369 526 1198 c 0,71,72
 526 1164 526 1164 539 1131 c 128,-1,73
 552 1098 552 1098 574.5 1067.5 c 128,-1,74
 597 1037 597 1037 627.5 1010.5 c 128,-1,75
 658 984 658 984 693 963 c 1,76,77
 727 973 727 973 772 990 c 128,-1,78
 817 1007 817 1007 857.5 1034.5 c 128,-1,79
 898 1062 898 1062 926.5 1101 c 128,-1,80
 955 1140 955 1140 955 1195 c 0,66,67
EndSplineSet
EndChar

StartChar: quotesingle
Encoding: 39 39 12
Width: 626
Flags: W
HStem: 943 659<220 388>
VStem: 220 168<943 1041.58>
LayerCount: 2
Fore
SplineSet
479 1602 m 1,0,-1
 469 1500 l 1,1,-1
 388 943 l 1,2,-1
 220 943 l 1,3,-1
 154 1500 l 1,4,-1
 147 1602 l 1,5,-1
 479 1602 l 1,0,-1
EndSplineSet
EndChar

StartChar: parenleft
Encoding: 40 40 13
Width: 860
Flags: W
HStem: 1642 20G<599 653.25>
VStem: 214 257<346.523 1040.97>
LayerCount: 2
Fore
SplineSet
214 698 m 0,0,1
 214 880 214 880 252 1032.5 c 128,-1,2
 290 1185 290 1185 350.5 1306.5 c 128,-1,3
 411 1428 411 1428 486.5 1517 c 128,-1,4
 562 1606 562 1606 636 1662 c 1,5,-1
 774 1502 l 1,6,7
 720 1452 720 1452 666 1374.5 c 128,-1,8
 612 1297 612 1297 568.5 1195 c 128,-1,9
 525 1093 525 1093 498 967.5 c 128,-1,10
 471 842 471 842 471 697 c 0,11,12
 471 553 471 553 496.5 429 c 128,-1,13
 522 305 522 305 564 204 c 128,-1,14
 606 103 606 103 659.5 27 c 128,-1,15
 713 -49 713 -49 768 -97 c 1,16,-1
 644 -260 l 1,17,18
 598 -227 598 -227 548 -178 c 128,-1,19
 498 -129 498 -129 450 -65 c 128,-1,20
 402 -1 402 -1 359 79 c 128,-1,21
 316 159 316 159 284 254 c 128,-1,22
 252 349 252 349 233 460 c 128,-1,23
 214 571 214 571 214 698 c 0,0,1
EndSplineSet
EndChar

StartChar: parenright
Encoding: 41 41 14
Width: 858
Flags: W
HStem: 1644 20G<213.908 249.5>
VStem: 402 258<364.599 1052.03>
LayerCount: 2
Fore
SplineSet
660 712 m 0,0,1
 660 523 660 523 621 368.5 c 128,-1,2
 582 214 582 214 520.5 92.5 c 128,-1,3
 459 -29 459 -29 382.5 -117 c 128,-1,4
 306 -205 306 -205 231 -260 c 1,5,-1
 99 -98 l 1,6,7
 154 -49 154 -49 208 29.5 c 128,-1,8
 262 108 262 108 305 210.5 c 128,-1,9
 348 313 348 313 375 437.5 c 128,-1,10
 402 562 402 562 402 704 c 0,11,12
 402 847 402 847 376.5 971 c 128,-1,13
 351 1095 351 1095 309 1196 c 128,-1,14
 267 1297 267 1297 214 1374 c 128,-1,15
 161 1451 161 1451 106 1501 c 1,16,-1
 229 1664 l 1,17,18
 270 1634 270 1634 317.5 1588 c 128,-1,19
 365 1542 365 1542 413 1479.5 c 128,-1,20
 461 1417 461 1417 505.5 1338 c 128,-1,21
 550 1259 550 1259 584.5 1163.5 c 128,-1,22
 619 1068 619 1068 639.5 955 c 128,-1,23
 660 842 660 842 660 712 c 0,0,1
EndSplineSet
EndChar

StartChar: asterisk
Encoding: 42 42 15
Width: 987
Flags: W
HStem: 1136 146<41 333 612 895> 1608 19G<301.884 347.635 596.249 641.157>
DStem2: 333 1136 472 1042 0.497139 0.867671<-297.815 -12.4587 275.979 561.453> 471 1375 336 1282 0.49564 -0.868528<-285.285 0 289.715 575.762>
LayerCount: 2
Fore
SplineSet
607 1628 m 1,0,-1
 759 1539 l 1,1,-1
 610 1282 l 1,2,-1
 895 1282 l 1,3,-1
 895 1136 l 1,4,-1
 612 1136 l 1,5,-1
 767 881 l 1,6,-1
 614 791 l 1,7,-1
 472 1042 l 1,8,-1
 331 792 l 1,9,-1
 179 881 l 1,10,-1
 333 1136 l 1,11,-1
 41 1136 l 1,12,-1
 41 1282 l 1,13,-1
 336 1282 l 1,14,-1
 186 1541 l 1,15,-1
 337 1627 l 1,16,-1
 471 1375 l 1,17,-1
 607 1628 l 1,0,-1
EndSplineSet
EndChar

StartChar: plus
Encoding: 43 43 16
Width: 1068
Flags: W
HStem: 490 206<142 441 660 961>
VStem: 441 219<137 490 696 1048>
LayerCount: 2
Fore
SplineSet
660 490 m 1,0,-1
 660 137 l 1,1,-1
 441 137 l 1,2,-1
 441 490 l 1,3,-1
 142 490 l 1,4,-1
 142 696 l 1,5,-1
 441 696 l 1,6,-1
 441 1048 l 1,7,-1
 660 1048 l 1,8,-1
 660 696 l 1,9,-1
 961 696 l 1,10,-1
 961 490 l 1,11,-1
 660 490 l 1,0,-1
EndSplineSet
EndChar

StartChar: comma
Encoding: 44 44 17
Width: 640
Flags: W
HStem: -285 645
VStem: 150 346<1.93457 360> 307 189<-120 0>
LayerCount: 2
Fore
SplineSet
150 360 m 1,0,-1
 496 360 l 1,1,-1
 496 49 l 2,2,3
 496 -26 496 -26 472 -81 c 128,-1,4
 448 -136 448 -136 407.5 -175 c 128,-1,5
 367 -214 367 -214 313 -240.5 c 128,-1,6
 259 -267 259 -267 199 -285 c 1,7,-1
 151 -179 l 1,8,9
 194 -164 194 -164 224 -147.5 c 128,-1,10
 254 -131 254 -131 272.5 -110 c 128,-1,11
 291 -89 291 -89 299 -62.5 c 128,-1,12
 307 -36 307 -36 307 0 c 1,13,-1
 150 0 l 1,14,-1
 150 360 l 1,0,-1
EndSplineSet
EndChar

StartChar: hyphen
Encoding: 45 45 18
Width: 1056
Flags: W
HStem: 549 214<154 901>
LayerCount: 2
Fore
SplineSet
154 549 m 1,0,-1
 154 763 l 1,1,-1
 901 763 l 1,2,-1
 901 549 l 1,3,-1
 154 549 l 1,0,-1
EndSplineSet
EndChar

StartChar: period
Encoding: 46 46 19
Width: 694
Flags: W
HStem: 0 360<178 524>
VStem: 178 346<0 360>
LayerCount: 2
Fore
SplineSet
178 360 m 1,0,-1
 524 360 l 1,1,-1
 524 0 l 1,2,-1
 178 0 l 1,3,-1
 178 360 l 1,0,-1
EndSplineSet
EndChar

StartChar: slash
Encoding: 47 47 20
Width: 992
Flags: W
DStem2: 140 -90 367 -165 0.317325 0.948317<0.909108 1912.51>
LayerCount: 2
Fore
SplineSet
747 1724 m 1,0,-1
 976 1647 l 1,1,-1
 367 -165 l 1,2,-1
 140 -90 l 1,3,-1
 747 1724 l 1,0,-1
EndSplineSet
EndChar

StartChar: zero
Encoding: 48 48 21
Width: 1428
Flags: W
HStem: -29 205<541.824 882.182> 1022 203<542.541 882.691>
VStem: 127 263<347.01 847.223> 1039 260<353.293 846.814>
LayerCount: 2
Fore
SplineSet
712 176 m 0,0,1
 799 176 799 176 861 207.5 c 128,-1,2
 923 239 923 239 962.5 296 c 128,-1,3
 1002 353 1002 353 1020.5 432 c 128,-1,4
 1039 511 1039 511 1039 606 c 0,5,6
 1039 683 1039 683 1023.5 757.5 c 128,-1,7
 1008 832 1008 832 970.5 891 c 128,-1,8
 933 950 933 950 870 986 c 128,-1,9
 807 1022 807 1022 712 1022 c 0,10,11
 623 1022 623 1022 561.5 988.5 c 128,-1,12
 500 955 500 955 462 898 c 128,-1,13
 424 841 424 841 407 764.5 c 128,-1,14
 390 688 390 688 390 601 c 0,15,16
 390 517 390 517 405 440 c 128,-1,17
 420 363 420 363 457 304.5 c 128,-1,18
 494 246 494 246 556 211 c 128,-1,19
 618 176 618 176 712 176 c 0,0,1
710 1225 m 0,20,21
 864 1225 864 1225 975.5 1174.5 c 128,-1,22
 1087 1124 1087 1124 1159 1038.5 c 128,-1,23
 1231 953 1231 953 1265 840 c 128,-1,24
 1299 727 1299 727 1299 603 c 0,25,26
 1299 473 1299 473 1264.5 358 c 128,-1,27
 1230 243 1230 243 1158 157 c 128,-1,28
 1086 71 1086 71 974.5 21 c 128,-1,29
 863 -29 863 -29 709 -29 c 0,30,31
 569 -29 569 -29 461 16.5 c 128,-1,32
 353 62 353 62 278.5 145 c 128,-1,33
 204 228 204 228 165.5 343.5 c 128,-1,34
 127 459 127 459 127 600 c 0,35,36
 127 732 127 732 162 846 c 128,-1,37
 197 960 197 960 269 1044 c 128,-1,38
 341 1128 341 1128 450.5 1176.5 c 128,-1,39
 560 1225 560 1225 710 1225 c 0,20,21
EndSplineSet
EndChar

StartChar: one
Encoding: 49 49 22
Width: 841
Flags: W
HStem: 0 21G<342 615> 1184 20G<306 615>
VStem: 342 273<0 988>
LayerCount: 2
Fore
SplineSet
342 988 m 1,0,-1
 158 903 l 1,1,-1
 83 1089 l 1,2,3
 140 1113 140 1113 195 1136.5 c 128,-1,4
 250 1160 250 1160 306 1184 c 1,5,-1
 406 1204 l 1,6,-1
 615 1204 l 1,7,-1
 615 0 l 1,8,-1
 342 0 l 1,9,-1
 342 988 l 1,0,-1
EndSplineSet
EndChar

StartChar: two
Encoding: 50 50 23
Width: 1156
Flags: W
HStem: 0 214<508 997> 1008 204<334.873 705.299>
VStem: 761 252<688.5 953.586>
DStem2: 222 1132.5 309 953 0.933279 0.359151<-60.8179 253.875> 570 536 508 214 0.768818 0.639467<-253.575 262.69>
LayerCount: 2
Fore
SplineSet
761 828 m 0,0,1
 761 917 761 917 707 962.5 c 128,-1,2
 653 1008 653 1008 543 1008 c 0,3,4
 509 1008 509 1008 469 1000.5 c 128,-1,5
 429 993 429 993 388.5 981 c 128,-1,6
 348 969 348 969 309 953 c 128,-1,7
 270 937 270 937 237 921 c 1,8,-1
 163 1102 l 1,9,10
 182 1114 182 1114 222 1132.5 c 128,-1,11
 262 1151 262 1151 316 1169 c 128,-1,12
 370 1187 370 1187 434.5 1199.5 c 128,-1,13
 499 1212 499 1212 566 1212 c 0,14,15
 671 1212 671 1212 753.5 1187 c 128,-1,16
 836 1162 836 1162 894 1115 c 128,-1,17
 952 1068 952 1068 982.5 1001.5 c 128,-1,18
 1013 935 1013 935 1013 852 c 0,19,20
 1013 794 1013 794 999 741.5 c 128,-1,21
 985 689 985 689 951 634.5 c 128,-1,22
 917 580 917 580 861 521 c 128,-1,23
 805 462 805 462 721 392 c 2,24,-1
 508 214 l 1,25,-1
 997 214 l 1,26,-1
 997 0 l 1,27,-1
 148 0 l 1,28,-1
 148 185 l 1,29,-1
 570 536 l 2,30,31
 619 577 619 577 655 613.5 c 128,-1,32
 691 650 691 650 714.5 685 c 128,-1,33
 738 720 738 720 749.5 755 c 128,-1,34
 761 790 761 790 761 828 c 0,0,1
EndSplineSet
EndChar

StartChar: three
Encoding: 51 51 24
Width: 1175
Flags: W
HStem: -190 202<275.531 694.732> 454 198<442 631.597> 1015 207<288.2 688.584>
VStem: 740 242<731.221 964.132> 763 257<76.416 343.458>
DStem2: 298.5 49 248 -151 0.969305 -0.24586<-110.984 218.103>
LayerCount: 2
Fore
SplineSet
740 848 m 0,0,1
 740 936 740 936 681.5 975.5 c 128,-1,2
 623 1015 623 1015 510 1015 c 0,3,4
 466 1015 466 1015 416 1004.5 c 128,-1,5
 366 994 366 994 322.5 981 c 128,-1,6
 279 968 279 968 249 956.5 c 128,-1,7
 219 945 219 945 215 944 c 1,8,-1
 133 1129 l 1,9,10
 142 1133 142 1133 175.5 1148.5 c 128,-1,11
 209 1164 209 1164 259 1180 c 128,-1,12
 309 1196 309 1196 371 1209 c 128,-1,13
 433 1222 433 1222 500 1222 c 0,14,15
 560 1222 560 1222 619 1214.5 c 128,-1,16
 678 1207 678 1207 731.5 1190 c 128,-1,17
 785 1173 785 1173 831 1145.5 c 128,-1,18
 877 1118 877 1118 910.5 1077 c 128,-1,19
 944 1036 944 1036 963 981 c 128,-1,20
 982 926 982 926 982 854 c 0,21,22
 982 785 982 785 958.5 732 c 128,-1,23
 935 679 935 679 898.5 641 c 128,-1,24
 862 603 862 603 818 581.5 c 128,-1,25
 774 560 774 560 734 554 c 1,26,27
 782 543 782 543 832.5 516.5 c 128,-1,28
 883 490 883 490 924.5 447.5 c 128,-1,29
 966 405 966 405 993 345 c 128,-1,30
 1020 285 1020 285 1020 206 c 0,31,32
 1020 102 1020 102 979 27.5 c 128,-1,33
 938 -47 938 -47 869 -95.5 c 128,-1,34
 800 -144 800 -144 709 -167 c 128,-1,35
 618 -190 618 -190 519 -190 c 0,36,37
 440 -190 440 -190 370.5 -178 c 128,-1,38
 301 -166 301 -166 248 -151 c 128,-1,39
 195 -136 195 -136 162.5 -122.5 c 128,-1,40
 130 -109 130 -109 124 -107 c 1,41,-1
 194 89 l 1,42,43
 198 87 198 87 226 75 c 128,-1,44
 254 63 254 63 298.5 49 c 128,-1,45
 343 35 343 35 399.5 23.5 c 128,-1,46
 456 12 456 12 516 12 c 0,47,48
 641 12 641 12 702 61 c 128,-1,49
 763 110 763 110 763 215 c 0,50,51
 763 270 763 270 739.5 312.5 c 128,-1,52
 716 355 716 355 673.5 385 c 128,-1,53
 631 415 631 415 572 432 c 128,-1,54
 513 449 513 449 442 454 c 1,55,-1
 442 652 l 1,56,57
 498 652 498 652 551.5 661.5 c 128,-1,58
 605 671 605 671 647 694 c 128,-1,59
 689 717 689 717 714.5 754.5 c 128,-1,60
 740 792 740 792 740 848 c 0,0,1
EndSplineSet
EndChar

StartChar: four
Encoding: 52 52 25
Width: 1259
Flags: W
HStem: 64 200<346 736 969 1155>
VStem: 736 233<-242 64 267 842>
DStem2: 82 264 346 264 0.57295 0.81959<151.259 848.433>
LayerCount: 2
Fore
SplineSet
736 264 m 1,0,-1
 736 842 l 1,1,-1
 346 264 l 1,2,-1
 736 264 l 1,0,-1
969 1177 m 1,3,-1
 969 267 l 1,4,-1
 1155 267 l 1,5,-1
 1155 64 l 1,6,-1
 969 64 l 1,7,-1
 969 -242 l 1,8,-1
 736 -242 l 1,9,-1
 736 64 l 1,10,-1
 117 64 l 1,11,-1
 82 264 l 1,12,-1
 758 1231 l 1,13,-1
 969 1177 l 1,3,-1
EndSplineSet
EndChar

StartChar: five
Encoding: 53 53 26
Width: 1157
Flags: W
HStem: -198 214<275.07 715.098> 535 195<405.814 716.445> 985 201<386 958>
VStem: 169 217<671 985> 805 240<104.021 443.918>
LayerCount: 2
Fore
SplineSet
182 98 m 1,0,1
 214 83 214 83 254.5 68 c 128,-1,2
 295 53 295 53 340.5 41.5 c 128,-1,3
 386 30 386 30 434.5 23 c 128,-1,4
 483 16 483 16 531 16 c 0,5,6
 667 16 667 16 736 77 c 128,-1,7
 805 138 805 138 805 266 c 0,8,9
 805 399 805 399 742.5 467 c 128,-1,10
 680 535 680 535 554 535 c 0,11,12
 491 535 491 535 425 512.5 c 128,-1,13
 359 490 359 490 290 448 c 1,14,-1
 169 551 l 1,15,-1
 169 1186 l 1,16,-1
 958 1186 l 1,17,-1
 958 985 l 1,18,-1
 386 985 l 1,19,-1
 386 671 l 1,20,21
 386 671 386 671 398 680 c 0,22,23
 411 690 411 690 436 701 c 128,-1,24
 461 712 461 712 497 721 c 128,-1,25
 533 730 533 730 580 730 c 0,26,27
 686 730 686 730 771.5 698 c 128,-1,28
 857 666 857 666 918 606 c 128,-1,29
 979 546 979 546 1012 460 c 128,-1,30
 1045 374 1045 374 1045 265 c 0,31,32
 1045 159 1045 159 1008.5 73.5 c 128,-1,33
 972 -12 972 -12 906 -72.5 c 128,-1,34
 840 -133 840 -133 747.5 -165.5 c 128,-1,35
 655 -198 655 -198 542 -198 c 0,36,37
 492 -198 492 -198 439 -191.5 c 128,-1,38
 386 -185 386 -185 333.5 -172.5 c 128,-1,39
 281 -160 281 -160 230.5 -142.5 c 128,-1,40
 180 -125 180 -125 135 -104 c 1,41,-1
 182 98 l 1,0,1
EndSplineSet
EndChar

StartChar: six
Encoding: 54 54 27
Width: 1255
Flags: W
HStem: -130 205<492.674 799.542> 648 198<480.678 820.973> 1339 20G<795.5 877.029>
VStem: 115 257<208.846 548.061> 909 250<193.212 557.807>
LayerCount: 2
Fore
SplineSet
1159 366 m 0,0,1
 1159 261 1159 261 1125.5 170.5 c 128,-1,2
 1092 80 1092 80 1027 13 c 128,-1,3
 962 -54 962 -54 867.5 -92 c 128,-1,4
 773 -130 773 -130 651 -130 c 0,5,6
 522 -130 522 -130 422 -87 c 128,-1,7
 322 -44 322 -44 253.5 32.5 c 128,-1,8
 185 109 185 109 150 215 c 128,-1,9
 115 321 115 321 115 447 c 0,10,11
 115 643 115 643 176.5 795.5 c 128,-1,12
 238 948 238 948 342 1060.5 c 128,-1,13
 446 1173 446 1173 583 1247 c 128,-1,14
 720 1321 720 1321 871 1359 c 1,15,-1
 934 1150 l 1,16,17
 856 1134 856 1134 779.5 1104.5 c 128,-1,18
 703 1075 703 1075 636.5 1030 c 128,-1,19
 570 985 570 985 517.5 923.5 c 128,-1,20
 465 862 465 862 435 783 c 1,21,22
 486 810 486 810 544.5 828 c 128,-1,23
 603 846 603 846 675 846 c 0,24,25
 786 846 786 846 875.5 808.5 c 128,-1,26
 965 771 965 771 1028 706.5 c 128,-1,27
 1091 642 1091 642 1125 554 c 128,-1,28
 1159 466 1159 466 1159 366 c 0,0,1
372 436 m 0,29,30
 373 367 373 367 385.5 302 c 128,-1,31
 398 237 398 237 429 186.5 c 128,-1,32
 460 136 460 136 513.5 105.5 c 128,-1,33
 567 75 567 75 650 75 c 0,34,35
 724 75 724 75 773.5 102.5 c 128,-1,36
 823 130 823 130 853 174.5 c 128,-1,37
 883 219 883 219 896 275.5 c 128,-1,38
 909 332 909 332 909 390 c 0,39,40
 909 455 909 455 892 503.5 c 128,-1,41
 875 552 875 552 843.5 584 c 128,-1,42
 812 616 812 616 768 632 c 128,-1,43
 724 648 724 648 671 648 c 0,44,45
 625 648 625 648 580.5 637.5 c 128,-1,46
 536 627 536 627 497 610.5 c 128,-1,47
 458 594 458 594 426.5 573 c 128,-1,48
 395 552 395 552 375 532 c 1,49,50
 372 496 372 496 372 436 c 0,29,30
EndSplineSet
EndChar

StartChar: seven
Encoding: 55 55 28
Width: 1146
Flags: W
HStem: 1006 210<139 768>
DStem2: 254 -104 491 -210 0.419917 0.907563<3.3187 1223.23>
LayerCount: 2
Fore
SplineSet
1080 1063 m 1,0,-1
 491 -210 l 1,1,-1
 254 -104 l 1,2,-1
 768 1006 l 1,3,-1
 139 1006 l 1,4,-1
 139 1216 l 1,5,-1
 1009 1216 l 1,6,-1
 1080 1063 l 1,0,-1
EndSplineSet
EndChar

StartChar: eight
Encoding: 56 56 29
Width: 1303
Flags: W
HStem: -140 206<471.755 834.443> 550 184<508.831 797.95> 1150 198<483.019 822.402>
VStem: 150 255<131.978 443.6 831.961 1074.27> 898 255<128.366 445.902 827.643 1075.49>
LayerCount: 2
Fore
SplineSet
889 957 m 0,0,1
 889 1010 889 1010 871.5 1046.5 c 128,-1,2
 854 1083 854 1083 822.5 1106 c 128,-1,3
 791 1129 791 1129 748 1139.5 c 128,-1,4
 705 1150 705 1150 655 1150 c 0,5,6
 606 1150 606 1150 562 1140 c 128,-1,7
 518 1130 518 1130 485 1107.5 c 128,-1,8
 452 1085 452 1085 433 1048.5 c 128,-1,9
 414 1012 414 1012 414 958 c 0,10,11
 414 906 414 906 432 864.5 c 128,-1,12
 450 823 450 823 482 794 c 128,-1,13
 514 765 514 765 558 749.5 c 128,-1,14
 602 734 602 734 655 734 c 0,15,16
 707 734 707 734 750 749.5 c 128,-1,17
 793 765 793 765 824 793.5 c 128,-1,18
 855 822 855 822 872 863.5 c 128,-1,19
 889 905 889 905 889 957 c 0,0,1
898 279 m 0,20,21
 898 338 898 338 881 388 c 128,-1,22
 864 438 864 438 832 474 c 128,-1,23
 800 510 800 510 755 530 c 128,-1,24
 710 550 710 550 655 550 c 0,25,26
 598 550 598 550 552 530 c 128,-1,27
 506 510 506 510 473.5 474.5 c 128,-1,28
 441 439 441 439 423 389.5 c 128,-1,29
 405 340 405 340 405 280 c 0,30,31
 405 171 405 171 462.5 118.5 c 128,-1,32
 520 66 520 66 655 66 c 0,33,34
 724 66 724 66 770.5 79.5 c 128,-1,35
 817 93 817 93 845.5 119.5 c 128,-1,36
 874 146 874 146 886 186 c 128,-1,37
 898 226 898 226 898 279 c 0,20,21
1139 965 m 0,38,39
 1139 897 1139 897 1117.5 841.5 c 128,-1,40
 1096 786 1096 786 1059.5 744 c 128,-1,41
 1023 702 1023 702 974.5 674 c 128,-1,42
 926 646 926 646 872 632 c 1,43,44
 933 618 933 618 984.5 586 c 128,-1,45
 1036 554 1036 554 1073.5 506 c 128,-1,46
 1111 458 1111 458 1132 395 c 128,-1,47
 1153 332 1153 332 1153 257 c 0,48,49
 1153 155 1153 155 1113.5 80 c 128,-1,50
 1074 5 1074 5 1006.5 -44 c 128,-1,51
 939 -93 939 -93 848 -116.5 c 128,-1,52
 757 -140 757 -140 655 -140 c 0,53,54
 554 -140 554 -140 463 -117 c 128,-1,55
 372 -94 372 -94 302 -45 c 128,-1,56
 232 4 232 4 191 79 c 128,-1,57
 150 154 150 154 150 259 c 0,58,59
 150 334 150 334 171.5 397 c 128,-1,60
 193 460 193 460 230.5 507.5 c 128,-1,61
 268 555 268 555 319.5 587 c 128,-1,62
 371 619 371 619 431 633 c 1,63,64
 378 646 378 646 329.5 674.5 c 128,-1,65
 281 703 281 703 244.5 745 c 128,-1,66
 208 787 208 787 186 842.5 c 128,-1,67
 164 898 164 898 164 966 c 0,68,69
 164 1059 164 1059 202 1130 c 128,-1,70
 240 1201 240 1201 306 1249.5 c 128,-1,71
 372 1298 372 1298 461.5 1323 c 128,-1,72
 551 1348 551 1348 655 1348 c 0,73,74
 758 1348 758 1348 846.5 1323 c 128,-1,75
 935 1298 935 1298 1000 1249 c 128,-1,76
 1065 1200 1065 1200 1102 1129 c 128,-1,77
 1139 1058 1139 1058 1139 965 c 0,38,39
EndSplineSet
EndChar

StartChar: nine
Encoding: 57 57 30
Width: 1278
Flags: W
HStem: -220 210<401.767 493.422> 308 196<459.535 803.516> 1064 205<470.604 788.744>
VStem: 118 250<598.41 956.155> 909 254<572.735 930.424>
LayerCount: 2
Fore
SplineSet
603 308 m 0,0,1
 491 308 491 308 401 341 c 128,-1,2
 311 374 311 374 248 435 c 128,-1,3
 185 496 185 496 151.5 582.5 c 128,-1,4
 118 669 118 669 118 775 c 0,5,6
 118 880 118 880 152.5 970.5 c 128,-1,7
 187 1061 187 1061 252 1127 c 128,-1,8
 317 1193 317 1193 410 1231 c 128,-1,9
 503 1269 503 1269 619 1269 c 0,10,11
 750 1269 750 1269 851.5 1229 c 128,-1,12
 953 1189 953 1189 1022 1114.5 c 128,-1,13
 1091 1040 1091 1040 1127 933 c 128,-1,14
 1163 826 1163 826 1163 692 c 0,15,16
 1163 560 1163 560 1132 446.5 c 128,-1,17
 1101 333 1101 333 1047 238.5 c 128,-1,18
 993 144 993 144 919.5 68 c 128,-1,19
 846 -8 846 -8 762 -65 c 128,-1,20
 678 -122 678 -122 587 -161 c 128,-1,21
 496 -200 496 -200 406 -220 c 1,22,-1
 344 -10 l 1,23,24
 422 5 422 5 499.5 37 c 128,-1,25
 577 69 577 69 644.5 117.5 c 128,-1,26
 712 166 712 166 764 230.5 c 128,-1,27
 816 295 816 295 843 376 c 1,28,29
 800 346 800 346 738.5 327 c 128,-1,30
 677 308 677 308 603 308 c 0,0,1
368 764 m 1,31,32
 368 701 368 701 385.5 652.5 c 128,-1,33
 403 604 403 604 434.5 571 c 128,-1,34
 466 538 466 538 508.5 521 c 128,-1,35
 551 504 551 504 601 504 c 0,36,37
 642 504 642 504 689 512.5 c 128,-1,38
 736 521 736 521 779 533 c 128,-1,39
 822 545 822 545 854.5 558 c 128,-1,40
 887 571 887 571 898 580 c 1,41,42
 902 607 902 607 904.5 640 c 128,-1,43
 907 673 907 673 909 712 c 1,44,45
 908 778 908 778 895.5 841 c 128,-1,46
 883 904 883 904 851.5 953.5 c 128,-1,47
 820 1003 820 1003 766.5 1033.5 c 128,-1,48
 713 1064 713 1064 631 1064 c 0,49,50
 557 1064 557 1064 507 1040.5 c 128,-1,51
 457 1017 457 1017 426 976 c 128,-1,52
 395 935 395 935 382 880.5 c 128,-1,53
 369 826 369 826 368 764 c 1,31,32
EndSplineSet
EndChar

StartChar: colon
Encoding: 58 58 31
Width: 683
Flags: W
HStem: 0 363<188 538> 670 363<188 538>
VStem: 188 350<0 363 670 1033>
LayerCount: 2
Fore
SplineSet
188 363 m 1,0,-1
 538 363 l 1,1,-1
 538 0 l 1,2,-1
 188 0 l 1,3,-1
 188 363 l 1,0,-1
188 1033 m 1,4,-1
 538 1033 l 1,5,-1
 538 670 l 1,6,-1
 188 670 l 1,7,-1
 188 1033 l 1,4,-1
EndSplineSet
EndChar

StartChar: semicolon
Encoding: 59 59 32
Width: 672
Flags: W
HStem: 670 363<183 529>
VStem: 183 346<1.93457 360 670 1033> 342 188<-120 0>
LayerCount: 2
Fore
SplineSet
183 1033 m 1,0,-1
 529 1033 l 1,1,-1
 529 670 l 1,2,-1
 183 670 l 1,3,-1
 183 1033 l 1,0,-1
185 360 m 1,4,-1
 530 360 l 1,5,-1
 530 49 l 2,6,7
 530 -26 530 -26 506 -81 c 128,-1,8
 482 -136 482 -136 441.5 -175 c 128,-1,9
 401 -214 401 -214 347 -240.5 c 128,-1,10
 293 -267 293 -267 233 -285 c 1,11,-1
 186 -179 l 1,12,13
 229 -164 229 -164 259 -147.5 c 128,-1,14
 289 -131 289 -131 307.5 -110 c 128,-1,15
 326 -89 326 -89 334 -62.5 c 128,-1,16
 342 -36 342 -36 342 0 c 1,17,-1
 185 0 l 1,18,-1
 185 360 l 1,4,-1
EndSplineSet
EndChar

StartChar: less
Encoding: 60 60 33
Width: 1240
Flags: W
DStem2: 444 637 189 576 0.802903 -0.59611<0 686.257> 236 741 444 637 0.806333 0.591462<106.205 791.703>
LayerCount: 2
Fore
SplineSet
236 741 m 1,0,-1
 949 1264 l 1,1,-1
 1000 1038 l 1,2,-1
 444 637 l 1,3,-1
 1001 236 l 1,4,-1
 950 11 l 1,5,-1
 189 576 l 1,6,-1
 236 741 l 1,0,-1
EndSplineSet
EndChar

StartChar: equal
Encoding: 61 61 34
Width: 1084
Flags: W
HStem: 278 186<164 920> 585 186<164 920>
LayerCount: 2
Fore
SplineSet
164 278 m 1,0,-1
 164 464 l 1,1,-1
 920 464 l 1,2,-1
 920 278 l 1,3,-1
 164 278 l 1,0,-1
164 585 m 1,4,-1
 164 771 l 1,5,-1
 920 771 l 1,6,-1
 920 585 l 1,7,-1
 164 585 l 1,4,-1
EndSplineSet
EndChar

StartChar: greater
Encoding: 62 62 35
Width: 1229
Flags: W
DStem2: 311 1264 260 1033 0.807349 -0.590074<95.1323 774.458> 260 241 311 11 0.802527 0.596616<0 679.255>
LayerCount: 2
Fore
SplineSet
311 11 m 1,0,-1
 260 241 l 1,1,-1
 812 637 l 1,2,-1
 260 1033 l 1,3,-1
 311 1264 l 1,4,-1
 1017 748 l 1,5,-1
 1071 576 l 1,6,-1
 311 11 l 1,0,-1
EndSplineSet
EndChar

StartChar: question
Encoding: 63 63 36
Width: 1157
Flags: W
HStem: -36 280<313.209 456.879> 1369 221<250.605 704.333>
VStem: 261 295<18.7148 218.948> 273 255<66.1532 230.538 364 698.208> 771 270<1048.96 1305.91>
DStem2: 243.5 1554 340.5 1348.5 0.979631 0.200804<-144.413 209.074>
LayerCount: 2
Fore
SplineSet
261 173 m 1,0,1
 287 215 287 215 339 244 c 128,-1,2
 391 273 391 273 459 273 c 1,3,4
 501 246 501 246 528.5 189.5 c 128,-1,5
 556 133 556 133 556 64 c 1,6,7
 544 43 544 43 524 25 c 128,-1,8
 504 7 504 7 478.5 -6.5 c 128,-1,9
 453 -20 453 -20 422.5 -28 c 128,-1,10
 392 -36 392 -36 359 -36 c 1,11,12
 316 -8 316 -8 288.5 48 c 128,-1,13
 261 104 261 104 261 173 c 1,0,1
771 1180 m 0,14,15
 771 1236 771 1236 751 1272.5 c 128,-1,16
 731 1309 731 1309 695 1330.5 c 128,-1,17
 659 1352 659 1352 608.5 1360.5 c 128,-1,18
 558 1369 558 1369 496 1369 c 0,19,20
 459 1369 459 1369 419 1363 c 128,-1,21
 379 1357 379 1357 340.5 1348.5 c 128,-1,22
 302 1340 302 1340 267.5 1329.5 c 128,-1,23
 233 1319 233 1319 207 1310 c 128,-1,24
 181 1301 181 1301 174 1298 c 2,25,-1
 150 1289 l 1,26,-1
 77 1492 l 1,27,28
 102 1505 102 1505 144.5 1522 c 128,-1,29
 187 1539 187 1539 243.5 1554 c 128,-1,30
 300 1569 300 1569 367.5 1579.5 c 128,-1,31
 435 1590 435 1590 512 1590 c 0,32,33
 623 1590 623 1590 719.5 1568 c 128,-1,34
 816 1546 816 1546 887.5 1498.5 c 128,-1,35
 959 1451 959 1451 1000 1376.5 c 128,-1,36
 1041 1302 1041 1302 1041 1198 c 0,37,38
 1041 1118 1041 1118 1010.5 1042.5 c 128,-1,39
 980 967 980 967 916.5 901 c 128,-1,40
 853 835 853 835 756.5 779.5 c 128,-1,41
 660 724 660 724 528 684 c 1,42,-1
 528 364 l 1,43,-1
 273 364 l 1,44,-1
 273 815 l 1,45,46
 381 851 381 851 472 886.5 c 128,-1,47
 563 922 563 922 629.5 964 c 128,-1,48
 696 1006 696 1006 733.5 1058 c 128,-1,49
 771 1110 771 1110 771 1180 c 0,14,15
EndSplineSet
EndChar

StartChar: at
Encoding: 64 64 37
Width: 1972
Flags: W
HStem: -146 187<713.531 1249.69> 232 166<776.156 1047.31 1388.17 1522.47> 1012 152<895.09 1250.77> 1324 193<771.835 1314.57>
VStem: 134 224<370.028 897.026> 512 204<459.961 823.042> 1254 176<725.303 997.538> 1254 133<398.547 545> 1642 218<536.328 1018.87>
DStem2: 1219 74 1264.5 -109.5 0.924468 0.381259<-194.471 185.697>
LayerCount: 2
Fore
SplineSet
986 -146 m 0,0,1
 778 -146 778 -146 619 -88 c 128,-1,2
 460 -30 460 -30 352 72 c 128,-1,3
 244 174 244 174 189 314 c 128,-1,4
 134 454 134 454 134 619 c 0,5,6
 134 748 134 748 163.5 864 c 128,-1,7
 193 980 193 980 249 1080 c 128,-1,8
 305 1180 305 1180 385 1260.5 c 128,-1,9
 465 1341 465 1341 565.5 1398 c 128,-1,10
 666 1455 666 1455 785.5 1486 c 128,-1,11
 905 1517 905 1517 1039 1517 c 0,12,13
 1148 1517 1148 1517 1251 1496.5 c 128,-1,14
 1354 1476 1354 1476 1445 1434.5 c 128,-1,15
 1536 1393 1536 1393 1612.5 1332 c 128,-1,16
 1689 1271 1689 1271 1744 1190.5 c 128,-1,17
 1799 1110 1799 1110 1829.5 1009.5 c 128,-1,18
 1860 909 1860 909 1860 790 c 0,19,20
 1860 700 1860 700 1841.5 622 c 128,-1,21
 1823 544 1823 544 1791.5 481 c 128,-1,22
 1760 418 1760 418 1718 370.5 c 128,-1,23
 1676 323 1676 323 1628 293 c 0,24,25
 1583 264 1583 264 1523.5 251.5 c 128,-1,26
 1464 239 1464 239 1393 239 c 0,27,28
 1354 239 1354 239 1327 250.5 c 128,-1,29
 1300 262 1300 262 1284 283.5 c 128,-1,30
 1268 305 1268 305 1261 335 c 128,-1,31
 1254 365 1254 365 1254 402 c 0,32,33
 1254 438 1254 438 1254.5 473.5 c 128,-1,34
 1255 509 1255 509 1256 545 c 1,35,36
 1238 480 1238 480 1208.5 423 c 128,-1,37
 1179 366 1179 366 1134.5 323.5 c 128,-1,38
 1090 281 1090 281 1029 256.5 c 128,-1,39
 968 232 968 232 886 232 c 0,40,41
 829 232 829 232 777.5 245 c 128,-1,42
 726 258 726 258 682 286.5 c 128,-1,43
 638 315 638 315 602 359.5 c 128,-1,44
 566 404 566 404 541 467 c 0,45,46
 512 542 512 542 512 634 c 0,47,48
 512 745 512 745 556 841.5 c 128,-1,49
 600 938 600 938 675.5 1010 c 128,-1,50
 751 1082 751 1082 851 1123 c 128,-1,51
 951 1164 951 1164 1062 1164 c 0,52,53
 1082 1164 1082 1164 1108.5 1162 c 128,-1,54
 1135 1160 1135 1160 1163.5 1157 c 128,-1,55
 1192 1154 1192 1154 1220.5 1149.5 c 128,-1,56
 1249 1145 1249 1145 1272 1140 c 0,57,58
 1346 1124 1346 1124 1382.5 1084 c 128,-1,59
 1419 1044 1419 1044 1430 987 c 1,60,61
 1430 961 1430 961 1430 937 c 128,-1,62
 1430 913 1430 913 1429 889 c 1,63,-1
 1387 398 l 1,64,65
 1516 409 1516 409 1579 498 c 128,-1,66
 1642 587 1642 587 1642 769 c 0,67,68
 1642 920 1642 920 1594 1025.5 c 128,-1,69
 1546 1131 1546 1131 1462.5 1197.5 c 128,-1,70
 1379 1264 1379 1264 1267.5 1294 c 128,-1,71
 1156 1324 1156 1324 1029 1324 c 0,72,73
 881 1324 881 1324 757.5 1274 c 128,-1,74
 634 1224 634 1224 545.5 1132 c 128,-1,75
 457 1040 457 1040 407.5 910 c 128,-1,76
 358 780 358 780 358 619 c 0,77,78
 358 479 358 479 401.5 371.5 c 128,-1,79
 445 264 445 264 528.5 190.5 c 128,-1,80
 612 117 612 117 733.5 79 c 128,-1,81
 855 41 855 41 1012 41 c 0,82,83
 1078 41 1078 41 1129.5 51 c 128,-1,84
 1181 61 1181 61 1219 74 c 128,-1,85
 1257 87 1257 87 1281.5 100 c 128,-1,86
 1306 113 1306 113 1320 120 c 1,87,88
 1338 125 1338 125 1356 130.5 c 128,-1,89
 1374 136 1374 136 1391 144 c 1,90,-1
 1465 -9 l 1,91,92
 1390 -73 1390 -73 1264.5 -109.5 c 128,-1,93
 1139 -146 1139 -146 986 -146 c 0,0,1
1073 1012 m 0,94,95
 997 1012 997 1012 932 985.5 c 128,-1,96
 867 959 867 959 819 908 c 128,-1,97
 771 857 771 857 743.5 783 c 128,-1,98
 716 709 716 709 716 613 c 0,99,100
 716 516 716 516 762.5 457 c 128,-1,101
 809 398 809 398 898 398 c 0,102,103
 982 398 982 398 1045 440.5 c 128,-1,104
 1108 483 1108 483 1151 560.5 c 128,-1,105
 1194 638 1194 638 1218.5 747.5 c 128,-1,106
 1243 857 1243 857 1251 992 c 1,107,108
 1242 993 1242 993 1222.5 996.5 c 128,-1,109
 1203 1000 1203 1000 1178.5 1003.5 c 128,-1,110
 1154 1007 1154 1007 1126.5 1009.5 c 128,-1,111
 1099 1012 1099 1012 1073 1012 c 0,94,95
EndSplineSet
EndChar

StartChar: A
Encoding: 65 65 38
Width: 1503
Flags: W
HStem: 0 21G<46 342.361 1160.64 1457> 371 139<492 1011> 1582 20G<565.433 933.617>
VStem: 46 290<0 290> 1167 290<0 290>
DStem2: 46 0 336 0 0.311954 0.950097<90.4668 479.763 623.681 1468.65> 927 1602 755 1313 0.314094 -0.949392<220.35 1063.12>
LayerCount: 2
Fore
SplineSet
927 1602 m 1,0,-1
 1457 0 l 1,1,-1
 1167 0 l 1,2,-1
 1049 371 l 1,3,-1
 454 371 l 1,4,-1
 336 0 l 1,5,-1
 46 0 l 1,6,-1
 572 1602 l 1,7,-1
 927 1602 l 1,0,-1
492 510 m 1,8,-1
 1011 510 l 1,9,-1
 755 1313 l 1,10,-1
 492 510 l 1,8,-1
EndSplineSet
EndChar

StartChar: B
Encoding: 66 66 39
Width: 1428
Flags: W
HStem: 0 192<442 945> 755 180<442 912.079> 1410 192<442 914.22>
VStem: 155 287<192 755 935 1410> 1023 251<1032.88 1320.56> 1065 279<297.265 641.57>
LayerCount: 2
Fore
SplineSet
551 1602 m 2,0,1
 738 1602 738 1602 864.5 1579.5 c 128,-1,2
 991 1557 991 1557 1077 1516 c 0,3,4
 1121 1495 1121 1495 1157.5 1465.5 c 128,-1,5
 1194 1436 1194 1436 1220 1398 c 128,-1,6
 1246 1360 1246 1360 1260 1313 c 128,-1,7
 1274 1266 1274 1266 1274 1208 c 0,8,9
 1274 1121 1274 1121 1249 1059 c 128,-1,10
 1224 997 1224 997 1179 956 c 128,-1,11
 1134 915 1134 915 1072 892 c 128,-1,12
 1010 869 1010 869 935 859 c 1,13,14
 1020 848 1020 848 1095 823.5 c 128,-1,15
 1170 799 1170 799 1225 752.5 c 128,-1,16
 1280 706 1280 706 1312 632 c 128,-1,17
 1344 558 1344 558 1344 448 c 0,18,19
 1344 349 1344 349 1319 277.5 c 128,-1,20
 1294 206 1294 206 1246.5 156 c 128,-1,21
 1199 106 1199 106 1130 75.5 c 128,-1,22
 1061 45 1061 45 973 28 c 128,-1,23
 885 11 885 11 778.5 5.5 c 128,-1,24
 672 0 672 0 550 0 c 2,25,-1
 155 0 l 1,26,-1
 155 1602 l 1,27,-1
 551 1602 l 2,0,1
616 192 m 2,28,29
 738 192 738 192 823.5 203.5 c 128,-1,30
 909 215 909 215 962.5 246 c 128,-1,31
 1016 277 1016 277 1040.5 330.5 c 128,-1,32
 1065 384 1065 384 1065 468 c 0,33,34
 1065 551 1065 551 1040.5 606.5 c 128,-1,35
 1016 662 1016 662 964.5 695 c 128,-1,36
 913 728 913 728 833.5 741.5 c 128,-1,37
 754 755 754 755 644 755 c 2,38,-1
 442 755 l 1,39,-1
 442 192 l 1,40,-1
 616 192 l 2,28,29
442 935 m 1,41,-1
 643 935 l 2,42,43
 748 935 748 935 820.5 949.5 c 128,-1,44
 893 964 893 964 938 995 c 128,-1,45
 983 1026 983 1026 1003 1074.5 c 128,-1,46
 1023 1123 1023 1123 1023 1190 c 0,47,48
 1023 1248 1023 1248 1001 1289.5 c 128,-1,49
 979 1331 979 1331 929 1358 c 128,-1,50
 879 1385 879 1385 798 1397.5 c 128,-1,51
 717 1410 717 1410 600 1410 c 2,52,-1
 442 1410 l 1,53,-1
 442 935 l 1,41,-1
EndSplineSet
EndChar

StartChar: C
Encoding: 67 67 40
Width: 1311
Flags: W
HStem: -35 212<619.654 1050.36> 1418 213<624.022 1071.15>
VStem: 104 290<455.937 1129.18>
DStem2: 944 1621.5 932.5 1409 0.976936 -0.213531<-78.7562 285.425>
LayerCount: 2
Fore
SplineSet
394 786 m 0,0,1
 394 639 394 639 419.5 525.5 c 128,-1,2
 445 412 445 412 496.5 334.5 c 128,-1,3
 548 257 548 257 627 217 c 128,-1,4
 706 177 706 177 814 177 c 0,5,6
 877 177 877 177 934.5 189 c 128,-1,7
 992 201 992 201 1040 218 c 128,-1,8
 1088 235 1088 235 1124.5 254.5 c 128,-1,9
 1161 274 1161 274 1181 288 c 1,10,-1
 1260 85 l 1,11,12
 1246 73 1246 73 1204.5 52.5 c 128,-1,13
 1163 32 1163 32 1101.5 12.5 c 128,-1,14
 1040 -7 1040 -7 961.5 -21 c 128,-1,15
 883 -35 883 -35 796 -35 c 0,16,17
 626 -35 626 -35 497 21 c 128,-1,18
 368 77 368 77 280.5 183 c 128,-1,19
 193 289 193 289 148.5 442.5 c 128,-1,20
 104 596 104 596 104 791 c 0,21,22
 104 904 104 904 121.5 1010 c 128,-1,23
 139 1116 139 1116 176 1209.5 c 128,-1,24
 213 1303 213 1303 269.5 1380.5 c 128,-1,25
 326 1458 326 1458 403 1513.5 c 128,-1,26
 480 1569 480 1569 579 1600 c 128,-1,27
 678 1631 678 1631 800 1631 c 0,28,29
 874 1631 874 1631 944 1621.5 c 128,-1,30
 1014 1612 1014 1612 1073 1597.5 c 128,-1,31
 1132 1583 1132 1583 1177 1565.5 c 128,-1,32
 1222 1548 1222 1548 1246 1531 c 1,33,-1
 1172 1324 l 1,34,35
 1148 1340 1148 1340 1112.5 1356.5 c 128,-1,36
 1077 1373 1077 1373 1032 1386.5 c 128,-1,37
 987 1400 987 1400 932.5 1409 c 128,-1,38
 878 1418 878 1418 817 1418 c 0,39,40
 706 1418 706 1418 626.5 1375.5 c 128,-1,41
 547 1333 547 1333 495 1252 c 128,-1,42
 443 1171 443 1171 418.5 1053.5 c 128,-1,43
 394 936 394 936 394 786 c 0,0,1
EndSplineSet
EndChar

StartChar: D
Encoding: 68 68 41
Width: 1545
Flags: W
HStem: 0 192<442 896.21> 1410 192<442 907.478>
VStem: 157 285<192 1410> 1149 291<479.296 1139.77>
LayerCount: 2
Fore
SplineSet
1149 799 m 0,0,1
 1149 944 1149 944 1126.5 1058 c 128,-1,2
 1104 1172 1104 1172 1050.5 1250 c 128,-1,3
 997 1328 997 1328 907 1369 c 128,-1,4
 817 1410 817 1410 682 1410 c 2,5,-1
 442 1410 l 1,6,-1
 442 192 l 1,7,-1
 671 192 l 2,8,9
 800 192 800 192 891 233 c 128,-1,10
 982 274 982 274 1039 352 c 128,-1,11
 1096 430 1096 430 1122.5 543 c 128,-1,12
 1149 656 1149 656 1149 799 c 0,0,1
1440 800 m 0,13,14
 1440 622 1440 622 1400.5 475 c 128,-1,15
 1361 328 1361 328 1272 222.5 c 128,-1,16
 1183 117 1183 117 1039.5 58.5 c 128,-1,17
 896 0 896 0 688 0 c 2,18,-1
 157 0 l 1,19,-1
 157 1602 l 1,20,-1
 679 1602 l 2,21,22
 1058 1602 1058 1602 1249 1406.5 c 128,-1,23
 1440 1211 1440 1211 1440 800 c 0,13,14
EndSplineSet
EndChar

StartChar: E
Encoding: 69 69 42
Width: 1266
Flags: W
HStem: 0 189<442 1203> 750 174<442 1096> 1410 192<442 1191>
VStem: 155 287<189 750 924 1410>
LayerCount: 2
Fore
SplineSet
155 0 m 1,0,-1
 155 1602 l 1,1,-1
 1191 1602 l 1,2,-1
 1191 1410 l 1,3,-1
 442 1410 l 1,4,-1
 442 924 l 1,5,-1
 1096 924 l 1,6,-1
 1096 750 l 1,7,-1
 442 750 l 1,8,-1
 442 189 l 1,9,-1
 1203 189 l 1,10,-1
 1203 0 l 1,11,-1
 155 0 l 1,0,-1
EndSplineSet
EndChar

StartChar: F
Encoding: 70 70 43
Width: 1203
Flags: W
HStem: 0 21G<155 442> 743 174<442 1097> 1410 192<442 1172>
VStem: 155 287<0 743 917 1410>
LayerCount: 2
Fore
SplineSet
442 0 m 1,0,-1
 155 0 l 1,1,-1
 155 1602 l 1,2,-1
 1172 1602 l 1,3,-1
 1172 1410 l 1,4,-1
 442 1410 l 1,5,-1
 442 917 l 1,6,-1
 1097 917 l 1,7,-1
 1097 743 l 1,8,-1
 442 743 l 1,9,-1
 442 0 l 1,0,-1
EndSplineSet
EndChar

StartChar: G
Encoding: 71 71 44
Width: 1545
Flags: W
HStem: -35 213<610.138 1022.51> 0 21G<1234.92 1407> 679 179<762 1152> 1418 213<639.863 1079.85>
VStem: 104 291<453.575 1122.22> 1152 255<277.218 679>
LayerCount: 2
Fore
SplineSet
1152 679 m 1,0,-1
 762 679 l 1,1,-1
 762 858 l 1,2,-1
 1407 858 l 1,3,-1
 1407 0 l 1,4,-1
 1241 0 l 1,5,-1
 1189 171 l 1,6,7
 1173 126 1173 126 1138 88 c 128,-1,8
 1103 50 1103 50 1050 22.5 c 128,-1,9
 997 -5 997 -5 927 -20 c 128,-1,10
 857 -35 857 -35 771 -35 c 0,11,12
 611 -35 611 -35 487 22 c 128,-1,13
 363 79 363 79 278 185.5 c 128,-1,14
 193 292 193 292 148.5 445 c 128,-1,15
 104 598 104 598 104 789 c 0,16,17
 104 994 104 994 153.5 1151 c 128,-1,18
 203 1308 203 1308 297 1414.5 c 128,-1,19
 391 1521 391 1521 527.5 1576 c 128,-1,20
 664 1631 664 1631 838 1631 c 0,21,22
 918 1631 918 1631 987.5 1620.5 c 128,-1,23
 1057 1610 1057 1610 1116.5 1592 c 128,-1,24
 1176 1574 1176 1574 1224 1550 c 128,-1,25
 1272 1526 1272 1526 1310 1499 c 1,26,-1
 1222 1305 l 1,27,28
 1186 1327 1186 1327 1142.5 1347.5 c 128,-1,29
 1099 1368 1099 1368 1049.5 1383.5 c 128,-1,30
 1000 1399 1000 1399 946.5 1408.5 c 128,-1,31
 893 1418 893 1418 836 1418 c 0,32,33
 623 1418 623 1418 509 1262.5 c 128,-1,34
 395 1107 395 1107 395 791 c 0,35,36
 395 652 395 652 417 539 c 128,-1,37
 439 426 439 426 487 345.5 c 128,-1,38
 535 265 535 265 611.5 221.5 c 128,-1,39
 688 178 688 178 797 178 c 0,40,41
 863 178 863 178 921 188 c 128,-1,42
 979 198 979 198 1025.5 219 c 128,-1,43
 1072 240 1072 240 1104.5 274 c 128,-1,44
 1137 308 1137 308 1152 356 c 1,45,-1
 1152 679 l 1,0,-1
EndSplineSet
EndChar

StartChar: H
Encoding: 72 72 45
Width: 1588
Flags: W
HStem: 0 21G<155 442 1145 1432> 744 174<442 1145> 1582 20G<155 442 1145 1432>
VStem: 155 287<0 744 918 1602> 1145 287<0 744 918 1602>
LayerCount: 2
Fore
SplineSet
1145 744 m 1,0,-1
 442 744 l 1,1,-1
 442 0 l 1,2,-1
 155 0 l 1,3,-1
 155 1602 l 1,4,-1
 442 1602 l 1,5,-1
 442 918 l 1,6,-1
 1145 918 l 1,7,-1
 1145 1602 l 1,8,-1
 1432 1602 l 1,9,-1
 1432 0 l 1,10,-1
 1145 0 l 1,11,-1
 1145 744 l 1,0,-1
EndSplineSet
EndChar

StartChar: I
Encoding: 73 73 46
Width: 835
Flags: W
HStem: 0 143<88 278 559 751> 1455 147<88 278 559 751>
VStem: 278 281<143 1455>
LayerCount: 2
Fore
SplineSet
278 143 m 1,0,-1
 278 1455 l 1,1,-1
 88 1455 l 1,2,-1
 88 1602 l 1,3,-1
 751 1602 l 1,4,-1
 751 1455 l 1,5,-1
 559 1455 l 1,6,-1
 559 143 l 1,7,-1
 751 143 l 1,8,-1
 751 0 l 1,9,-1
 88 0 l 1,10,-1
 88 143 l 1,11,-1
 278 143 l 1,0,-1
EndSplineSet
EndChar

StartChar: J
Encoding: 74 74 47
Width: 808
Flags: W
HStem: -90 187<108.327 206.422> 1582 20G<366 653>
VStem: 366 287<239.156 1602>
LayerCount: 2
Fore
SplineSet
40 97 m 1,0,1
 142 113 142 113 206 140.5 c 128,-1,2
 270 168 270 168 305.5 214.5 c 128,-1,3
 341 261 341 261 353.5 330 c 128,-1,4
 366 399 366 399 366 500 c 2,5,-1
 366 1602 l 1,6,-1
 653 1602 l 1,7,-1
 653 518 l 2,8,9
 653 377 653 377 627.5 268 c 128,-1,10
 602 159 602 159 540 82.5 c 128,-1,11
 478 6 478 6 374 -37.5 c 128,-1,12
 270 -81 270 -81 114 -90 c 1,13,-1
 40 97 l 1,0,1
EndSplineSet
EndChar

StartChar: K
Encoding: 75 75 48
Width: 1455
Flags: W
HStem: 0 21G<155 442 1093.54 1430> 719 169<442 588> 1582 20G<155 442 1052.83 1369>
VStem: 155 287<0 719 888 1602> 1066 303<1299 1602> 1108 322<0 322>
DStem2: 823 807 588 719 0.601109 -0.799167<0 816.244>
LayerCount: 2
Fore
SplineSet
442 0 m 1,0,-1
 155 0 l 1,1,-1
 155 1602 l 1,2,-1
 442 1602 l 1,3,-1
 442 888 l 1,4,-1
 596 888 l 1,5,-1
 1066 1602 l 1,6,-1
 1369 1602 l 1,7,-1
 823 807 l 1,8,-1
 1430 0 l 1,9,-1
 1108 0 l 1,10,-1
 588 719 l 1,11,-1
 442 719 l 1,12,-1
 442 0 l 1,0,-1
EndSplineSet
EndChar

StartChar: L
Encoding: 76 76 49
Width: 1210
Flags: W
HStem: 0 192<442 1166> 1582 20G<155 442>
VStem: 155 287<192 1602>
LayerCount: 2
Fore
SplineSet
155 0 m 1,0,-1
 155 1602 l 1,1,-1
 442 1602 l 1,2,-1
 442 192 l 1,3,-1
 1166 192 l 1,4,-1
 1166 0 l 1,5,-1
 155 0 l 1,0,-1
EndSplineSet
EndChar

StartChar: M
Encoding: 77 77 50
Width: 1975
Flags: W
HStem: 0 21G<155 410 844.152 1132.82 1565 1820> 1582 20G<155 550.817 1423.06 1820>
VStem: 155 255<0 1288> 1565 255<0 1288>
DStem2: 544 1602 410 1288 0.32393 -0.946081<253.663 1360.76> 983 314 1126 0 0.327866 0.944724<0 1110.98>
LayerCount: 2
Fore
SplineSet
410 1288 m 1,0,-1
 410 0 l 1,1,-1
 155 0 l 1,2,-1
 155 1602 l 1,3,-1
 544 1602 l 1,4,-1
 983 314 l 1,5,-1
 1430 1602 l 1,6,-1
 1820 1602 l 1,7,-1
 1820 0 l 1,8,-1
 1565 0 l 1,9,-1
 1565 1288 l 1,10,-1
 1126 0 l 1,11,-1
 851 0 l 1,12,-1
 410 1288 l 1,0,-1
EndSplineSet
EndChar

StartChar: N
Encoding: 78 78 51
Width: 1642
Flags: W
HStem: 0 21G<155 421 1153.14 1486> 1582 20G<155 500.787 1221 1486>
VStem: 155 266<0 1255> 1221 265<360 1602>
DStem2: 489 1602 421 1255 0.509953 -0.860202<263.813 1441.66>
LayerCount: 2
Fore
SplineSet
1165 0 m 1,0,-1
 421 1255 l 1,1,-1
 421 0 l 1,2,-1
 155 0 l 1,3,-1
 155 1602 l 1,4,-1
 489 1602 l 1,5,-1
 1221 360 l 1,6,-1
 1221 1602 l 1,7,-1
 1486 1602 l 1,8,-1
 1486 0 l 1,9,-1
 1165 0 l 1,0,-1
EndSplineSet
EndChar

StartChar: O
Encoding: 79 79 52
Width: 1595
Flags: W
HStem: -36 214<609.334 985.761> 1419 211<610.586 986.824>
VStem: 104 290<452.635 1146.59> 1201 291<450.649 1145.03>
LayerCount: 2
Fore
SplineSet
1492 809 m 0,0,1
 1492 630 1492 630 1456 475.5 c 128,-1,2
 1420 321 1420 321 1338.5 207.5 c 128,-1,3
 1257 94 1257 94 1124 29 c 128,-1,4
 991 -36 991 -36 797 -36 c 0,5,6
 668 -36 668 -36 566 -6 c 128,-1,7
 464 24 464 24 387 79 c 128,-1,8
 310 134 310 134 256 212 c 128,-1,9
 202 290 202 290 168.5 385 c 128,-1,10
 135 480 135 480 119.5 590.5 c 128,-1,11
 104 701 104 701 104 821 c 0,12,13
 104 1010 104 1010 148 1160.5 c 128,-1,14
 192 1311 192 1311 279 1415 c 128,-1,15
 366 1519 366 1519 495.5 1574.5 c 128,-1,16
 625 1630 625 1630 797 1630 c 0,17,18
 970 1630 970 1630 1100.5 1574.5 c 128,-1,19
 1231 1519 1231 1519 1318 1413 c 128,-1,20
 1405 1307 1405 1307 1448.5 1154.5 c 128,-1,21
 1492 1002 1492 1002 1492 809 c 0,0,1
394 794 m 0,22,23
 394 651 394 651 416.5 537 c 128,-1,24
 439 423 439 423 487.5 343 c 128,-1,25
 536 263 536 263 612.5 220.5 c 128,-1,26
 689 178 689 178 797 178 c 0,27,28
 902 178 902 178 978.5 218.5 c 128,-1,29
 1055 259 1055 259 1104.5 337.5 c 128,-1,30
 1154 416 1154 416 1177.5 530.5 c 128,-1,31
 1201 645 1201 645 1201 794 c 0,32,33
 1201 944 1201 944 1178 1060 c 128,-1,34
 1155 1176 1155 1176 1106 1256 c 128,-1,35
 1057 1336 1057 1336 981.5 1377.5 c 128,-1,36
 906 1419 906 1419 801 1419 c 0,37,38
 693 1419 693 1419 616 1378 c 128,-1,39
 539 1337 539 1337 489.5 1257.5 c 128,-1,40
 440 1178 440 1178 417 1061.5 c 128,-1,41
 394 945 394 945 394 794 c 0,22,23
EndSplineSet
EndChar

StartChar: P
Encoding: 80 80 53
Width: 1381
Flags: W
HStem: 0 21G<155 442> 604 185<442 865.185> 1410 192<442 883.758>
VStem: 155 287<0 604 789 1410> 1033 289<923.538 1274.31>
LayerCount: 2
Fore
SplineSet
1322 1098 m 1,0,1
 1322 962 1322 962 1274 867.5 c 128,-1,2
 1226 773 1226 773 1131 714.5 c 128,-1,3
 1036 656 1036 656 892.5 630 c 128,-1,4
 749 604 749 604 559 604 c 2,5,-1
 442 604 l 1,6,-1
 442 0 l 1,7,-1
 155 0 l 1,8,-1
 155 1602 l 1,9,-1
 590 1602 l 2,10,11
 689 1602 689 1602 781.5 1593.5 c 128,-1,12
 874 1585 874 1585 955 1563 c 128,-1,13
 1036 1541 1036 1541 1103 1504.5 c 128,-1,14
 1170 1468 1170 1468 1218.5 1412 c 128,-1,15
 1267 1356 1267 1356 1294 1278.5 c 128,-1,16
 1321 1201 1321 1201 1322 1098 c 1,0,1
549 789 m 2,17,18
 669 789 669 789 760 804.5 c 128,-1,19
 851 820 851 820 911.5 854.5 c 128,-1,20
 972 889 972 889 1002.5 945 c 128,-1,21
 1033 1001 1033 1001 1033 1083 c 0,22,23
 1033 1188 1033 1188 1001 1252 c 128,-1,24
 969 1316 969 1316 910.5 1351.5 c 128,-1,25
 852 1387 852 1387 769.5 1398.5 c 128,-1,26
 687 1410 687 1410 587 1410 c 2,27,-1
 442 1410 l 1,28,-1
 442 789 l 1,29,-1
 549 789 l 2,17,18
EndSplineSet
EndChar

StartChar: Q
Encoding: 81 81 54
Width: 1604
Flags: W
HStem: -429 21G<1131.13 1173.4> 1418 213<612.236 990.69>
VStem: 104 291<450.452 1144.29> 1209 290<458.391 1138.91>
LayerCount: 2
Fore
SplineSet
1499 792 m 0,0,1
 1499 627 1499 627 1467.5 489 c 128,-1,2
 1436 351 1436 351 1370.5 246.5 c 128,-1,3
 1305 142 1305 142 1204.5 73.5 c 128,-1,4
 1104 5 1104 5 966 -20 c 1,5,-1
 1304 -267 l 1,6,-1
 1155 -429 l 1,7,-1
 674 -26 l 1,8,9
 567 -12 567 -12 483 27 c 128,-1,10
 399 66 399 66 336 124 c 128,-1,11
 273 182 273 182 228.5 258 c 128,-1,12
 184 334 184 334 156.5 421 c 128,-1,13
 129 508 129 508 116.5 605 c 128,-1,14
 104 702 104 702 104 803 c 0,15,16
 104 921 104 921 121.5 1028 c 128,-1,17
 139 1135 139 1135 175.5 1227 c 128,-1,18
 212 1319 212 1319 267.5 1393.5 c 128,-1,19
 323 1468 323 1468 400 1521 c 128,-1,20
 477 1574 477 1574 575 1602.5 c 128,-1,21
 673 1631 673 1631 794 1631 c 0,22,23
 968 1631 968 1631 1100 1576.5 c 128,-1,24
 1232 1522 1232 1522 1320.5 1415.5 c 128,-1,25
 1409 1309 1409 1309 1454 1152.5 c 128,-1,26
 1499 996 1499 996 1499 792 c 0,0,1
802 1418 m 0,27,28
 685 1418 685 1418 607 1371 c 128,-1,29
 529 1324 529 1324 482 1241.5 c 128,-1,30
 435 1159 435 1159 415 1045 c 128,-1,31
 395 931 395 931 395 798 c 0,32,33
 395 666 395 666 414.5 552.5 c 128,-1,34
 434 439 434 439 481 356 c 128,-1,35
 528 273 528 273 606 225.5 c 128,-1,36
 684 178 684 178 802 178 c 0,37,38
 886 178 886 178 949 203.5 c 128,-1,39
 1012 229 1012 229 1057.5 273 c 128,-1,40
 1103 317 1103 317 1132 377 c 128,-1,41
 1161 437 1161 437 1178.5 506 c 128,-1,42
 1196 575 1196 575 1202.5 649.5 c 128,-1,43
 1209 724 1209 724 1209 798 c 0,44,45
 1209 876 1209 876 1202 952.5 c 128,-1,46
 1195 1029 1195 1029 1177 1098 c 128,-1,47
 1159 1167 1159 1167 1129 1225.5 c 128,-1,48
 1099 1284 1099 1284 1054 1327 c 128,-1,49
 1009 1370 1009 1370 946.5 1394 c 128,-1,50
 884 1418 884 1418 802 1418 c 0,27,28
EndSplineSet
EndChar

StartChar: R
Encoding: 82 82 55
Width: 1448
Flags: W
HStem: 0 21G<155 442 1046 1331> 714 180<442 877.758> 1410 192<442 922.031>
VStem: 155 287<0 714 894 1410> 1046 285<0 595.096 1028.37 1301.29>
LayerCount: 2
Fore
SplineSet
614 894 m 2,0,1
 726 894 726 894 806 911 c 128,-1,2
 886 928 886 928 937 962.5 c 128,-1,3
 988 997 988 997 1012 1048.5 c 128,-1,4
 1036 1100 1036 1100 1036 1169 c 0,5,6
 1036 1253 1036 1253 1001.5 1301 c 128,-1,7
 967 1349 967 1349 906.5 1373.5 c 128,-1,8
 846 1398 846 1398 765 1404 c 128,-1,9
 684 1410 684 1410 591 1410 c 2,10,-1
 442 1410 l 1,11,-1
 442 894 l 1,12,-1
 614 894 l 2,0,1
879 803 m 1,13,14
 988 791 988 791 1072.5 763 c 128,-1,15
 1157 735 1157 735 1214.5 686 c 128,-1,16
 1272 637 1272 637 1301.5 565 c 128,-1,17
 1331 493 1331 493 1331 395 c 2,18,-1
 1331 0 l 1,19,-1
 1046 0 l 1,20,-1
 1046 415 l 2,21,22
 1046 516 1046 516 1013.5 575.5 c 128,-1,23
 981 635 981 635 921.5 665.5 c 128,-1,24
 862 696 862 696 778.5 705 c 128,-1,25
 695 714 695 714 593 714 c 2,26,-1
 442 714 l 1,27,-1
 442 0 l 1,28,-1
 155 0 l 1,29,-1
 155 1602 l 1,30,-1
 604 1602 l 2,31,32
 798 1602 798 1602 935 1578 c 128,-1,33
 1072 1554 1072 1554 1159 1504.5 c 128,-1,34
 1246 1455 1246 1455 1286 1379 c 128,-1,35
 1326 1303 1326 1303 1326 1199 c 256,36,37
 1326 1095 1326 1095 1292.5 1021.5 c 128,-1,38
 1259 948 1259 948 1199.5 900.5 c 128,-1,39
 1140 853 1140 853 1058 829.5 c 128,-1,40
 976 806 976 806 879 803 c 1,13,14
EndSplineSet
EndChar

StartChar: S
Encoding: 83 83 56
Width: 1314
Flags: W
HStem: -35 216<392.394 869.098> 1418 213<440.523 930.962>
VStem: 83 273<1104.38 1341.72> 957 277<262.659 546.157>
DStem2: 515 1036 416 783 0.931443 -0.363887<-166.772 556.35>
LayerCount: 2
Fore
SplineSet
1234 439 m 0,0,1
 1234 338 1234 338 1201 251.5 c 128,-1,2
 1168 165 1168 165 1097 101 c 128,-1,3
 1026 37 1026 37 915 1 c 128,-1,4
 804 -35 804 -35 649 -35 c 0,5,6
 543 -35 543 -35 449.5 -14.5 c 128,-1,7
 356 6 356 6 284 31 c 0,8,9
 200 60 200 60 130 98 c 1,10,-1
 179 306 l 2,11,12
 179 304 179 304 200 294 c 128,-1,13
 221 284 221 284 257.5 270.5 c 128,-1,14
 294 257 294 257 342 241 c 128,-1,15
 390 225 390 225 444.5 212 c 128,-1,16
 499 199 499 199 556.5 190 c 128,-1,17
 614 181 614 181 668 181 c 0,18,19
 734 181 734 181 787.5 193 c 128,-1,20
 841 205 841 205 878.5 231.5 c 128,-1,21
 916 258 916 258 936.5 300 c 128,-1,22
 957 342 957 342 957 403 c 0,23,24
 957 493 957 493 908 552 c 128,-1,25
 859 611 859 611 759 649 c 2,26,-1
 416 783 l 2,27,28
 345 811 345 811 284 849 c 128,-1,29
 223 887 223 887 178.5 937.5 c 128,-1,30
 134 988 134 988 108.5 1052 c 128,-1,31
 83 1116 83 1116 83 1196 c 0,32,33
 83 1311 83 1311 128.5 1393 c 128,-1,34
 174 1475 174 1475 250.5 1528 c 128,-1,35
 327 1581 327 1581 428.5 1606 c 128,-1,36
 530 1631 530 1631 641 1631 c 0,37,38
 738 1631 738 1631 822.5 1615 c 128,-1,39
 907 1599 907 1599 974.5 1577.5 c 128,-1,40
 1042 1556 1042 1556 1089 1534 c 128,-1,41
 1136 1512 1136 1512 1157 1500 c 1,42,-1
 1099 1302 l 1,43,44
 1081 1313 1081 1313 1038.5 1332.5 c 128,-1,45
 996 1352 996 1352 938.5 1371 c 128,-1,46
 881 1390 881 1390 813 1404 c 128,-1,47
 745 1418 745 1418 675 1418 c 0,48,49
 604 1418 604 1418 545.5 1408.5 c 128,-1,50
 487 1399 487 1399 445 1376 c 128,-1,51
 403 1353 403 1353 379.5 1314 c 128,-1,52
 356 1275 356 1275 356 1217 c 0,53,54
 356 1190 356 1190 363.5 1165 c 128,-1,55
 371 1140 371 1140 389 1117.5 c 128,-1,56
 407 1095 407 1095 437.5 1074.5 c 128,-1,57
 468 1054 468 1054 515 1036 c 2,58,-1
 855 909 l 2,59,60
 937 878 937 878 1007 835 c 128,-1,61
 1077 792 1077 792 1127 734.5 c 128,-1,62
 1177 677 1177 677 1205.5 603.5 c 128,-1,63
 1234 530 1234 530 1234 439 c 0,0,1
EndSplineSet
EndChar

StartChar: T
Encoding: 84 84 57
Width: 1219
Flags: W
HStem: 0 21G<466 753> 1410 192<27 466 753 1188>
VStem: 466 287<0 1410>
LayerCount: 2
Fore
SplineSet
753 1410 m 1,0,-1
 753 0 l 1,1,-1
 466 0 l 1,2,-1
 466 1410 l 1,3,-1
 27 1410 l 1,4,-1
 27 1602 l 1,5,-1
 1188 1602 l 1,6,-1
 1188 1410 l 1,7,-1
 753 1410 l 1,0,-1
EndSplineSet
EndChar

StartChar: U
Encoding: 85 85 58
Width: 1580
Flags: W
HStem: -35 213<588.505 994.129> 1582 20G<139 426 1149 1436>
VStem: 139 287<370.872 1602> 1149 287<367.396 1602>
LayerCount: 2
Fore
SplineSet
788 178 m 0,0,1
 905 178 905 178 976 212.5 c 128,-1,2
 1047 247 1047 247 1085.5 316 c 128,-1,3
 1124 385 1124 385 1136.5 487.5 c 128,-1,4
 1149 590 1149 590 1149 726 c 2,5,-1
 1149 1602 l 1,6,-1
 1436 1602 l 1,7,-1
 1436 730 l 2,8,9
 1436 544 1436 544 1400.5 401.5 c 128,-1,10
 1365 259 1365 259 1287.5 162 c 128,-1,11
 1210 65 1210 65 1087.5 15 c 128,-1,12
 965 -35 965 -35 792 -35 c 0,13,14
 613 -35 613 -35 489 15 c 128,-1,15
 365 65 365 65 287 162 c 128,-1,16
 209 259 209 259 174 401.5 c 128,-1,17
 139 544 139 544 139 730 c 2,18,-1
 139 1602 l 1,19,-1
 426 1602 l 1,20,-1
 426 726 l 2,21,22
 426 590 426 590 441 487.5 c 128,-1,23
 456 385 456 385 496 316 c 128,-1,24
 536 247 536 247 606.5 212.5 c 128,-1,25
 677 178 677 178 788 178 c 0,0,1
EndSplineSet
EndChar

StartChar: V
Encoding: 86 86 59
Width: 1404
Flags: W
HStem: 0 21G<540.745 863.242> 1582 20G<46 321.209 1080.89 1357>
VStem: 46 269<1333 1602> 1087 270<1332 1602>
DStem2: 315 1602 46 1602 0.298479 -0.954416<0 1311.99> 704 349 857 0 0.297936 0.954586<0 1310.21>
LayerCount: 2
Fore
SplineSet
704 349 m 1,0,-1
 1087 1602 l 1,1,-1
 1357 1602 l 1,2,-1
 857 0 l 1,3,-1
 547 0 l 1,4,-1
 46 1602 l 1,5,-1
 315 1602 l 1,6,-1
 704 349 l 1,0,-1
EndSplineSet
EndChar

StartChar: W
Encoding: 87 87 60
Width: 2017
Flags: W
HStem: -3 21G<385.668 743.947 1252.36 1627.34> 1582 20G<43 324.034 833.104 1179.9 1689.95 1971>
VStem: 43 277<1325 1602> 1694 277<1325 1602>
DStem2: 320 1602 43 1602 0.211695 -0.977336<0 1330.12> 583 298 740 0 0.193615 0.981078<0 1122.23> 1430 298 1623 -3 0.211899 0.977292<0 1330.33>
LayerCount: 2
Fore
SplineSet
1176 1602 m 1,0,-1
 1430 298 l 1,1,-1
 1694 1602 l 1,2,-1
 1971 1602 l 1,3,-1
 1623 -3 l 1,4,-1
 1256 -3 l 1,5,-1
 1008 1358 l 1,6,-1
 740 0 l 1,7,-1
 390 0 l 1,8,-1
 43 1602 l 1,9,-1
 320 1602 l 1,10,-1
 583 298 l 1,11,-1
 837 1602 l 1,12,-1
 1176 1602 l 1,0,-1
EndSplineSet
EndChar

StartChar: X
Encoding: 88 88 61
Width: 1365
Flags: W
HStem: 0 21G<25 347.275 1017.76 1340> 1582 20G<26 333.25 1031.78 1339>
VStem: 25 310<0 310 1292 1602> 1030 310<0 310 1292 1602>
DStem2: 25 0 335 0 0.531045 0.847344<164.624 829.871 1206.09 1898.58> 321 1602 26 1602 0.536705 -0.84377<0 692.955 1067.59 1732.24>
LayerCount: 2
Fore
SplineSet
1044 1602 m 1,0,-1
 1339 1602 l 1,1,-1
 843 800 l 1,2,-1
 1340 0 l 1,3,-1
 1030 0 l 1,4,-1
 683 567 l 1,5,-1
 335 0 l 1,6,-1
 25 0 l 1,7,-1
 522 800 l 1,8,-1
 26 1602 l 1,9,-1
 321 1602 l 1,10,-1
 683 1011 l 1,11,-1
 1044 1602 l 1,0,-1
EndSplineSet
EndChar

StartChar: Y
Encoding: 89 89 62
Width: 1295
Flags: W
HStem: 0 21G<508 783> 1582 20G<-8 289.223 1004.83 1302>
VStem: 508 275<0 509>
DStem2: 280 1602 -8 1602 0.426912 -0.904293<0 878.73> 648 804 783 509 0.428939 0.903334<0 877.852>
LayerCount: 2
Fore
SplineSet
1014 1602 m 1,0,-1
 1302 1602 l 1,1,-1
 783 509 l 1,2,-1
 783 0 l 1,3,-1
 508 0 l 1,4,-1
 508 509 l 1,5,-1
 -8 1602 l 1,6,-1
 280 1602 l 1,7,-1
 648 804 l 1,8,-1
 1014 1602 l 1,0,-1
EndSplineSet
EndChar

StartChar: Z
Encoding: 90 90 63
Width: 1249
Flags: W
HStem: 0 192<394 1171> 1410 192<83 859>
DStem2: 83 208 394 192 0.537773 0.84309<153.758 1430.71>
LayerCount: 2
Fore
SplineSet
1169 1407 m 1,0,-1
 394 192 l 1,1,-1
 1171 192 l 1,2,-1
 1171 0 l 1,3,-1
 83 0 l 1,4,-1
 83 208 l 1,5,-1
 859 1410 l 1,6,-1
 83 1410 l 1,7,-1
 83 1602 l 1,8,-1
 1169 1602 l 1,9,-1
 1169 1407 l 1,0,-1
EndSplineSet
EndChar

StartChar: bracketleft
Encoding: 91 91 64
Width: 1123
Flags: W
HStem: 0 192<520 970> 1410 192<520 970>
VStem: 252 268<192 1410>
LayerCount: 2
Fore
SplineSet
970 1602 m 1,0,-1
 970 1410 l 1,1,-1
 520 1410 l 1,2,-1
 520 192 l 1,3,-1
 970 192 l 1,4,-1
 970 0 l 1,5,-1
 252 0 l 1,6,-1
 252 1602 l 1,7,-1
 970 1602 l 1,0,-1
EndSplineSet
EndChar

StartChar: backslash
Encoding: 92 92 65
Width: 1123
Flags: W
DStem2: 388 1733 144 1652 0.316385 -0.948631<0 1908.75>
LayerCount: 2
Fore
SplineSet
994 -77 m 1,0,-1
 749 -162 l 1,1,-1
 144 1652 l 1,2,-1
 388 1733 l 1,3,-1
 994 -77 l 1,0,-1
EndSplineSet
EndChar

StartChar: bracketright
Encoding: 93 93 66
Width: 1153
Flags: W
HStem: 0 192<198 648> 1410 192<198 648>
VStem: 648 268<192 1410>
LayerCount: 2
Fore
SplineSet
916 1602 m 1,0,-1
 916 0 l 1,1,-1
 198 0 l 1,2,-1
 198 192 l 1,3,-1
 648 192 l 1,4,-1
 648 1410 l 1,5,-1
 198 1410 l 1,6,-1
 198 1602 l 1,7,-1
 916 1602 l 1,0,-1
EndSplineSet
EndChar

StartChar: asciicircum
Encoding: 94 94 67
Width: 1347
Flags: W
HStem: 506 608
LayerCount: 2
Fore
SplineSet
762 1114 m 1,0,-1
 1041 545 l 1,1,-1
 836 506 l 1,2,-1
 672 892 l 1,3,-1
 509 506 l 1,4,-1
 305 545 l 1,5,-1
 584 1114 l 1,6,-1
 762 1114 l 1,0,-1
EndSplineSet
EndChar

StartChar: underscore
Encoding: 95 95 68
Width: 1214
Flags: W
HStem: -106 207<98 1081>
LayerCount: 2
Fore
SplineSet
98 -106 m 1,0,-1
 98 101 l 1,1,-1
 1081 101 l 1,2,-1
 1081 -106 l 1,3,-1
 98 -106 l 1,0,-1
EndSplineSet
EndChar

StartChar: grave
Encoding: 96 96 69
Width: 833
Flags: W
HStem: 106 676
VStem: 65 463
LayerCount: 2
Fore
SplineSet
65 663 m 1,0,-1
 346 782 l 1,1,-1
 528 158 l 1,2,-1
 413 106 l 1,3,-1
 65 663 l 1,0,-1
EndSplineSet
EndChar

StartChar: a
Encoding: 97 97 70
Width: 1236
Flags: W
HStem: -23 190<422.532 700.232> 0 21G<888.301 1102> 576 156<435.455 827.684> 1022 189<367.881 768.543>
VStem: 88 276<224.662 509.508> 828 274<253.133 562 702 961.621>
LayerCount: 2
Fore
SplineSet
615 1022 m 0,0,1
 516 1022 516 1022 419 994 c 128,-1,2
 322 966 322 966 239 915 c 1,3,-1
 162 1089 l 1,4,5
 214 1119 214 1119 265.5 1142 c 128,-1,6
 317 1165 317 1165 372.5 1180 c 128,-1,7
 428 1195 428 1195 489 1203 c 128,-1,8
 550 1211 550 1211 621 1211 c 0,9,10
 765 1211 765 1211 858 1177.5 c 128,-1,11
 951 1144 951 1144 1005.5 1075.5 c 128,-1,12
 1060 1007 1060 1007 1081 903 c 128,-1,13
 1102 799 1102 799 1102 659 c 2,14,-1
 1102 0 l 1,15,-1
 893 0 l 1,16,-1
 854 166 l 1,17,18
 788 66 788 66 700 21.5 c 128,-1,19
 612 -23 612 -23 493 -23 c 0,20,21
 399 -23 399 -23 324 1 c 128,-1,22
 249 25 249 25 196.5 73 c 128,-1,23
 144 121 144 121 116 192 c 128,-1,24
 88 263 88 263 88 357 c 0,25,26
 88 452 88 452 124 522.5 c 128,-1,27
 160 593 160 593 224 639.5 c 128,-1,28
 288 686 288 686 376.5 709 c 128,-1,29
 465 732 465 732 571 732 c 0,30,31
 622 732 622 732 664.5 728 c 128,-1,32
 707 724 707 724 740 718.5 c 128,-1,33
 773 713 773 713 795.5 708 c 128,-1,34
 818 703 818 703 828 702 c 1,35,36
 828 776 828 776 824 835.5 c 128,-1,37
 820 895 820 895 800 936.5 c 128,-1,38
 780 978 780 978 737 1000 c 128,-1,39
 694 1022 694 1022 615 1022 c 0,0,1
564 167 m 0,40,41
 638 167 638 167 702.5 199 c 128,-1,42
 767 231 767 231 828 295 c 1,43,-1
 828 562 l 1,44,45
 820 562 820 562 801 564.5 c 128,-1,46
 782 567 782 567 757.5 569.5 c 128,-1,47
 733 572 733 572 707.5 574 c 128,-1,48
 682 576 682 576 663 576 c 0,49,50
 591 576 591 576 535.5 567 c 128,-1,51
 480 558 480 558 441.5 535.5 c 128,-1,52
 403 513 403 513 383.5 474.5 c 128,-1,53
 364 436 364 436 364 377 c 0,54,55
 364 264 364 264 417.5 215.5 c 128,-1,56
 471 167 471 167 564 167 c 0,40,41
EndSplineSet
EndChar

StartChar: b
Encoding: 98 98 71
Width: 1313
Flags: W
HStem: -23 190<553.246 840.785> 0 21G<152 354.092> 1022 189<569.618 857.599> 1675 20G<296.048 427>
VStem: 152 275<250.274 928.652 1061 1653> 957 266<313.231 900.652>
LayerCount: 2
Fore
SplineSet
709 167 m 0,0,1
 830 167 830 167 893.5 274 c 128,-1,2
 957 381 957 381 957 608 c 0,3,4
 957 722 957 722 942 801 c 128,-1,5
 927 880 927 880 897.5 929 c 128,-1,6
 868 978 868 978 825 1000 c 128,-1,7
 782 1022 782 1022 725 1022 c 0,8,9
 650 1022 650 1022 576.5 990.5 c 128,-1,10
 503 959 503 959 427 892 c 1,11,-1
 427 289 l 1,12,13
 493 224 493 224 562 195.5 c 128,-1,14
 631 167 631 167 709 167 c 0,0,1
745 -23 m 0,15,16
 630 -23 630 -23 542 28 c 128,-1,17
 454 79 454 79 401 174 c 1,18,-1
 348 0 l 1,19,-1
 152 0 l 1,20,-1
 152 1653 l 1,21,-1
 427 1695 l 1,22,-1
 427 1061 l 1,23,24
 462 1098 462 1098 502.5 1126.5 c 128,-1,25
 543 1155 543 1155 585.5 1173.5 c 128,-1,26
 628 1192 628 1192 671 1201.5 c 128,-1,27
 714 1211 714 1211 755 1211 c 0,28,29
 871 1211 871 1211 958.5 1171 c 128,-1,30
 1046 1131 1046 1131 1105 1053.5 c 128,-1,31
 1164 976 1164 976 1193.5 862.5 c 128,-1,32
 1223 749 1223 749 1223 603 c 0,33,34
 1223 438 1223 438 1188.5 319.5 c 128,-1,35
 1154 201 1154 201 1091 125 c 128,-1,36
 1028 49 1028 49 940 13 c 128,-1,37
 852 -23 852 -23 745 -23 c 0,15,16
EndSplineSet
EndChar

StartChar: c
Encoding: 99 99 72
Width: 1098
Flags: W
HStem: -23 190<512.369 873.835> 1022 189<514.951 872.992>
VStem: 88 276<334.727 850.016>
LayerCount: 2
Fore
SplineSet
646 -23 m 0,0,1
 498 -23 498 -23 392 27 c 128,-1,2
 286 77 286 77 218.5 161 c 128,-1,3
 151 245 151 245 119.5 354.5 c 128,-1,4
 88 464 88 464 88 584 c 0,5,6
 88 714 88 714 125.5 828.5 c 128,-1,7
 163 943 163 943 234.5 1028 c 128,-1,8
 306 1113 306 1113 410.5 1162 c 128,-1,9
 515 1211 515 1211 649 1211 c 0,10,11
 715 1211 715 1211 771.5 1202 c 128,-1,12
 828 1193 828 1193 876 1177.5 c 128,-1,13
 924 1162 924 1162 963 1141.5 c 128,-1,14
 1002 1121 1002 1121 1034 1098 c 1,15,-1
 972 916 l 1,16,17
 949 936 949 936 916.5 955 c 128,-1,18
 884 974 884 974 846 989 c 128,-1,19
 808 1004 808 1004 765 1013 c 128,-1,20
 722 1022 722 1022 678 1022 c 1,21,22
 589 1017 589 1017 529 986.5 c 128,-1,23
 469 956 469 956 432 901 c 128,-1,24
 395 846 395 846 379.5 767 c 128,-1,25
 364 688 364 688 364 588 c 0,26,27
 364 377 364 377 445 272 c 128,-1,28
 526 167 526 167 677 167 c 0,29,30
 775 167 775 167 844 197.5 c 128,-1,31
 913 228 913 228 972 277 c 1,32,-1
 1034 94 l 1,33,34
 1004 73 1004 73 966 52 c 128,-1,35
 928 31 928 31 880 14.5 c 128,-1,36
 832 -2 832 -2 774 -12.5 c 128,-1,37
 716 -23 716 -23 646 -23 c 0,0,1
EndSplineSet
EndChar

StartChar: d
Encoding: 100 100 73
Width: 1312
Flags: W
HStem: -23 190<474.701 749.028> 0 21G<962.943 1166> 1022 189<462.779 749.147> 1676 20G<1038.09 1166>
VStem: 88 271<310.468 890.073> 891 275<245.817 924.96 1052 1653>
LayerCount: 2
Fore
SplineSet
359 594 m 0,0,1
 359 479 359 479 376.5 398 c 128,-1,2
 394 317 394 317 427 265.5 c 128,-1,3
 460 214 460 214 507 190.5 c 128,-1,4
 554 167 554 167 612 167 c 0,5,6
 692 167 692 167 765 197 c 128,-1,7
 838 227 838 227 891 290 c 1,8,-1
 891 892 l 1,9,10
 817 951 817 951 745 986.5 c 128,-1,11
 673 1022 673 1022 593 1022 c 0,12,13
 525 1022 525 1022 480 991.5 c 128,-1,14
 435 961 435 961 408 905 c 128,-1,15
 381 849 381 849 370 770 c 128,-1,16
 359 691 359 691 359 594 c 0,0,1
542 1211 m 0,17,18
 651 1211 651 1211 738 1172 c 128,-1,19
 825 1133 825 1133 891 1052 c 1,20,-1
 891 1653 l 1,21,-1
 1166 1696 l 1,22,-1
 1166 0 l 1,23,-1
 969 0 l 1,24,-1
 916 175 l 1,25,26
 892 132 892 132 854.5 95.5 c 128,-1,27
 817 59 817 59 771 33 c 128,-1,28
 725 7 725 7 673 -8 c 128,-1,29
 621 -23 621 -23 567 -23 c 0,30,31
 436 -23 436 -23 345 28.5 c 128,-1,32
 254 80 254 80 197 168.5 c 128,-1,33
 140 257 140 257 114 374.5 c 128,-1,34
 88 492 88 492 88 625 c 0,35,36
 88 744 88 744 119.5 850.5 c 128,-1,37
 151 957 151 957 209.5 1037 c 128,-1,38
 268 1117 268 1117 352.5 1164 c 128,-1,39
 437 1211 437 1211 542 1211 c 0,17,18
EndSplineSet
EndChar

StartChar: e
Encoding: 101 101 74
Width: 1193
Flags: W
HStem: -23 190<506.351 889.76> 542 147<368 879> 1022 189<497.64 778.475>
VStem: 88 280<321.086 542 689 855.375> 879 231<689 913.016>
LayerCount: 2
Fore
SplineSet
1053 86 m 1,0,1
 1009 59 1009 59 959 39 c 128,-1,2
 909 19 909 19 857.5 5 c 128,-1,3
 806 -9 806 -9 756 -16 c 128,-1,4
 706 -23 706 -23 662 -23 c 0,5,6
 525 -23 525 -23 418.5 18.5 c 128,-1,7
 312 60 312 60 238.5 137.5 c 128,-1,8
 165 215 165 215 126.5 324.5 c 128,-1,9
 88 434 88 434 88 570 c 0,10,11
 88 709 88 709 123 826.5 c 128,-1,12
 158 944 158 944 226.5 1029.5 c 128,-1,13
 295 1115 295 1115 396.5 1163 c 128,-1,14
 498 1211 498 1211 630 1211 c 0,15,16
 747 1211 747 1211 836.5 1173.5 c 128,-1,17
 926 1136 926 1136 987 1067 c 128,-1,18
 1048 998 1048 998 1079 901 c 128,-1,19
 1110 804 1110 804 1110 685 c 0,20,21
 1110 648 1110 648 1109 612 c 128,-1,22
 1108 576 1108 576 1106 542 c 1,23,-1
 368 542 l 1,24,25
 369 445 369 445 391 374 c 128,-1,26
 413 303 413 303 453.5 257 c 128,-1,27
 494 211 494 211 552.5 189 c 128,-1,28
 611 167 611 167 684 167 c 0,29,30
 777 167 777 167 848 193.5 c 128,-1,31
 919 220 919 220 988 273 c 1,32,-1
 1053 86 l 1,0,1
879 706 m 2,33,34
 879 862 879 862 816 941 c 128,-1,35
 753 1020 753 1020 641 1022 c 1,36,37
 573 1020 573 1020 523.5 993.5 c 128,-1,38
 474 967 474 967 440.5 922 c 128,-1,39
 407 877 407 877 389 817 c 128,-1,40
 371 757 371 757 368 689 c 1,41,-1
 879 689 l 1,42,-1
 879 706 l 2,33,34
EndSplineSet
EndChar

StartChar: f
Encoding: 102 102 75
Width: 851
Flags: W
HStem: 0 21G<221 497> 1055 127<26 221 497 815> 1497 205<541.83 811.357>
VStem: 221 276<0 1055 1182 1452.41>
LayerCount: 2
Fore
SplineSet
642 1497 m 0,0,1
 595 1497 595 1497 566.5 1477.5 c 128,-1,2
 538 1458 538 1458 522.5 1419 c 128,-1,3
 507 1380 507 1380 502 1320.5 c 128,-1,4
 497 1261 497 1261 497 1182 c 1,5,-1
 815 1182 l 1,6,-1
 815 1055 l 1,7,-1
 497 1055 l 1,8,-1
 497 0 l 1,9,-1
 221 0 l 1,10,-1
 221 1055 l 1,11,-1
 26 1055 l 1,12,-1
 26 1182 l 1,13,-1
 221 1182 l 1,14,15
 221 1316 221 1316 243 1414 c 128,-1,16
 265 1512 265 1512 310 1576 c 128,-1,17
 355 1640 355 1640 424.5 1671 c 128,-1,18
 494 1702 494 1702 589 1702 c 0,19,20
 666 1702 666 1702 728 1686 c 128,-1,21
 790 1670 790 1670 840 1647 c 1,22,-1
 808 1453 l 1,23,24
 770 1468 770 1468 727 1482.5 c 128,-1,25
 684 1497 684 1497 642 1497 c 0,0,1
EndSplineSet
EndChar

StartChar: g
Encoding: 103 103 76
Width: 1276
Flags: W
HStem: -502 207<375.801 897.612> 78 192<408.322 886.755> 1024 187<454.436 797.598 1006.41 1252>
VStem: 104 223<-246.039 -11.6997> 141 219<297.684 408.036> 157 241<682.452 967.865> 848 232<691.243 971.809> 974 238<-227.394 1.72961>
LayerCount: 2
Fore
SplineSet
580 -295 m 0,0,1
 690 -295 690 -295 765 -286.5 c 128,-1,2
 840 -278 840 -278 886.5 -256.5 c 128,-1,3
 933 -235 933 -235 953.5 -198 c 128,-1,4
 974 -161 974 -161 974 -103 c 0,5,6
 974 -38 974 -38 943.5 -4 c 128,-1,7
 913 30 913 30 851 46 c 128,-1,8
 789 62 789 62 693 67 c 128,-1,9
 597 72 597 72 467 78 c 1,10,11
 441 64 441 64 416 41 c 128,-1,12
 391 18 391 18 371.5 -10.5 c 128,-1,13
 352 -39 352 -39 339.5 -72.5 c 128,-1,14
 327 -106 327 -106 327 -142 c 0,15,16
 327 -190 327 -190 346.5 -220 c 128,-1,17
 366 -250 366 -250 400 -266.5 c 128,-1,18
 434 -283 434 -283 480.5 -289 c 128,-1,19
 527 -295 527 -295 580 -295 c 0,0,1
657 611 m 1,20,21
 697 618 697 618 731.5 634 c 128,-1,22
 766 650 766 650 792 677.5 c 128,-1,23
 818 705 818 705 833 746 c 128,-1,24
 848 787 848 787 848 844 c 0,25,26
 848 942 848 942 793.5 983 c 128,-1,27
 739 1024 739 1024 627 1024 c 0,28,29
 576 1024 576 1024 533.5 1015 c 128,-1,30
 491 1006 491 1006 461 984.5 c 128,-1,31
 431 963 431 963 414.5 925.5 c 128,-1,32
 398 888 398 888 398 831 c 0,33,34
 398 792 398 792 408.5 756 c 128,-1,35
 419 720 419 720 438 689.5 c 128,-1,36
 457 659 457 659 482.5 635.5 c 128,-1,37
 508 612 508 612 537 597 c 1,38,-1
 657 611 l 1,20,21
1006 1011 m 1,39,40
 1042 966 1042 966 1061 928.5 c 128,-1,41
 1080 891 1080 891 1080 851 c 0,42,43
 1080 779 1080 779 1060.5 713.5 c 128,-1,44
 1041 648 1041 648 996 595 c 128,-1,45
 951 542 951 542 876.5 505 c 128,-1,46
 802 468 802 468 691 453 c 2,47,-1
 360 406 l 1,48,-1
 378 270 l 1,49,-1
 661 260 l 2,50,51
 803 254 803 254 906.5 231.5 c 128,-1,52
 1010 209 1010 209 1078 165 c 128,-1,53
 1146 121 1146 121 1179 53.5 c 128,-1,54
 1212 -14 1212 -14 1212 -110 c 0,55,56
 1212 -218 1212 -218 1169 -292.5 c 128,-1,57
 1126 -367 1126 -367 1045 -413.5 c 128,-1,58
 964 -460 964 -460 846.5 -481 c 128,-1,59
 729 -502 729 -502 579 -502 c 0,60,61
 343 -502 343 -502 223.5 -420 c 128,-1,62
 104 -338 104 -338 104 -153 c 0,63,64
 104 -106 104 -106 120 -65.5 c 128,-1,65
 136 -25 136 -25 164 8.5 c 128,-1,66
 192 42 192 42 229 68 c 128,-1,67
 266 94 266 94 307 112 c 1,68,69
 266 118 266 118 235 135 c 128,-1,70
 204 152 204 152 183 183 c 128,-1,71
 162 214 162 214 151.5 260 c 128,-1,72
 141 306 141 306 141 371 c 0,73,74
 141 418 141 418 160.5 448.5 c 128,-1,75
 180 479 180 479 212 499 c 128,-1,76
 244 519 244 519 286.5 531 c 128,-1,77
 329 543 329 543 374 554 c 1,78,79
 330 560 330 560 290.5 582.5 c 128,-1,80
 251 605 251 605 221.5 641 c 128,-1,81
 192 677 192 677 174.5 726 c 128,-1,82
 157 775 157 775 157 834 c 0,83,84
 157 922 157 922 188.5 991.5 c 128,-1,85
 220 1061 220 1061 279 1110 c 128,-1,86
 338 1159 338 1159 422 1185 c 128,-1,87
 506 1211 506 1211 612 1211 c 0,88,89
 708 1211 708 1211 781 1194.5 c 128,-1,90
 854 1178 854 1178 905 1142 c 1,91,92
 943 1160 943 1160 975.5 1171.5 c 128,-1,93
 1008 1183 1008 1183 1042.5 1189.5 c 128,-1,94
 1077 1196 1077 1196 1117 1198.5 c 128,-1,95
 1157 1201 1157 1201 1211 1201 c 2,96,-1
 1252 1201 l 1,97,-1
 1252 1011 l 1,98,-1
 1006 1011 l 1,39,40
EndSplineSet
EndChar

StartChar: h
Encoding: 104 104 77
Width: 1337
Flags: W
HStem: 0 21G<152 427 925 1200> 1022 189<581.315 848.819> 1678 20G<317 427>
VStem: 152 275<0 938.628 1039 1648> 925 275<0 935.327>
LayerCount: 2
Fore
SplineSet
427 1039 m 1,0,1
 468 1086 468 1086 509 1119 c 128,-1,2
 550 1152 550 1152 593.5 1172.5 c 128,-1,3
 637 1193 637 1193 684 1202 c 128,-1,4
 731 1211 731 1211 784 1211 c 0,5,6
 905 1211 905 1211 985 1172 c 128,-1,7
 1065 1133 1065 1133 1113 1063 c 128,-1,8
 1161 993 1161 993 1180.5 896 c 128,-1,9
 1200 799 1200 799 1200 684 c 2,10,-1
 1200 0 l 1,11,-1
 925 0 l 1,12,-1
 925 696 l 2,13,14
 925 859 925 859 878.5 940.5 c 128,-1,15
 832 1022 832 1022 725 1022 c 0,16,17
 667 1022 667 1022 620.5 1010 c 128,-1,18
 574 998 574 998 537.5 980 c 128,-1,19
 501 962 501 962 473.5 940 c 128,-1,20
 446 918 446 918 427 899 c 1,21,-1
 427 0 l 1,22,-1
 152 0 l 1,23,-1
 152 1648 l 1,24,-1
 427 1698 l 1,25,-1
 427 1039 l 1,0,1
EndSplineSet
EndChar

StartChar: i
Encoding: 105 105 78
Width: 603
Flags: W
HStem: 0 21G<167 438> 1162 20G<167 438> 1401 315<195.319 412.015>
VStem: 149 310<1447.99 1669.34> 167 271<0 1182 1430.42 1685.11>
LayerCount: 2
Fore
SplineSet
167 0 m 1,0,-1
 167 1182 l 1,1,-1
 438 1182 l 1,2,-1
 438 0 l 1,3,-1
 167 0 l 1,0,-1
149 1558 m 0,4,5
 149 1591 149 1591 161 1620 c 128,-1,6
 173 1649 173 1649 194 1670 c 128,-1,7
 215 1691 215 1691 243 1703.5 c 128,-1,8
 271 1716 271 1716 303 1716 c 0,9,10
 336 1716 336 1716 364.5 1703.5 c 128,-1,11
 393 1691 393 1691 414 1669.5 c 128,-1,12
 435 1648 435 1648 447 1619 c 128,-1,13
 459 1590 459 1590 459 1558 c 0,14,15
 459 1525 459 1525 446.5 1496 c 128,-1,16
 434 1467 434 1467 412.5 1446 c 128,-1,17
 391 1425 391 1425 362.5 1413 c 128,-1,18
 334 1401 334 1401 303 1401 c 0,19,20
 269 1401 269 1401 241 1413.5 c 128,-1,21
 213 1426 213 1426 192.5 1447.5 c 128,-1,22
 172 1469 172 1469 160.5 1497.5 c 128,-1,23
 149 1526 149 1526 149 1558 c 0,4,5
EndSplineSet
EndChar

StartChar: j
Encoding: 106 106 79
Width: 638
Flags: W
HStem: -366 21G<76.0615 128> 1162 20G<206 482> 1399 315<235.531 450.562>
VStem: 191 305<1444.5 1668.83> 206 276<-19.8389 1182>
LayerCount: 2
Fore
SplineSet
191 1557 m 0,0,1
 191 1591 191 1591 203 1619.5 c 128,-1,2
 215 1648 215 1648 235.5 1669 c 128,-1,3
 256 1690 256 1690 283.5 1702 c 128,-1,4
 311 1714 311 1714 343 1714 c 0,5,6
 376 1714 376 1714 404 1701.5 c 128,-1,7
 432 1689 432 1689 452.5 1667.5 c 128,-1,8
 473 1646 473 1646 484.5 1617.5 c 128,-1,9
 496 1589 496 1589 496 1557 c 0,10,11
 496 1523 496 1523 484 1494 c 128,-1,12
 472 1465 472 1465 451 1444 c 128,-1,13
 430 1423 430 1423 402 1411 c 128,-1,14
 374 1399 374 1399 343 1399 c 0,15,16
 309 1399 309 1399 281 1412 c 128,-1,17
 253 1425 253 1425 233 1446.5 c 128,-1,18
 213 1468 213 1468 202 1496.5 c 128,-1,19
 191 1525 191 1525 191 1557 c 0,0,1
5 -187 m 1,20,21
 68 -148 68 -148 107.5 -104 c 128,-1,22
 147 -60 147 -60 168.5 -3.5 c 128,-1,23
 190 53 190 53 198 123.5 c 128,-1,24
 206 194 206 194 206 285 c 2,25,-1
 206 1182 l 1,26,-1
 482 1182 l 1,27,-1
 482 181 l 2,28,29
 482 74 482 74 452 -17 c 128,-1,30
 422 -108 422 -108 369 -179 c 128,-1,31
 316 -250 316 -250 243.5 -298 c 128,-1,32
 171 -346 171 -346 85 -366 c 1,33,-1
 5 -187 l 1,20,21
EndSplineSet
EndChar

StartChar: k
Encoding: 107 107 80
Width: 1306
Flags: W
HStem: 0 21G<152 427 934.353 1264> 1162 20G<912.347 1242> 1676 20G<299.093 427>
VStem: 152 275<0 440 692 1653> 933 309<873 1182> 950 314<0 314>
DStem2: 427 692 702 658 0.717659 0.696395<173.679 704.369>
LayerCount: 2
Fore
SplineSet
427 0 m 1,0,-1
 152 0 l 1,1,-1
 152 1653 l 1,2,-1
 427 1696 l 1,3,-1
 427 692 l 1,4,-1
 933 1182 l 1,5,-1
 1242 1182 l 1,6,-1
 702 658 l 1,7,-1
 1264 0 l 1,8,-1
 950 0 l 1,9,-1
 533 533 l 1,10,-1
 427 440 l 1,11,-1
 427 0 l 1,0,-1
EndSplineSet
EndChar

StartChar: l
Encoding: 108 108 81
Width: 602
Flags: W
HStem: 0 21G<162 438> 1676 20G<309.628 438>
VStem: 162 276<0 1653>
LayerCount: 2
Fore
SplineSet
438 0 m 1,0,-1
 162 0 l 1,1,-1
 162 1653 l 1,2,-1
 438 1696 l 1,3,-1
 438 0 l 1,0,-1
EndSplineSet
EndChar

StartChar: m
Encoding: 109 109 82
Width: 1978
Flags: W
HStem: 0 21G<152 427 855 1130 1565 1841> 1017 194<569.435 810.894 1264.52 1518.51> 1162 20G<152 355.436>
VStem: 152 275<0 904.132> 855 275<0 913.641> 1565 276<0 969.438>
LayerCount: 2
Fore
SplineSet
427 0 m 1,0,-1
 152 0 l 1,1,-1
 152 1182 l 1,2,-1
 350 1182 l 1,3,-1
 403 987 l 1,4,5
 458 1099 458 1099 549 1155 c 128,-1,6
 640 1211 640 1211 763 1211 c 256,7,8
 886 1211 886 1211 965.5 1158.5 c 128,-1,9
 1045 1106 1045 1106 1084 1010 c 1,10,11
 1150 1106 1150 1106 1248.5 1158.5 c 128,-1,12
 1347 1211 1347 1211 1477 1211 c 0,13,14
 1567 1211 1567 1211 1635.5 1179.5 c 128,-1,15
 1704 1148 1704 1148 1749.5 1090.5 c 128,-1,16
 1795 1033 1795 1033 1818 952 c 128,-1,17
 1841 871 1841 871 1841 772 c 2,18,-1
 1841 0 l 1,19,-1
 1565 0 l 1,20,-1
 1565 786 l 2,21,22
 1565 853 1565 853 1553.5 898 c 128,-1,23
 1542 943 1542 943 1521 970 c 128,-1,24
 1500 997 1500 997 1470 1008.5 c 128,-1,25
 1440 1020 1440 1020 1402 1020 c 0,26,27
 1332 1020 1332 1020 1267 982.5 c 128,-1,28
 1202 945 1202 945 1130 873 c 1,29,-1
 1130 0 l 1,30,-1
 855 0 l 1,31,-1
 855 792 l 2,32,33
 855 909 855 909 818 963 c 128,-1,34
 781 1017 781 1017 693 1017 c 0,35,36
 624 1017 624 1017 557 973.5 c 128,-1,37
 490 930 490 930 427 858 c 1,38,-1
 427 0 l 1,0,-1
EndSplineSet
EndChar

StartChar: n
Encoding: 110 110 83
Width: 1321
Flags: W
HStem: 0 21G<152 427 909 1184> 1022 189<589.204 843.343> 1162 20G<152 364.38>
VStem: 152 275<0 923.891> 909 275<0 952.373>
LayerCount: 2
Fore
SplineSet
405 1011 m 1,0,1
 432 1053 432 1053 472.5 1089.5 c 128,-1,2
 513 1126 513 1126 562.5 1153 c 128,-1,3
 612 1180 612 1180 668 1195.5 c 128,-1,4
 724 1211 724 1211 781 1211 c 0,5,6
 889 1211 889 1211 965 1180 c 128,-1,7
 1041 1149 1041 1149 1090 1089 c 128,-1,8
 1139 1029 1139 1029 1161.5 940 c 128,-1,9
 1184 851 1184 851 1184 735 c 2,10,-1
 1184 0 l 1,11,-1
 909 0 l 1,12,-1
 909 748 l 2,13,14
 909 887 909 887 863.5 954.5 c 128,-1,15
 818 1022 818 1022 714 1022 c 0,16,17
 672 1022 672 1022 628 1008 c 128,-1,18
 584 994 584 994 545 973 c 128,-1,19
 506 952 506 952 475 927 c 128,-1,20
 444 902 444 902 427 881 c 1,21,-1
 427 0 l 1,22,-1
 152 0 l 1,23,-1
 152 1182 l 1,24,-1
 359 1182 l 1,25,-1
 405 1011 l 1,0,1
EndSplineSet
EndChar

StartChar: o
Encoding: 111 111 84
Width: 1293
Flags: W
HStem: -32 188<492.292 798.567> 1014 190<492.499 796.768>
VStem: 85 272<317.025 852.404> 932 269<314.981 852.424>
LayerCount: 2
Fore
SplineSet
644 156 m 0,0,1
 726 156 726 156 781.5 189.5 c 128,-1,2
 837 223 837 223 870.5 281.5 c 128,-1,3
 904 340 904 340 918 417.5 c 128,-1,4
 932 495 932 495 932 584 c 0,5,6
 932 672 932 672 918 750 c 128,-1,7
 904 828 904 828 870.5 886.5 c 128,-1,8
 837 945 837 945 781.5 979.5 c 128,-1,9
 726 1014 726 1014 644 1014 c 256,10,11
 562 1014 562 1014 507 979.5 c 128,-1,12
 452 945 452 945 418.5 886.5 c 128,-1,13
 385 828 385 828 371 749.5 c 128,-1,14
 357 671 357 671 357 584 c 0,15,16
 357 537 357 537 361.5 487.5 c 128,-1,17
 366 438 366 438 377.5 390.5 c 128,-1,18
 389 343 389 343 409 300.5 c 128,-1,19
 429 258 429 258 461 226 c 128,-1,20
 493 194 493 194 538 175 c 128,-1,21
 583 156 583 156 644 156 c 0,0,1
1201 584 m 0,22,23
 1201 457 1201 457 1170 345 c 128,-1,24
 1139 233 1139 233 1072.5 149 c 128,-1,25
 1006 65 1006 65 900 16.5 c 128,-1,26
 794 -32 794 -32 644 -32 c 256,27,28
 494 -32 494 -32 388 16.5 c 128,-1,29
 282 65 282 65 214.5 149 c 128,-1,30
 147 233 147 233 116 345 c 128,-1,31
 85 457 85 457 85 584 c 0,32,33
 85 712 85 712 116.5 825 c 128,-1,34
 148 938 148 938 215.5 1022 c 128,-1,35
 283 1106 283 1106 388.5 1155 c 128,-1,36
 494 1204 494 1204 643 1204 c 256,37,38
 792 1204 792 1204 897.5 1155 c 128,-1,39
 1003 1106 1003 1106 1070.5 1022 c 128,-1,40
 1138 938 1138 938 1169.5 825 c 128,-1,41
 1201 712 1201 712 1201 584 c 0,22,23
EndSplineSet
EndChar

StartChar: p
Encoding: 112 112 85
Width: 1320
Flags: W
HStem: -453 21G<152 427> -23 190<569.588 847.422> 1022 189<569.173 851.183> 1162 20G<152 365.65>
VStem: 152 275<-453 144 269.584 926.181> 960 272<306.143 880.382>
LayerCount: 2
Fore
SplineSet
729 1022 m 0,0,1
 648 1022 648 1022 567.5 985.5 c 128,-1,2
 487 949 487 949 427 886 c 1,3,-1
 427 309 l 1,4,5
 460 277 460 277 496.5 251 c 128,-1,6
 533 225 533 225 571.5 206 c 128,-1,7
 610 187 610 187 648 177 c 128,-1,8
 686 167 686 167 721 167 c 0,9,10
 793 167 793 167 839.5 204.5 c 128,-1,11
 886 242 886 242 913 301 c 128,-1,12
 940 360 940 360 950 432.5 c 128,-1,13
 960 505 960 505 960 574 c 0,14,15
 960 791 960 791 905 906.5 c 128,-1,16
 850 1022 850 1022 729 1022 c 0,0,1
744 -23 m 0,17,18
 650 -23 650 -23 567.5 22.5 c 128,-1,19
 485 68 485 68 427 144 c 1,20,-1
 427 -453 l 1,21,-1
 152 -453 l 1,22,-1
 152 1182 l 1,23,-1
 360 1182 l 1,24,-1
 410 1005 l 1,25,26
 435 1051 435 1051 469.5 1089 c 128,-1,27
 504 1127 504 1127 547.5 1154 c 128,-1,28
 591 1181 591 1181 642.5 1196 c 128,-1,29
 694 1211 694 1211 753 1211 c 0,30,31
 988 1211 988 1211 1110 1054.5 c 128,-1,32
 1232 898 1232 898 1232 586 c 0,33,34
 1232 458 1232 458 1200.5 346.5 c 128,-1,35
 1169 235 1169 235 1107.5 153 c 128,-1,36
 1046 71 1046 71 955 24 c 128,-1,37
 864 -23 864 -23 744 -23 c 0,17,18
EndSplineSet
EndChar

StartChar: q
Encoding: 113 113 86
Width: 1312
Flags: W
HStem: -460 21G<891 1166> -23 190<468.947 743.312> 1022 189<471.199 741.653> 1162 20G<937.333 1166>
VStem: 88 271<300.883 884.15> 891 275<-460 144 262.36 920.072>
LayerCount: 2
Fore
SplineSet
604 167 m 0,0,1
 640 167 640 167 679.5 178.5 c 128,-1,2
 719 190 719 190 757.5 208.5 c 128,-1,3
 796 227 796 227 830.5 251 c 128,-1,4
 865 275 865 275 891 301 c 1,5,-1
 891 873 l 1,6,7
 830 948 830 948 754 985 c 128,-1,8
 678 1022 678 1022 605 1022 c 0,9,10
 529 1022 529 1022 481 986 c 128,-1,11
 433 950 433 950 406 890 c 128,-1,12
 379 830 379 830 369 751.5 c 128,-1,13
 359 673 359 673 359 587 c 0,14,15
 359 500 359 500 370 423.5 c 128,-1,16
 381 347 381 347 408.5 290 c 128,-1,17
 436 233 436 233 483.5 200 c 128,-1,18
 531 167 531 167 604 167 c 0,0,1
571 1211 m 0,19,20
 671 1211 671 1211 757.5 1157.5 c 128,-1,21
 844 1104 844 1104 900 1002 c 1,22,-1
 942 1182 l 1,23,-1
 1166 1182 l 1,24,-1
 1166 -460 l 1,25,-1
 891 -460 l 1,26,-1
 891 144 l 1,27,28
 829 70 829 70 747.5 23.5 c 128,-1,29
 666 -23 666 -23 566 -23 c 0,30,31
 441 -23 441 -23 350.5 26.5 c 128,-1,32
 260 76 260 76 201.5 160 c 128,-1,33
 143 244 143 244 115.5 354.5 c 128,-1,34
 88 465 88 465 88 587 c 0,35,36
 88 727 88 727 114.5 842 c 128,-1,37
 141 957 141 957 199 1039 c 128,-1,38
 257 1121 257 1121 349 1166 c 128,-1,39
 441 1211 441 1211 571 1211 c 0,19,20
EndSplineSet
EndChar

StartChar: r
Encoding: 114 114 87
Width: 844
Flags: W
HStem: 0 21G<152 427> 968 221<561.93 805>
VStem: 152 275<0 880.244>
LayerCount: 2
Fore
SplineSet
414 991 m 1,0,1
 444 1039 444 1039 477.5 1076 c 128,-1,2
 511 1113 511 1113 550.5 1138 c 128,-1,3
 590 1163 590 1163 637 1176 c 128,-1,4
 684 1189 684 1189 741 1189 c 0,5,6
 773 1189 773 1189 805 1186 c 1,7,-1
 805 957 l 1,8,9
 791 963 791 963 761 965.5 c 128,-1,10
 731 968 731 968 696 968 c 0,11,12
 624 968 624 968 555.5 932.5 c 128,-1,13
 487 897 487 897 427 845 c 1,14,-1
 427 0 l 1,15,-1
 152 0 l 1,16,-1
 152 1182 l 1,17,-1
 378 1182 l 1,18,-1
 414 991 l 1,0,1
EndSplineSet
EndChar

StartChar: s
Encoding: 115 115 88
Width: 1050
Flags: W
HStem: -24 191<293.776 672.186> 1022 189<370.126 758.17>
VStem: 86 243<804.86 980.389> 722 254<215.516 417.859>
DStem2: 457 764 339 564 0.934998 -0.354654<-150.138 375.668>
LayerCount: 2
Fore
SplineSet
339 564 m 2,0,1
 287 583 287 583 241 609 c 128,-1,2
 195 635 195 635 160.5 672.5 c 128,-1,3
 126 710 126 710 106 762 c 128,-1,4
 86 814 86 814 86 885 c 0,5,6
 86 963 86 963 119 1024 c 128,-1,7
 152 1085 152 1085 210 1126.5 c 128,-1,8
 268 1168 268 1168 347.5 1189.5 c 128,-1,9
 427 1211 427 1211 520 1211 c 0,10,11
 594 1211 594 1211 665 1197 c 128,-1,12
 736 1183 736 1183 793.5 1164.5 c 128,-1,13
 851 1146 851 1146 889.5 1128 c 128,-1,14
 928 1110 928 1110 938 1102 c 1,15,-1
 873 924 l 1,16,17
 858 936 858 936 821 952.5 c 128,-1,18
 784 969 784 969 736.5 984.5 c 128,-1,19
 689 1000 689 1000 635 1011 c 128,-1,20
 581 1022 581 1022 531 1022 c 0,21,22
 478 1022 478 1022 439.5 1011.5 c 128,-1,23
 401 1001 401 1001 376.5 983 c 128,-1,24
 352 965 352 965 340.5 940.5 c 128,-1,25
 329 916 329 916 329 887 c 0,26,27
 329 864 329 864 337 846 c 128,-1,28
 345 828 345 828 361 814 c 128,-1,29
 377 800 377 800 401 788 c 128,-1,30
 425 776 425 776 457 764 c 2,31,-1
 645 695 l 2,32,33
 723 666 723 666 784 632.5 c 128,-1,34
 845 599 845 599 888 556.5 c 128,-1,35
 931 514 931 514 953.5 461 c 128,-1,36
 976 408 976 408 976 341 c 0,37,38
 976 255 976 255 944.5 187.5 c 128,-1,39
 913 120 913 120 854.5 73 c 128,-1,40
 796 26 796 26 713.5 1 c 128,-1,41
 631 -24 631 -24 528 -24 c 0,42,43
 442 -24 442 -24 367.5 -8.5 c 128,-1,44
 293 7 293 7 235.5 26.5 c 128,-1,45
 178 46 178 46 140.5 65 c 128,-1,46
 103 84 103 84 93 92 c 1,47,-1
 158 273 l 1,48,49
 169 264 169 264 207 246.5 c 128,-1,50
 245 229 245 229 296 211 c 128,-1,51
 347 193 347 193 404.5 180 c 128,-1,52
 462 167 462 167 513 167 c 0,53,54
 553 167 553 167 591 174.5 c 128,-1,55
 629 182 629 182 658 200.5 c 128,-1,56
 687 219 687 219 704.5 249.5 c 128,-1,57
 722 280 722 280 722 327 c 0,58,59
 722 380 722 380 681 415 c 128,-1,60
 640 450 640 450 571 476 c 2,61,-1
 339 564 l 2,0,1
EndSplineSet
EndChar

StartChar: t
Encoding: 116 116 89
Width: 896
Flags: W
HStem: -23 190<510.153 732.615> 1055 127<9 209 483 818> 1631 20G<405.424 483>
VStem: 209 274<215.997 1055> 227 256<1182 1585>
LayerCount: 2
Fore
SplineSet
532 -23 m 0,0,1
 443 -23 443 -23 381 5.5 c 128,-1,2
 319 34 319 34 281 92.5 c 128,-1,3
 243 151 243 151 226 240.5 c 128,-1,4
 209 330 209 330 209 452 c 2,5,-1
 209 1055 l 1,6,-1
 9 1055 l 1,7,-1
 9 1182 l 1,8,-1
 227 1182 l 1,9,-1
 227 1585 l 1,10,-1
 483 1651 l 1,11,-1
 483 1182 l 1,12,-1
 818 1182 l 1,13,-1
 818 1055 l 1,14,-1
 483 1055 l 1,15,-1
 483 363 l 2,16,17
 483 262 483 262 508.5 214.5 c 128,-1,18
 534 167 534 167 600 167 c 0,19,20
 638 167 638 167 684.5 188 c 128,-1,21
 731 209 731 209 788 243 c 1,22,-1
 864 73 l 1,23,24
 838 57 838 57 804 40 c 128,-1,25
 770 23 770 23 728 9 c 128,-1,26
 686 -5 686 -5 637 -14 c 128,-1,27
 588 -23 588 -23 532 -23 c 0,0,1
EndSplineSet
EndChar

StartChar: u
Encoding: 117 117 90
Width: 1299
Flags: W
HStem: -23 197<470.194 746.194> 0 21G<945.078 1149> 1162 20G<134 407 873 1149>
VStem: 134 273<245.157 1182> 873 276<254.435 1182>
LayerCount: 2
Fore
SplineSet
407 439 m 2,0,1
 407 375 407 375 417 325.5 c 128,-1,2
 427 276 427 276 450 242.5 c 128,-1,3
 473 209 473 209 510 191.5 c 128,-1,4
 547 174 547 174 600 174 c 0,5,6
 675 174 675 174 740 201 c 128,-1,7
 805 228 805 228 873 293 c 1,8,-1
 873 1182 l 1,9,-1
 1149 1182 l 1,10,-1
 1149 0 l 1,11,-1
 951 0 l 1,12,-1
 898 179 l 1,13,14
 877 137 877 137 844.5 100 c 128,-1,15
 812 63 812 63 769.5 35.5 c 128,-1,16
 727 8 727 8 675.5 -7.5 c 128,-1,17
 624 -23 624 -23 564 -23 c 0,18,19
 352 -23 352 -23 243 92 c 128,-1,20
 134 207 134 207 134 452 c 2,21,-1
 134 1182 l 1,22,-1
 407 1182 l 1,23,-1
 407 439 l 2,0,1
EndSplineSet
EndChar

StartChar: v
Encoding: 118 118 91
Width: 1170
Flags: W
HStem: 0 21G<422.147 747.887> 1162 20G<24 314.013 855.095 1148>
VStem: 24 284<898 1182> 861 287<895 1182>
LayerCount: 2
Fore
SplineSet
429 0 m 1,0,-1
 24 1182 l 1,1,-1
 308 1182 l 1,2,-1
 587 254 l 1,3,-1
 861 1182 l 1,4,-1
 1148 1182 l 1,5,-1
 741 0 l 1,6,-1
 429 0 l 1,0,-1
EndSplineSet
EndChar

StartChar: w
Encoding: 119 119 92
Width: 1636
Flags: W
HStem: 0 21G<332.687 615.769 1019.21 1304.31> 1162 20G<24 288.18 684.498 952.416 1351.67 1613>
VStem: 1356 257<925 1182>
DStem2: 479 249 611 0 0.219587 0.975593<0 674.21> 948 1182 817 864 0.2156 -0.976482<282.278 955.471>
LayerCount: 2
Fore
SplineSet
817 864 m 1,0,-1
 611 0 l 1,1,-1
 338 0 l 1,2,-1
 24 1182 l 1,3,-1
 284 1182 l 1,4,-1
 479 249 l 1,5,-1
 689 1182 l 1,6,-1
 948 1182 l 1,7,-1
 1154 249 l 1,8,-1
 1356 1182 l 1,9,-1
 1613 1182 l 1,10,-1
 1299 0 l 1,11,-1
 1024 0 l 1,12,-1
 817 864 l 1,0,-1
EndSplineSet
EndChar

StartChar: x
Encoding: 120 120 93
Width: 1170
Flags: W
HStem: 0 21G<43 359.587 815.558 1126> 1162 20G<37 359.94 816.06 1133>
LayerCount: 2
Fore
SplineSet
348 0 m 1,0,-1
 43 0 l 1,1,-1
 451 593 l 1,2,-1
 37 1182 l 1,3,-1
 348 1182 l 1,4,-1
 588 780 l 1,5,-1
 828 1182 l 1,6,-1
 1133 1182 l 1,7,-1
 727 593 l 1,8,-1
 1126 0 l 1,9,-1
 827 0 l 1,10,-1
 589 416 l 1,11,-1
 348 0 l 1,0,-1
EndSplineSet
EndChar

StartChar: y
Encoding: 121 121 94
Width: 1171
Flags: W
HStem: -471 185<223 312.651> 1162 20G<24 307.376 863.22 1149>
LayerCount: 2
Fore
SplineSet
24 1182 m 1,0,-1
 300 1182 l 1,1,-1
 619 317 l 1,2,-1
 869 1182 l 1,3,-1
 1149 1182 l 1,4,-1
 726 -35 l 2,5,6
 679 -169 679 -169 616 -254 c 128,-1,7
 553 -339 553 -339 484.5 -387 c 128,-1,8
 416 -435 416 -435 348 -453 c 128,-1,9
 280 -471 280 -471 223 -471 c 1,10,-1
 147 -286 l 1,11,12
 225 -276 225 -276 281 -255 c 128,-1,13
 337 -234 337 -234 377.5 -197 c 128,-1,14
 418 -160 418 -160 446.5 -104 c 128,-1,15
 475 -48 475 -48 498 33 c 1,16,-1
 24 1182 l 1,0,-1
EndSplineSet
EndChar

StartChar: z
Encoding: 122 122 95
Width: 1054
Flags: W
HStem: 0 188<386 952> 994 188<122 676>
DStem2: 101 203 386 188 0.587989 0.808869<155.444 977.909>
LayerCount: 2
Fore
SplineSet
122 994 m 1,0,-1
 122 1182 l 1,1,-1
 947 1182 l 1,2,-1
 947 981 l 1,3,-1
 386 188 l 1,4,-1
 952 188 l 1,5,-1
 952 0 l 1,6,-1
 101 0 l 1,7,-1
 101 203 l 1,8,-1
 676 994 l 1,9,-1
 122 994 l 1,0,-1
EndSplineSet
EndChar

StartChar: braceleft
Encoding: 123 123 96
Width: 850
Flags: W
HStem: -213 182<604.375 727> 568 192<122 228.927> 1359 182<603.438 727>
VStem: 122 605
DStem2: 539.5 424.5 283 370 0.147293 -0.989093<-162.345 457.108>
CounterMasks: 1 e0
LayerCount: 2
Fore
SplineSet
552 1053 m 0,0,1
 551 955 551 955 535.5 887.5 c 128,-1,2
 520 820 520 820 492 775 c 128,-1,3
 464 730 464 730 424.5 704 c 128,-1,4
 385 678 385 678 337 664 c 1,5,6
 394 646 394 646 434.5 615 c 128,-1,7
 475 584 475 584 501 536.5 c 128,-1,8
 527 489 527 489 539.5 424.5 c 128,-1,9
 552 360 552 360 553 275 c 0,10,11
 554 170 554 170 566 109.5 c 128,-1,12
 578 49 578 49 600.5 17.5 c 128,-1,13
 623 -14 623 -14 654.5 -22.5 c 128,-1,14
 686 -31 686 -31 727 -31 c 1,15,-1
 727 -213 l 1,16,17
 640 -213 640 -213 567 -192 c 128,-1,18
 494 -171 494 -171 439 -123.5 c 128,-1,19
 384 -76 384 -76 349 0.5 c 128,-1,20
 314 77 314 77 304 188 c 0,21,22
 295 297 295 297 283 370 c 128,-1,23
 271 443 271 443 251 487 c 128,-1,24
 231 531 231 531 199.5 549.5 c 128,-1,25
 168 568 168 568 122 568 c 1,26,-1
 122 760 l 1,27,28
 171 760 171 760 201.5 779 c 128,-1,29
 232 798 232 798 251.5 842.5 c 128,-1,30
 271 887 271 887 282.5 959.5 c 128,-1,31
 294 1032 294 1032 304 1140 c 0,32,33
 314 1250 314 1250 348.5 1326.5 c 128,-1,34
 383 1403 383 1403 438 1450.5 c 128,-1,35
 493 1498 493 1498 566 1519.5 c 128,-1,36
 639 1541 639 1541 727 1541 c 1,37,-1
 727 1359 l 1,38,39
 687 1359 687 1359 655 1351 c 128,-1,40
 623 1343 623 1343 600.5 1312 c 128,-1,41
 578 1281 578 1281 565.5 1220 c 128,-1,42
 553 1159 553 1159 552 1053 c 0,0,1
EndSplineSet
EndChar

StartChar: bar
Encoding: 124 124 97
Width: 731
Flags: W
VStem: 242 247<-131 1706>
LayerCount: 2
Fore
SplineSet
242 1706 m 1,0,-1
 489 1706 l 1,1,-1
 489 -131 l 1,2,-1
 242 -131 l 1,3,-1
 242 1706 l 1,0,-1
EndSplineSet
EndChar

StartChar: braceright
Encoding: 125 125 98
Width: 852
Flags: W
HStem: -212 181<145 268.562> 569 191<642.823 750> 1360 182<145 267.906>
VStem: 145 605
DStem2: 305.5 106.5 568 189 0.0945947 0.995516<-118.398 450.938> 568 1141 306 1222.5 0.106769 -0.994284<-227.097 350.75>
LayerCount: 2
Fore
SplineSet
320 1054 m 0,0,1
 319 1161 319 1161 306 1222.5 c 128,-1,2
 293 1284 293 1284 270 1314.5 c 128,-1,3
 247 1345 247 1345 215.5 1352.5 c 128,-1,4
 184 1360 184 1360 145 1360 c 1,5,-1
 145 1542 l 1,6,7
 232 1542 232 1542 305.5 1521 c 128,-1,8
 379 1500 379 1500 434 1452.5 c 128,-1,9
 489 1405 489 1405 523.5 1328.5 c 128,-1,10
 558 1252 558 1252 568 1141 c 0,11,12
 572 1103 572 1103 575.5 1066 c 128,-1,13
 579 1029 579 1029 584 992 c 1,14,15
 590 927 590 927 603.5 882.5 c 128,-1,16
 617 838 617 838 637.5 811 c 128,-1,17
 658 784 658 784 686 772 c 128,-1,18
 714 760 714 760 750 760 c 1,19,-1
 750 569 l 1,20,21
 703 569 703 569 672 550.5 c 128,-1,22
 641 532 641 532 620.5 487.5 c 128,-1,23
 600 443 600 443 588.5 370 c 128,-1,24
 577 297 577 297 568 189 c 0,25,26
 558 79 558 79 523.5 2.5 c 128,-1,27
 489 -74 489 -74 434 -121.5 c 128,-1,28
 379 -169 379 -169 306 -190.5 c 128,-1,29
 233 -212 233 -212 145 -212 c 1,30,-1
 145 -31 l 1,31,32
 184 -31 184 -31 216 -23.5 c 128,-1,33
 248 -16 248 -16 270.5 14.5 c 128,-1,34
 293 45 293 45 305.5 106.5 c 128,-1,35
 318 168 318 168 319 275 c 0,36,37
 320 360 320 360 332.5 424.5 c 128,-1,38
 345 489 345 489 371 536.5 c 128,-1,39
 397 584 397 584 437.5 615.5 c 128,-1,40
 478 647 478 647 535 665 c 1,41,42
 485 680 485 680 445.5 706.5 c 128,-1,43
 406 733 406 733 378 778 c 128,-1,44
 350 823 350 823 335.5 890.5 c 128,-1,45
 321 958 321 958 320 1054 c 0,0,1
EndSplineSet
EndChar

StartChar: asciitilde
Encoding: 126 126 99
Width: 1071
Flags: W
HStem: 303 184<592.465 775.633> 441 182<334.299 489.972>
VStem: 137 186<319 413.146> 781 192<488.944 596>
DStem2: 492 588 447.5 419.5 0.887217 -0.461353<-25.5827 250.766>
LayerCount: 2
Fore
SplineSet
755 303 m 0,0,1
 696 303 696 303 640 324.5 c 128,-1,2
 584 346 584 346 535 372 c 128,-1,3
 486 398 486 398 447.5 419.5 c 128,-1,4
 409 441 409 441 386 441 c 0,5,6
 352 441 352 441 337.5 414 c 128,-1,7
 323 387 323 387 323 319 c 1,8,-1
 137 319 l 1,9,10
 137 479 137 479 196 551 c 128,-1,11
 255 623 255 623 359 623 c 0,12,13
 395 623 395 623 428 613 c 128,-1,14
 461 603 461 603 492 588 c 128,-1,15
 523 573 523 573 552.5 555 c 128,-1,16
 582 537 582 537 610.5 522 c 128,-1,17
 639 507 639 507 667 497 c 128,-1,18
 695 487 695 487 723 487 c 0,19,20
 742 487 742 487 753.5 495 c 128,-1,21
 765 503 765 503 771 517.5 c 128,-1,22
 777 532 777 532 779 552 c 128,-1,23
 781 572 781 572 781 596 c 1,24,-1
 973 596 l 1,25,26
 973 531 973 531 958.5 477 c 128,-1,27
 944 423 944 423 916 384.5 c 128,-1,28
 888 346 888 346 847.5 324.5 c 128,-1,29
 807 303 807 303 755 303 c 0,0,1
EndSplineSet
EndChar

StartChar: exclamdown
Encoding: 161 161 101
Width: 803
Flags: W
HStem: -1 21G<281 565> 1282 301<297.907 533.928>
VStem: 270 299<-1 275.758 1314.5 1555.53> 322 188<841.114 1138>
LayerCount: 2
Fore
SplineSet
565 -1 m 1,0,-1
 281 -1 l 1,1,-1
 322 1138 l 1,2,-1
 510 1138 l 1,3,-1
 565 -1 l 1,0,-1
270 1422 m 0,4,5
 270 1469 270 1469 279 1500 c 128,-1,6
 288 1531 288 1531 307.5 1549.5 c 128,-1,7
 327 1568 327 1568 357 1575.5 c 128,-1,8
 387 1583 387 1583 429 1583 c 0,9,10
 472 1583 472 1583 499.5 1571 c 128,-1,11
 527 1559 527 1559 542.5 1537.5 c 128,-1,12
 558 1516 558 1516 563.5 1486.5 c 128,-1,13
 569 1457 569 1457 569 1422 c 0,14,15
 569 1345 569 1345 535 1313.5 c 128,-1,16
 501 1282 501 1282 429 1282 c 0,17,18
 391 1282 391 1282 358.5 1289.5 c 128,-1,19
 326 1297 326 1297 297 1311 c 1,20,21
 284 1335 284 1335 277 1363 c 128,-1,22
 270 1391 270 1391 270 1422 c 0,4,5
EndSplineSet
EndChar

StartChar: cent
Encoding: 162 162 102
Width: 1134
Flags: W
HStem: -18 204<521.375 627 762 935.345> 1003 202<517.683 627 762 922.625>
VStem: 111 276<342.283 849.585> 627 135<-155 -14.4141 186 1003 1200.63 1373>
LayerCount: 2
Fore
SplineSet
387 592 m 0,0,1
 387 416 387 416 446.5 312.5 c 128,-1,2
 506 209 506 209 627 186 c 1,3,-1
 627 1003 l 1,4,5
 557 991 557 991 511 954 c 128,-1,6
 465 917 465 917 437.5 862 c 128,-1,7
 410 807 410 807 398.5 737.5 c 128,-1,8
 387 668 387 668 387 592 c 0,0,1
627 -18 m 1,9,10
 512 -12 512 -12 417 32 c 128,-1,11
 322 76 322 76 254 153.5 c 128,-1,12
 186 231 186 231 148.5 341.5 c 128,-1,13
 111 452 111 452 111 592 c 256,14,15
 111 732 111 732 150.5 842.5 c 128,-1,16
 190 953 190 953 259 1031.5 c 128,-1,17
 328 1110 328 1110 422.5 1154 c 128,-1,18
 517 1198 517 1198 627 1205 c 1,19,-1
 627 1373 l 1,20,-1
 762 1373 l 1,21,-1
 762 1199 l 1,22,23
 841 1191 841 1191 916 1164 c 128,-1,24
 991 1137 991 1137 1057 1098 c 1,25,-1
 995 915 l 1,26,27
 955 947 955 947 893 971 c 128,-1,28
 831 995 831 995 762 1003 c 1,29,-1
 762 182 l 1,30,31
 795 182 795 182 829.5 191.5 c 128,-1,32
 864 201 864 201 895.5 213.5 c 128,-1,33
 927 226 927 226 953 239.5 c 128,-1,34
 979 253 979 253 994 262 c 1,35,-1
 1051 78 l 1,36,37
 1038 71 1038 71 1007 56 c 128,-1,38
 976 41 976 41 935.5 26 c 128,-1,39
 895 11 895 11 849.5 -0.5 c 128,-1,40
 804 -12 804 -12 762 -12 c 1,41,-1
 762 -155 l 1,42,-1
 627 -155 l 1,43,-1
 627 -18 l 1,9,10
EndSplineSet
EndChar

StartChar: sterling
Encoding: 163 163 103
Width: 1183
Flags: W
HStem: 0 190<437 1049> 596 128<182 320 571 984> 1136 206<521.067 895.896>
VStem: 206 257<815.283 1080.56> 346 225<366.862 596>
DStem2: 1013 1262.5 928.5 1076.5 0.880864 -0.473369<-192.242 76.7692>
LayerCount: 2
Fore
SplineSet
202 183 m 1,0,1
 221 207 221 207 246 249.5 c 128,-1,2
 271 292 271 292 293.5 347.5 c 128,-1,3
 316 403 316 403 331 466.5 c 128,-1,4
 346 530 346 530 346 596 c 1,5,-1
 182 596 l 1,6,-1
 182 721 l 1,7,-1
 320 721 l 1,8,9
 306 735 306 735 286.5 759.5 c 128,-1,10
 267 784 267 784 249 818.5 c 128,-1,11
 231 853 231 853 218.5 895.5 c 128,-1,12
 206 938 206 938 206 988 c 0,13,14
 206 1075 206 1075 239 1141.5 c 128,-1,15
 272 1208 272 1208 333.5 1252.5 c 128,-1,16
 395 1297 395 1297 482 1319.5 c 128,-1,17
 569 1342 569 1342 677 1342 c 0,18,19
 750 1342 750 1342 811.5 1330 c 128,-1,20
 873 1318 873 1318 923.5 1300.5 c 128,-1,21
 974 1283 974 1283 1013 1262.5 c 128,-1,22
 1052 1242 1052 1242 1080 1225 c 1,23,-1
 991 1044 l 1,24,25
 962 1060 962 1060 928.5 1076.5 c 128,-1,26
 895 1093 895 1093 857 1106.5 c 128,-1,27
 819 1120 819 1120 777 1128 c 128,-1,28
 735 1136 735 1136 690 1136 c 0,29,30
 624 1136 624 1136 580.5 1122 c 128,-1,31
 537 1108 537 1108 510.5 1084 c 128,-1,32
 484 1060 484 1060 473.5 1027 c 128,-1,33
 463 994 463 994 463 957 c 0,34,35
 463 923 463 923 468.5 894.5 c 128,-1,36
 474 866 474 866 486 839 c 128,-1,37
 498 812 498 812 517 784.5 c 128,-1,38
 536 757 536 757 562 724 c 1,39,-1
 984 724 l 1,40,-1
 984 596 l 1,41,-1
 571 596 l 1,42,43
 571 519 571 519 554.5 453 c 128,-1,44
 538 387 538 387 516 334.5 c 128,-1,45
 494 282 494 282 471.5 245 c 128,-1,46
 449 208 449 208 437 190 c 1,47,-1
 1049 190 l 1,48,-1
 1049 0 l 1,49,-1
 202 0 l 1,50,-1
 202 183 l 1,0,1
EndSplineSet
EndChar

StartChar: currency
Encoding: 164 164 104
Width: 1402
Flags: W
HStem: 557 161<551.136 842.386> 1276 163<566.379 857.403>
VStem: 264 162<844.472 1135.04> 983 162<859.169 1150.15>
DStem2: 269 1560 140 1432 0.707107 -0.707107<0 293.214 1117.3 1422.7> 140 554 269 425 0.707458 0.706755<0.0906277 285.03 1141.47 1423.41>
LayerCount: 2
Fore
SplineSet
334 748 m 1,0,1
 264 854 264 854 264 983 c 0,2,3
 264 1115 264 1115 341 1231 c 1,4,-1
 140 1432 l 1,5,-1
 269 1560 l 1,6,-1
 470 1360 l 1,7,8
 585 1439 585 1439 720 1439 c 0,9,10
 847 1439 847 1439 955 1369 c 1,11,-1
 1147 1560 l 1,12,-1
 1275 1432 l 1,13,-1
 1082 1238 l 1,14,15
 1145 1137 1145 1137 1145 1012 c 0,16,17
 1145 879 1145 879 1066 763 c 1,18,-1
 1275 554 l 1,19,-1
 1147 425 l 1,20,-1
 937 635 l 1,21,22
 823 557 823 557 691 557 c 0,23,24
 565 557 565 557 465 620 c 1,25,-1
 269 425 l 1,26,-1
 140 554 l 1,27,-1
 334 748 l 1,0,1
713 1276 m 0,28,29
 656 1276 656 1276 604.5 1252.5 c 128,-1,30
 553 1229 553 1229 513 1189 c 128,-1,31
 473 1149 473 1149 449.5 1097.5 c 128,-1,32
 426 1046 426 1046 426 989 c 256,33,34
 426 932 426 932 448.5 883 c 128,-1,35
 471 834 471 834 508.5 797 c 128,-1,36
 546 760 546 760 595.5 739 c 128,-1,37
 645 718 645 718 700 718 c 256,38,39
 755 718 755 718 806.5 742 c 128,-1,40
 858 766 858 766 897 805.5 c 128,-1,41
 936 845 936 845 959.5 897 c 128,-1,42
 983 949 983 949 983 1005 c 0,43,44
 983 1060 983 1060 961 1109.5 c 128,-1,45
 939 1159 939 1159 902 1196 c 128,-1,46
 865 1233 865 1233 816 1254.5 c 128,-1,47
 767 1276 767 1276 713 1276 c 0,28,29
EndSplineSet
EndChar

StartChar: yen
Encoding: 165 165 105
Width: 1296
Flags: W
HStem: 0 21G<520 794> 401 112<202 519 795 1109> 627 114<202 438 874 1109> 1581 20G<-1 299.241 1009.78 1314>
VStem: 520 274<0 401>
LayerCount: 2
Fore
SplineSet
1019 1601 m 1,0,-1
 1314 1601 l 1,1,-1
 874 741 l 1,2,-1
 1109 741 l 1,3,-1
 1109 627 l 1,4,-1
 827 627 l 1,5,-1
 795 513 l 1,6,-1
 1109 513 l 1,7,-1
 1109 401 l 1,8,-1
 794 401 l 1,9,-1
 794 0 l 1,10,-1
 520 0 l 1,11,-1
 520 401 l 1,12,-1
 202 401 l 1,13,-1
 202 513 l 1,14,-1
 519 513 l 1,15,-1
 488 627 l 1,16,-1
 202 627 l 1,17,-1
 202 741 l 1,18,-1
 438 741 l 1,19,-1
 -1 1601 l 1,20,-1
 290 1601 l 1,21,-1
 655 811 l 1,22,-1
 1019 1601 l 1,0,-1
EndSplineSet
EndChar

StartChar: brokenbar
Encoding: 166 166 106
Width: 708
Flags: W
HStem: 1628 20G<240 493>
VStem: 240 253<-76 653 919 1648>
LayerCount: 2
Fore
SplineSet
240 1648 m 1,0,-1
 493 1648 l 1,1,-1
 493 919 l 1,2,-1
 240 919 l 1,3,-1
 240 1648 l 1,0,-1
240 653 m 1,4,-1
 493 653 l 1,5,-1
 493 -76 l 1,6,-1
 240 -76 l 1,7,-1
 240 653 l 1,4,-1
EndSplineSet
EndChar

StartChar: section
Encoding: 167 167 107
Width: 1174
Flags: W
HStem: -106 197<382.297 751.314> 1401 196<405.156 775.698>
VStem: 168 208<669.929 855.334 1213.5 1368.61> 798 224<137.924 342.886 665.649 860.19>
DStem2: 536 1158 393 1015 0.943365 -0.331757<-179.651 -87.4599 156.824 344.306>
LayerCount: 2
Fore
SplineSet
589 633 m 0,0,1
 635 633 635 633 674.5 639 c 128,-1,2
 714 645 714 645 743 659.5 c 128,-1,3
 772 674 772 674 788.5 698.5 c 128,-1,4
 805 723 805 723 805 760 c 0,5,6
 805 832 805 832 750.5 862 c 128,-1,7
 696 892 696 892 589 892 c 0,8,9
 530 892 530 892 489.5 883 c 128,-1,10
 449 874 449 874 423.5 857.5 c 128,-1,11
 398 841 398 841 387 817 c 128,-1,12
 376 793 376 793 376 762 c 0,13,14
 376 696 376 696 427.5 664.5 c 128,-1,15
 479 633 479 633 589 633 c 0,0,1
899 1286 m 1,16,17
 883 1299 883 1299 850.5 1318.5 c 128,-1,18
 818 1338 818 1338 776 1356.5 c 128,-1,19
 734 1375 734 1375 685 1388 c 128,-1,20
 636 1401 636 1401 587 1401 c 0,21,22
 522 1401 522 1401 481.5 1392 c 128,-1,23
 441 1383 441 1383 418 1367 c 128,-1,24
 395 1351 395 1351 386.5 1328.5 c 128,-1,25
 378 1306 378 1306 378 1280 c 0,26,27
 378 1256 378 1256 393.5 1237 c 128,-1,28
 409 1218 409 1218 444 1199 c 128,-1,29
 479 1180 479 1180 536 1158 c 128,-1,30
 593 1136 593 1136 677 1107 c 1,31,32
 773 1072 773 1072 839 1036.5 c 128,-1,33
 905 1001 905 1001 945 959.5 c 128,-1,34
 985 918 985 918 1002.5 869.5 c 128,-1,35
 1020 821 1020 821 1020 760 c 0,36,37
 1020 706 1020 706 1002 666 c 128,-1,38
 984 626 984 626 954 597 c 128,-1,39
 924 568 924 568 884 549.5 c 128,-1,40
 844 531 844 531 800 521 c 1,41,42
 864 496 864 496 906.5 464 c 128,-1,43
 949 432 949 432 974.5 393.5 c 128,-1,44
 1000 355 1000 355 1011 309.5 c 128,-1,45
 1022 264 1022 264 1022 212 c 0,46,47
 1022 128 1022 128 985 68 c 128,-1,48
 948 8 948 8 887.5 -31 c 128,-1,49
 827 -70 827 -70 748.5 -88 c 128,-1,50
 670 -106 670 -106 586 -106 c 0,51,52
 511 -106 511 -106 440 -87 c 128,-1,53
 369 -68 369 -68 312 -44 c 128,-1,54
 255 -20 255 -20 217.5 2.5 c 128,-1,55
 180 25 180 25 172 32 c 1,56,-1
 251 212 l 1,57,58
 266 196 266 196 302 175 c 128,-1,59
 338 154 338 154 382 135.5 c 128,-1,60
 426 117 426 117 473.5 104 c 128,-1,61
 521 91 521 91 559 91 c 0,62,63
 677 91 677 91 737.5 126.5 c 128,-1,64
 798 162 798 162 798 240 c 0,65,66
 798 276 798 276 787 300 c 128,-1,67
 776 324 776 324 755 341.5 c 128,-1,68
 734 359 734 359 703 372 c 128,-1,69
 672 385 672 385 632 399 c 2,70,-1
 470 454 l 2,71,72
 392 481 392 481 335 509 c 128,-1,73
 278 537 278 537 241 573 c 128,-1,74
 204 609 204 609 186 656.5 c 128,-1,75
 168 704 168 704 168 770 c 0,76,77
 168 809 168 809 179 848 c 128,-1,78
 190 887 190 887 216.5 920 c 128,-1,79
 243 953 243 953 286 978 c 128,-1,80
 329 1003 329 1003 393 1015 c 1,81,82
 330 1037 330 1037 287 1064.5 c 128,-1,83
 244 1092 244 1092 217.5 1127 c 128,-1,84
 191 1162 191 1162 179.5 1205.5 c 128,-1,85
 168 1249 168 1249 168 1304 c 0,86,87
 168 1367 168 1367 197 1420.5 c 128,-1,88
 226 1474 226 1474 280 1513 c 128,-1,89
 334 1552 334 1552 410 1574.5 c 128,-1,90
 486 1597 486 1597 580 1597 c 0,91,92
 644 1597 644 1597 710 1579 c 128,-1,93
 776 1561 776 1561 832 1537 c 128,-1,94
 888 1513 888 1513 927 1490.5 c 128,-1,95
 966 1468 966 1468 976 1459 c 1,96,-1
 899 1286 l 1,16,17
EndSplineSet
EndChar

StartChar: dieresis
Encoding: 168 168 108
Width: 1117
Flags: W
HStem: 156 315<156.985 376.014 746.985 966.014>
VStem: 111 312<202.504 424.496> 700 313<202.504 424.496>
LayerCount: 2
Fore
SplineSet
111 314 m 0,0,1
 111 346 111 346 122.5 374.5 c 128,-1,2
 134 403 134 403 155 424.5 c 128,-1,3
 176 446 176 446 204.5 458.5 c 128,-1,4
 233 471 233 471 266 471 c 256,5,6
 299 471 299 471 328 458.5 c 128,-1,7
 357 446 357 446 378 424.5 c 128,-1,8
 399 403 399 403 411 374.5 c 128,-1,9
 423 346 423 346 423 314 c 0,10,11
 423 281 423 281 411 252.5 c 128,-1,12
 399 224 399 224 378 202.5 c 128,-1,13
 357 181 357 181 328 168.5 c 128,-1,14
 299 156 299 156 266 156 c 0,15,16
 232 156 232 156 203.5 168.5 c 128,-1,17
 175 181 175 181 154.5 202.5 c 128,-1,18
 134 224 134 224 122.5 252.5 c 128,-1,19
 111 281 111 281 111 314 c 0,0,1
700 314 m 0,20,21
 700 346 700 346 712 374.5 c 128,-1,22
 724 403 724 403 745 424.5 c 128,-1,23
 766 446 766 446 794.5 458.5 c 128,-1,24
 823 471 823 471 856 471 c 256,25,26
 889 471 889 471 918 458.5 c 128,-1,27
 947 446 947 446 968 424.5 c 128,-1,28
 989 403 989 403 1001 374.5 c 128,-1,29
 1013 346 1013 346 1013 314 c 0,30,31
 1013 281 1013 281 1001 252.5 c 128,-1,32
 989 224 989 224 968 202.5 c 128,-1,33
 947 181 947 181 918 168.5 c 128,-1,34
 889 156 889 156 856 156 c 0,35,36
 821 156 821 156 792.5 168.5 c 128,-1,37
 764 181 764 181 743.5 202.5 c 128,-1,38
 723 224 723 224 711.5 252.5 c 128,-1,39
 700 281 700 281 700 314 c 0,20,21
EndSplineSet
EndChar

StartChar: copyright
Encoding: 169 169 109
Width: 2121
Flags: W
HStem: -80 182<792.412 1314.17> 307 171<900.608 1293.75> 1160 171<905.766 1302.54> 1537 183<822.147 1303.13>
VStem: 151 206<549.707 1072.34> 590 202<593.89 1039.43> 1768 206<555.866 1072.24>
LayerCount: 2
Fore
SplineSet
1053 102 m 0,0,1
 1160 102 1160 102 1254.5 127.5 c 128,-1,2
 1349 153 1349 153 1428.5 199.5 c 128,-1,3
 1508 246 1508 246 1571 311 c 128,-1,4
 1634 376 1634 376 1678 455.5 c 128,-1,5
 1722 535 1722 535 1745 626.5 c 128,-1,6
 1768 718 1768 718 1768 817 c 0,7,8
 1768 929 1768 929 1739.5 1025.5 c 128,-1,9
 1711 1122 1711 1122 1660.5 1202 c 128,-1,10
 1610 1282 1610 1282 1542 1344.5 c 128,-1,11
 1474 1407 1474 1407 1396 1449.5 c 128,-1,12
 1318 1492 1318 1492 1232.5 1514.5 c 128,-1,13
 1147 1537 1147 1537 1063 1537 c 0,14,15
 978 1537 978 1537 892 1514.5 c 128,-1,16
 806 1492 806 1492 728 1449.5 c 128,-1,17
 650 1407 650 1407 582 1344.5 c 128,-1,18
 514 1282 514 1282 464 1202 c 128,-1,19
 414 1122 414 1122 385.5 1025 c 128,-1,20
 357 928 357 928 357 817 c 0,21,22
 357 668 357 668 405.5 537.5 c 128,-1,23
 454 407 454 407 544.5 310.5 c 128,-1,24
 635 214 635 214 763.5 158 c 128,-1,25
 892 102 892 102 1053 102 c 0,0,1
792 819 m 0,26,27
 792 720 792 720 811.5 654.5 c 128,-1,28
 831 589 831 589 868.5 550 c 128,-1,29
 906 511 906 511 961 494.5 c 128,-1,30
 1016 478 1016 478 1087 478 c 0,31,32
 1119 478 1119 478 1151.5 482.5 c 128,-1,33
 1184 487 1184 487 1220 497 c 128,-1,34
 1256 507 1256 507 1297 524 c 128,-1,35
 1338 541 1338 541 1386 565 c 1,36,-1
 1386 389 l 1,37,38
 1301 346 1301 346 1232 326.5 c 128,-1,39
 1163 307 1163 307 1100 307 c 0,40,41
 999 307 999 307 922 327.5 c 128,-1,42
 845 348 845 348 788.5 384.5 c 128,-1,43
 732 421 732 421 693.5 470.5 c 128,-1,44
 655 520 655 520 632 577.5 c 128,-1,45
 609 635 609 635 599.5 698 c 128,-1,46
 590 761 590 761 590 824 c 0,47,48
 590 929 590 929 618 1021.5 c 128,-1,49
 646 1114 646 1114 706.5 1183 c 128,-1,50
 767 1252 767 1252 862.5 1291.5 c 128,-1,51
 958 1331 958 1331 1092 1331 c 0,52,53
 1125 1331 1125 1331 1162.5 1325 c 128,-1,54
 1200 1319 1200 1319 1238 1308.5 c 128,-1,55
 1276 1298 1276 1298 1313 1283.5 c 128,-1,56
 1350 1269 1350 1269 1382 1251 c 1,57,-1
 1382 1079 l 1,58,59
 1301 1121 1301 1121 1226 1140.5 c 128,-1,60
 1151 1160 1151 1160 1083 1160 c 0,61,62
 1004 1160 1004 1160 948.5 1138 c 128,-1,63
 893 1116 893 1116 858.5 1072.5 c 128,-1,64
 824 1029 824 1029 808 965.5 c 128,-1,65
 792 902 792 902 792 819 c 0,26,27
1057 -80 m 0,66,67
 938 -80 938 -80 824.5 -51 c 128,-1,68
 711 -22 711 -22 610 32.5 c 128,-1,69
 509 87 509 87 425 166 c 128,-1,70
 341 245 341 245 280 345 c 128,-1,71
 219 445 219 445 185 564.5 c 128,-1,72
 151 684 151 684 151 820 c 256,73,74
 151 956 151 956 186.5 1076 c 128,-1,75
 222 1196 222 1196 284.5 1296 c 128,-1,76
 347 1396 347 1396 433 1474.5 c 128,-1,77
 519 1553 519 1553 620 1607.5 c 128,-1,78
 721 1662 721 1662 834 1691 c 128,-1,79
 947 1720 947 1720 1063 1720 c 0,80,81
 1177 1720 1177 1720 1289 1691 c 128,-1,82
 1401 1662 1401 1662 1502.5 1607.5 c 128,-1,83
 1604 1553 1604 1553 1690 1474 c 128,-1,84
 1776 1395 1776 1395 1839.5 1295 c 128,-1,85
 1903 1195 1903 1195 1938.5 1075.5 c 128,-1,86
 1974 956 1974 956 1974 820 c 0,87,88
 1974 685 1974 685 1939.5 566 c 128,-1,89
 1905 447 1905 447 1843.5 347 c 128,-1,90
 1782 247 1782 247 1696.5 168 c 128,-1,91
 1611 89 1611 89 1509 33.5 c 128,-1,92
 1407 -22 1407 -22 1292 -51 c 128,-1,93
 1177 -80 1177 -80 1057 -80 c 0,66,67
EndSplineSet
EndChar

StartChar: ordfeminine
Encoding: 170 170 110
Width: 1236
Flags: W
HStem: 446 129<270 954> 668 113<407.339 701.412> 1158 100<435.062 797.408> 1513 125<375.453 752.234>
VStem: 206 161<821.783 1093.22> 799 161<855.555 1147.53 1218 1465.58> 844 116<686 761.397>
LayerCount: 2
Fore
SplineSet
817 828 m 2,0,1
 816 828 816 828 801 803 c 128,-1,2
 786 778 786 778 752 748 c 128,-1,3
 718 718 718 718 662 693 c 128,-1,4
 606 668 606 668 523 668 c 0,5,6
 449 668 449 668 390.5 687.5 c 128,-1,7
 332 707 332 707 291 744 c 128,-1,8
 250 781 250 781 228 835.5 c 128,-1,9
 206 890 206 890 206 960 c 0,10,11
 206 1032 206 1032 232 1087.5 c 128,-1,12
 258 1143 258 1143 305.5 1181 c 128,-1,13
 353 1219 353 1219 419 1238.5 c 128,-1,14
 485 1258 485 1258 565 1258 c 0,15,16
 608 1258 608 1258 649.5 1253 c 128,-1,17
 691 1248 691 1248 723.5 1241 c 128,-1,18
 756 1234 756 1234 776.5 1227.5 c 128,-1,19
 797 1221 797 1221 799 1218 c 1,20,-1
 799 1276 l 2,21,22
 799 1334 799 1334 792.5 1378.5 c 128,-1,23
 786 1423 786 1423 765.5 1453 c 128,-1,24
 745 1483 745 1483 707.5 1498 c 128,-1,25
 670 1513 670 1513 607 1513 c 0,26,27
 548 1513 548 1513 495.5 1502 c 128,-1,28
 443 1491 443 1491 403.5 1478 c 128,-1,29
 364 1465 364 1465 340.5 1454 c 128,-1,30
 317 1443 317 1443 316 1443 c 2,31,-1
 263 1552 l 2,32,33
 264 1552 264 1552 290 1565.5 c 128,-1,34
 316 1579 316 1579 361 1595 c 128,-1,35
 406 1611 406 1611 467 1624.5 c 128,-1,36
 528 1638 528 1638 599 1638 c 0,37,38
 701 1638 701 1638 770 1616 c 128,-1,39
 839 1594 839 1594 881.5 1545.5 c 128,-1,40
 924 1497 924 1497 942 1420.5 c 128,-1,41
 960 1344 960 1344 960 1235 c 2,42,-1
 960 686 l 1,43,-1
 844 686 l 1,44,-1
 817 828 l 2,0,1
799 1141 m 1,45,46
 748 1149 748 1149 704 1153.5 c 128,-1,47
 660 1158 660 1158 623 1158 c 0,48,49
 367 1158 367 1158 367 971 c 0,50,51
 367 918 367 918 377 882 c 128,-1,52
 387 846 387 846 409.5 823.5 c 128,-1,53
 432 801 432 801 469 791 c 128,-1,54
 506 781 506 781 561 781 c 256,55,56
 616 781 616 781 660 799.5 c 128,-1,57
 704 818 704 818 735 840.5 c 128,-1,58
 766 863 766 863 782.5 882 c 128,-1,59
 799 901 799 901 799 903 c 2,60,-1
 799 1141 l 1,45,46
270 575 m 1,61,-1
 954 575 l 1,62,-1
 954 446 l 1,63,-1
 270 446 l 1,64,-1
 270 575 l 1,61,-1
EndSplineSet
EndChar

StartChar: guillemotleft
Encoding: 171 171 111
Width: 1717
Flags: W
HStem: 23 277<567 844 1285 1562> 865 277<567 844 1285 1562>
DStem2: 125 691 383 586 0.847137 0.531375<162.767 701.551> 383 586 125 474 0.847137 -0.531375<0 542.503> 843 691 1101 586 0.847137 0.531375<162.767 701.551> 1101 586 843 474 0.847137 -0.531375<0 542.503>
LayerCount: 2
Fore
SplineSet
1101 586 m 1,0,-1
 1562 300 l 1,1,-1
 1562 23 l 1,2,-1
 843 474 l 1,3,-1
 843 691 l 1,4,-1
 1562 1142 l 1,5,-1
 1562 865 l 1,6,-1
 1101 586 l 1,0,-1
383 586 m 1,7,-1
 844 300 l 1,8,-1
 844 23 l 1,9,-1
 125 474 l 1,10,-1
 125 691 l 1,11,-1
 844 1142 l 1,12,-1
 844 865 l 1,13,-1
 383 586 l 1,7,-1
EndSplineSet
EndChar

StartChar: logicalnot
Encoding: 172 172 112
Width: 1444
Flags: W
HStem: 810 210<79 1082>
VStem: 1082 187<287 810>
LayerCount: 2
Fore
SplineSet
79 810 m 1,0,-1
 79 1020 l 1,1,-1
 1269 1020 l 1,2,-1
 1269 287 l 1,3,-1
 1082 287 l 1,4,-1
 1082 810 l 1,5,-1
 79 810 l 1,0,-1
EndSplineSet
EndChar

StartChar: uni00AD
Encoding: 173 173 113
Width: 1009
Flags: W
HStem: 549 201<157 800>
VStem: 157 643<549 750>
LayerCount: 2
Fore
SplineSet
157 549 m 1,0,-1
 157 750 l 1,1,-1
 800 750 l 1,2,-1
 800 549 l 1,3,-1
 157 549 l 1,0,-1
EndSplineSet
EndChar

StartChar: registered
Encoding: 174 174 114
Width: 1370
Flags: W
HStem: 567 120<479.63 915.344> 1132 98.5<625 660> 1409 98<625 812.375> 1675 122<482.928 915.258>
VStem: 58 141<965.151 1392.48> 502 121<862 1132 1231 1409> 818 126<1290.22 1394.21> 1200 142<969.583 1392.28>
LayerCount: 2
Fore
SplineSet
58 1182 m 0,0,1
 58 1265 58 1265 80 1343 c 128,-1,2
 102 1421 102 1421 142 1489 c 128,-1,3
 182 1557 182 1557 239.5 1614 c 128,-1,4
 297 1671 297 1671 368.5 1711.5 c 128,-1,5
 440 1752 440 1752 523.5 1774.5 c 128,-1,6
 607 1797 607 1797 700 1797 c 0,7,8
 789 1797 789 1797 871 1775.5 c 128,-1,9
 953 1754 953 1754 1024.5 1715 c 128,-1,10
 1096 1676 1096 1676 1154.5 1620 c 128,-1,11
 1213 1564 1213 1564 1254.5 1496 c 128,-1,12
 1296 1428 1296 1428 1319 1348.5 c 128,-1,13
 1342 1269 1342 1269 1342 1182 c 0,14,15
 1342 1097 1342 1097 1320 1019 c 128,-1,16
 1298 941 1298 941 1257 872.5 c 128,-1,17
 1216 804 1216 804 1158 748 c 128,-1,18
 1100 692 1100 692 1029 651.5 c 128,-1,19
 958 611 958 611 874.5 589 c 128,-1,20
 791 567 791 567 700 567 c 0,21,22
 564 567 564 567 447 614.5 c 128,-1,23
 330 662 330 662 243.5 745.5 c 128,-1,24
 157 829 157 829 107.5 941 c 128,-1,25
 58 1053 58 1053 58 1182 c 0,0,1
699 687 m 0,26,27
 809 687 809 687 901 725.5 c 128,-1,28
 993 764 993 764 1059.5 830.5 c 128,-1,29
 1126 897 1126 897 1163 987 c 128,-1,30
 1200 1077 1200 1077 1200 1180 c 0,31,32
 1200 1285 1200 1285 1163 1375.5 c 128,-1,33
 1126 1466 1126 1466 1059 1532.5 c 128,-1,34
 992 1599 992 1599 900 1637 c 128,-1,35
 808 1675 808 1675 699 1675 c 0,36,37
 589 1675 589 1675 497.5 1637 c 128,-1,38
 406 1599 406 1599 339.5 1532.5 c 128,-1,39
 273 1466 273 1466 236 1375 c 128,-1,40
 199 1284 199 1284 199 1179 c 256,41,42
 199 1074 199 1074 235.5 984 c 128,-1,43
 272 894 272 894 338 828 c 128,-1,44
 404 762 404 762 496 724.5 c 128,-1,45
 588 687 588 687 699 687 c 0,26,27
750 1278 m 1,46,47
 785 1283 785 1283 801.5 1297 c 128,-1,48
 818 1311 818 1311 818 1338 c 0,49,50
 818 1358 818 1358 808 1371.5 c 128,-1,51
 798 1385 798 1385 775.5 1393.5 c 128,-1,52
 753 1402 753 1402 716 1405.5 c 128,-1,53
 679 1409 679 1409 625 1409 c 1,54,-1
 625 1231 l 1,55,56
 642 1231 642 1231 659 1230.5 c 128,-1,57
 676 1230 676 1230 693 1230 c 0,58,59
 722 1230 722 1230 736 1239.5 c 128,-1,60
 750 1249 750 1249 750 1278 c 1,46,47
837 843 m 1,61,-1
 660 1132 l 1,62,-1
 623 1132 l 1,63,-1
 623 862 l 1,64,-1
 502 862 l 1,65,-1
 502 1507 l 1,66,-1
 641 1507 l 2,67,68
 702 1507 702 1507 757.5 1499.5 c 128,-1,69
 813 1492 813 1492 854 1472 c 128,-1,70
 895 1452 895 1452 919.5 1417.5 c 128,-1,71
 944 1383 944 1383 944 1330 c 0,72,73
 944 1292 944 1292 935.5 1263 c 128,-1,74
 927 1234 927 1234 907.5 1212 c 128,-1,75
 888 1190 888 1190 856 1176 c 128,-1,76
 824 1162 824 1162 776 1154 c 1,77,-1
 949 901 l 1,78,-1
 837 843 l 1,61,-1
EndSplineSet
EndChar

StartChar: macron
Encoding: 65539 -1 115
Width: 1003
Flags: W
HStem: 98 117<98 780>
LayerCount: 2
Fore
SplineSet
98 215 m 1,0,-1
 780 215 l 1,1,-1
 780 98 l 1,2,-1
 98 98 l 1,3,-1
 98 215 l 1,0,-1
EndSplineSet
EndChar

StartChar: degree
Encoding: 176 176 116
Width: 812
Flags: W
HStem: 725 39<311.201 495.371> 1185 39<311.282 494.878>
VStem: 142 47<877.082 1071.88> 615 46<875.54 1072.36>
LayerCount: 2
Fore
SplineSet
189 974 m 256,0,1
 189 929 189 929 205.5 891 c 128,-1,2
 222 853 222 853 250.5 824.5 c 128,-1,3
 279 796 279 796 318.5 780 c 128,-1,4
 358 764 358 764 404 764 c 0,5,6
 449 764 449 764 488 780 c 128,-1,7
 527 796 527 796 555 824 c 128,-1,8
 583 852 583 852 599 890.5 c 128,-1,9
 615 929 615 929 615 974 c 256,10,11
 615 1019 615 1019 599 1058 c 128,-1,12
 583 1097 583 1097 554.5 1125 c 128,-1,13
 526 1153 526 1153 487.5 1169 c 128,-1,14
 449 1185 449 1185 404 1185 c 0,15,16
 358 1185 358 1185 318.5 1169 c 128,-1,17
 279 1153 279 1153 250.5 1124.5 c 128,-1,18
 222 1096 222 1096 205.5 1057.5 c 128,-1,19
 189 1019 189 1019 189 974 c 256,0,1
403 1224 m 0,20,21
 457 1224 457 1224 504 1205 c 128,-1,22
 551 1186 551 1186 586 1152.5 c 128,-1,23
 621 1119 621 1119 641 1072.5 c 128,-1,24
 661 1026 661 1026 661 972 c 0,25,26
 661 917 661 917 639.5 871.5 c 128,-1,27
 618 826 618 826 582 793.5 c 128,-1,28
 546 761 546 761 498.5 743 c 128,-1,29
 451 725 451 725 398 725 c 0,30,31
 346 725 346 725 299.5 744.5 c 128,-1,32
 253 764 253 764 218 798.5 c 128,-1,33
 183 833 183 833 162.5 878.5 c 128,-1,34
 142 924 142 924 142 977 c 256,35,36
 142 1030 142 1030 163.5 1075 c 128,-1,37
 185 1120 185 1120 221 1153 c 128,-1,38
 257 1186 257 1186 304 1205 c 128,-1,39
 351 1224 351 1224 403 1224 c 0,20,21
EndSplineSet
EndChar

StartChar: plusminus
Encoding: 177 177 117
Width: 1155
Flags: W
HStem: -28 187<225 984> 685 205<195 494 713 1014>
VStem: 494 219<331 685 890 1242>
LayerCount: 2
Fore
SplineSet
225 -28 m 1,0,-1
 225 159 l 1,1,-1
 984 159 l 1,2,-1
 984 -28 l 1,3,-1
 225 -28 l 1,0,-1
713 685 m 1,4,-1
 713 331 l 1,5,-1
 494 331 l 1,6,-1
 494 685 l 1,7,-1
 195 685 l 1,8,-1
 195 890 l 1,9,-1
 494 890 l 1,10,-1
 494 1242 l 1,11,-1
 713 1242 l 1,12,-1
 713 890 l 1,13,-1
 1014 890 l 1,14,-1
 1014 685 l 1,15,-1
 713 685 l 1,4,-1
EndSplineSet
EndChar

StartChar: uni00B2
Encoding: 178 178 118
Width: 1126
Flags: W
HStem: 668 152<485 891> 1500 138<295.062 697.491>
VStem: 747 172<1223.75 1459.24>
DStem2: 354 1612 371 1474 0.978716 0.205218<-86.3479 183.034> 524 1045 485 820 0.744503 0.667619<-179.25 329.827>
LayerCount: 2
Fore
SplineSet
253 805 m 1,0,-1
 524 1045 l 2,1,2
 592 1105 592 1105 635.5 1148 c 128,-1,3
 679 1191 679 1191 703.5 1225 c 128,-1,4
 728 1259 728 1259 737.5 1289 c 128,-1,5
 747 1319 747 1319 747 1354 c 0,6,7
 747 1424 747 1424 699 1462 c 128,-1,8
 651 1500 651 1500 566 1500 c 0,9,10
 518 1500 518 1500 466.5 1492 c 128,-1,11
 415 1484 415 1484 371 1474 c 0,12,13
 320 1463 320 1463 270 1448 c 1,14,-1
 270 1586 l 1,15,16
 306 1601 306 1601 354 1612 c 0,17,18
 395 1622 395 1622 451 1630 c 128,-1,19
 507 1638 507 1638 576 1638 c 0,20,21
 676 1638 676 1638 742 1610 c 128,-1,22
 808 1582 808 1582 847.5 1540 c 128,-1,23
 887 1498 887 1498 903 1448.5 c 128,-1,24
 919 1399 919 1399 919 1357 c 0,25,26
 919 1309 919 1309 907 1266.5 c 128,-1,27
 895 1224 895 1224 867 1180.5 c 128,-1,28
 839 1137 839 1137 792.5 1089 c 128,-1,29
 746 1041 746 1041 676 982 c 2,30,-1
 485 820 l 1,31,-1
 891 820 l 1,32,-1
 891 668 l 1,33,-1
 253 668 l 1,34,-1
 253 805 l 1,0,-1
EndSplineSet
EndChar

StartChar: uni00B3
Encoding: 179 179 119
Width: 1208
Flags: W
HStem: 540 132<414.711 782.79> 1142 65<679 811> 1541 136<402.424 775.782>
VStem: 832 154<1274.25 1491.54> 851 166<737.132 983.917>
DStem2: 352.5 1622.5 426.5 1505.5 0.945934 0.324359<-23.7642 214.393>
LayerCount: 2
Fore
SplineSet
351 745 m 1,0,1
 376 733 376 733 406.5 720 c 128,-1,2
 437 707 437 707 472.5 696.5 c 128,-1,3
 508 686 508 686 548 679 c 128,-1,4
 588 672 588 672 631 672 c 0,5,6
 679 672 679 672 719.5 685 c 128,-1,7
 760 698 760 698 789.5 721.5 c 128,-1,8
 819 745 819 745 835 778.5 c 128,-1,9
 851 812 851 812 851 853 c 0,10,11
 851 947 851 947 788 1002 c 128,-1,12
 725 1057 725 1057 589 1072 c 1,13,-1
 589 1207 l 1,14,15
 635 1207 635 1207 679 1217.5 c 128,-1,16
 723 1228 723 1228 757 1249.5 c 128,-1,17
 791 1271 791 1271 811.5 1304.5 c 128,-1,18
 832 1338 832 1338 832 1383 c 0,19,20
 832 1458 832 1458 777.5 1499.5 c 128,-1,21
 723 1541 723 1541 608 1541 c 0,22,23
 579 1541 579 1541 548 1536.5 c 128,-1,24
 517 1532 517 1532 486 1524 c 128,-1,25
 455 1516 455 1516 426.5 1505.5 c 128,-1,26
 398 1495 398 1495 374 1484 c 1,27,-1
 327 1611 l 1,28,29
 329 1612 329 1612 352.5 1622.5 c 128,-1,30
 376 1633 376 1633 415 1645 c 128,-1,31
 454 1657 454 1657 505 1667 c 128,-1,32
 556 1677 556 1677 613 1677 c 0,33,34
 650 1677 650 1677 692 1671.5 c 128,-1,35
 734 1666 734 1666 775.5 1653.5 c 128,-1,36
 817 1641 817 1641 855 1620 c 128,-1,37
 893 1599 893 1599 922 1567.5 c 128,-1,38
 951 1536 951 1536 968.5 1493 c 128,-1,39
 986 1450 986 1450 986 1394 c 0,40,41
 986 1324 986 1324 958.5 1276 c 128,-1,42
 931 1228 931 1228 892 1198 c 128,-1,43
 853 1168 853 1168 811 1155 c 128,-1,44
 769 1142 769 1142 741 1142 c 1,45,46
 766 1137 766 1137 796.5 1127.5 c 128,-1,47
 827 1118 827 1118 857.5 1102.5 c 128,-1,48
 888 1087 888 1087 917 1063.5 c 128,-1,49
 946 1040 946 1040 968 1007.5 c 128,-1,50
 990 975 990 975 1003.5 932.5 c 128,-1,51
 1017 890 1017 890 1017 835 c 0,52,53
 1017 758 1017 758 982 702 c 128,-1,54
 947 646 947 646 891 610 c 128,-1,55
 835 574 835 574 765.5 557 c 128,-1,56
 696 540 696 540 628 540 c 0,57,58
 537 540 537 540 455.5 559 c 128,-1,59
 374 578 374 578 300 618 c 1,60,-1
 351 745 l 1,0,1
EndSplineSet
EndChar

StartChar: acute
Encoding: 180 180 120
Width: 1113
Flags: W
HStem: 122 673
VStem: 456 461
LayerCount: 2
Fore
SplineSet
456 173 m 1,0,-1
 640 795 l 1,1,-1
 917 674 l 1,2,-1
 565 122 l 1,3,-1
 456 173 l 1,0,-1
EndSplineSet
EndChar

StartChar: uni00B5
Encoding: 181 181 121
Width: 1320
Flags: W
HStem: -20 143<457.493 805.168>
VStem: 185 174<-291 113 229.619 1169> 958 208<232.308 1169> 1020 146<16 107.989>
LayerCount: 2
Fore
SplineSet
185 1169 m 1,0,-1
 359 1169 l 1,1,-1
 359 442 l 2,2,3
 359 123 359 123 611 123 c 0,4,5
 681 123 681 123 740 142 c 128,-1,6
 799 161 799 161 844.5 186.5 c 128,-1,7
 890 212 890 212 919 237 c 128,-1,8
 948 262 948 262 958 274 c 1,9,-1
 958 1169 l 1,10,-1
 1166 1169 l 1,11,-1
 1166 16 l 1,12,-1
 1020 16 l 1,13,-1
 996 170 l 1,14,15
 825 -20 825 -20 599 -20 c 0,16,17
 553 -20 553 -20 515 -6.5 c 128,-1,18
 477 7 477 7 447 27.5 c 128,-1,19
 417 48 417 48 395 71 c 128,-1,20
 373 94 373 94 359 113 c 1,21,-1
 359 -291 l 1,22,-1
 185 -291 l 1,23,-1
 185 1169 l 1,0,-1
EndSplineSet
EndChar

StartChar: paragraph
Encoding: 182 182 122
Width: 1400
Flags: W
HStem: 0 21G<637 865 1002 1227> 1453 148<865 1002>
VStem: 104 761<1024.52 1408.02> 637 228<0 818> 1002 225<0 1453>
LayerCount: 2
Fore
SplineSet
1227 0 m 1,0,-1
 1002 0 l 1,1,-1
 1002 1453 l 1,2,-1
 865 1453 l 1,3,-1
 865 0 l 1,4,-1
 637 0 l 1,5,-1
 637 818 l 1,6,7
 533 818 533 818 436.5 836.5 c 128,-1,8
 340 855 340 855 266 901 c 128,-1,9
 192 947 192 947 148 1024.5 c 128,-1,10
 104 1102 104 1102 104 1220 c 0,11,12
 104 1303 104 1303 127.5 1363.5 c 128,-1,13
 151 1424 151 1424 192 1466.5 c 128,-1,14
 233 1509 233 1509 289 1535 c 128,-1,15
 345 1561 345 1561 409 1576 c 128,-1,16
 473 1591 473 1591 543 1596 c 128,-1,17
 613 1601 613 1601 682 1601 c 2,18,-1
 1227 1601 l 1,19,-1
 1227 0 l 1,0,-1
EndSplineSet
EndChar

StartChar: periodcentered
Encoding: 183 183 123
Width: 579
Flags: W
HStem: 522 332<169.908 395.086>
VStem: 118 329<574.064 802.374>
LayerCount: 2
Fore
SplineSet
118 688 m 256,0,1
 118 722 118 722 130.5 752 c 128,-1,2
 143 782 143 782 165 804.5 c 128,-1,3
 187 827 187 827 217 840.5 c 128,-1,4
 247 854 247 854 282 854 c 256,5,6
 317 854 317 854 347.5 840.5 c 128,-1,7
 378 827 378 827 400 804.5 c 128,-1,8
 422 782 422 782 434.5 752 c 128,-1,9
 447 722 447 722 447 688 c 256,10,11
 447 654 447 654 434.5 624 c 128,-1,12
 422 594 422 594 400 571.5 c 128,-1,13
 378 549 378 549 347.5 535.5 c 128,-1,14
 317 522 317 522 282 522 c 256,15,16
 247 522 247 522 217 535 c 128,-1,17
 187 548 187 548 165 570.5 c 128,-1,18
 143 593 143 593 130.5 623.5 c 128,-1,19
 118 654 118 654 118 688 c 256,0,1
EndSplineSet
EndChar

StartChar: cedilla
Encoding: 184 184 124
Width: 627
Flags: W
HStem: -632 133<304.188 589.161> -476 20G<298 314.5> -232 102<475 563.818>
VStem: 349 126<-130 50> 609 166<-481.474 -277.094>
LayerCount: 2
Fore
SplineSet
298 -456 m 1,0,1
 331 -468 331 -468 364 -478 c 0,2,3
 392 -486 392 -486 422.5 -492.5 c 128,-1,4
 453 -499 453 -499 476 -499 c 0,5,6
 506 -499 506 -499 530.5 -494.5 c 128,-1,7
 555 -490 555 -490 572.5 -477 c 128,-1,8
 590 -464 590 -464 599.5 -439.5 c 128,-1,9
 609 -415 609 -415 609 -376 c 0,10,11
 609 -298 609 -298 546 -265 c 128,-1,12
 483 -232 483 -232 349 -232 c 1,13,-1
 359 50 l 1,14,-1
 481 50 l 1,15,-1
 475 -130 l 1,16,17
 527 -130 527 -130 580.5 -143 c 128,-1,18
 634 -156 634 -156 677.5 -185 c 128,-1,19
 721 -214 721 -214 748 -261 c 128,-1,20
 775 -308 775 -308 775 -376 c 0,21,22
 775 -497 775 -497 705.5 -564.5 c 128,-1,23
 636 -632 636 -632 500 -632 c 0,24,25
 462 -632 462 -632 429.5 -626 c 128,-1,26
 397 -620 397 -620 371 -612 c 128,-1,27
 345 -604 345 -604 326.5 -596 c 128,-1,28
 308 -588 308 -588 298 -585 c 1,29,-1
 298 -456 l 1,0,1
EndSplineSet
EndChar

StartChar: uni00B9
Encoding: 185 185 125
Width: 740
Flags: W
VStem: 327 169<478 1304>
DStem2: 119 1345 156 1232 0.928206 0.372066<0 177.812>
LayerCount: 2
Fore
SplineSet
327 1304 m 1,0,-1
 156 1232 l 1,1,-1
 119 1345 l 1,2,-1
 356 1440 l 1,3,-1
 496 1414 l 1,4,-1
 496 478 l 1,5,-1
 327 478 l 1,6,-1
 327 1304 l 1,0,-1
EndSplineSet
EndChar

StartChar: ordmasculine
Encoding: 186 186 126
Width: 1266
Flags: W
HStem: 446 129<300 984> 670 127<488.239 788.38> 1512 126<487.766 787.675>
VStem: 214 157<928.244 1379.51> 905 158<927.281 1379.01>
LayerCount: 2
Fore
SplineSet
638 670 m 0,0,1
 530 670 530 670 450.5 707.5 c 128,-1,2
 371 745 371 745 318.5 810 c 128,-1,3
 266 875 266 875 240 963 c 128,-1,4
 214 1051 214 1051 214 1152 c 0,5,6
 214 1251 214 1251 239.5 1339 c 128,-1,7
 265 1427 265 1427 317.5 1493.5 c 128,-1,8
 370 1560 370 1560 449.5 1599 c 128,-1,9
 529 1638 529 1638 638 1638 c 256,10,11
 747 1638 747 1638 827 1599 c 128,-1,12
 907 1560 907 1560 959.5 1493.5 c 128,-1,13
 1012 1427 1012 1427 1037.5 1339 c 128,-1,14
 1063 1251 1063 1251 1063 1152 c 0,15,16
 1063 1052 1063 1052 1037.5 964.5 c 128,-1,17
 1012 877 1012 877 959.5 811.5 c 128,-1,18
 907 746 907 746 827 708 c 128,-1,19
 747 670 747 670 638 670 c 0,0,1
638 797 m 256,20,21
 710 797 710 797 760.5 823.5 c 128,-1,22
 811 850 811 850 843 897.5 c 128,-1,23
 875 945 875 945 890 1010.5 c 128,-1,24
 905 1076 905 1076 905 1154 c 0,25,26
 905 1230 905 1230 890 1295.5 c 128,-1,27
 875 1361 875 1361 843 1409 c 128,-1,28
 811 1457 811 1457 760.5 1484.5 c 128,-1,29
 710 1512 710 1512 638 1512 c 256,30,31
 566 1512 566 1512 515.5 1485 c 128,-1,32
 465 1458 465 1458 433 1410 c 128,-1,33
 401 1362 401 1362 386 1296.5 c 128,-1,34
 371 1231 371 1231 371 1154 c 256,35,36
 371 1077 371 1077 386 1011.5 c 128,-1,37
 401 946 401 946 433 898.5 c 128,-1,38
 465 851 465 851 515.5 824 c 128,-1,39
 566 797 566 797 638 797 c 256,20,21
300 575 m 1,40,-1
 984 575 l 1,41,-1
 984 446 l 1,42,-1
 300 446 l 1,43,-1
 300 575 l 1,40,-1
EndSplineSet
EndChar

StartChar: guillemotright
Encoding: 187 187 127
Width: 1739
Flags: W
HStem: 23 277<171 448 888 1165> 865 277<171 448 888 1165>
DStem2: 171 300 171 23 0.847137 0.531375<0 550.975> 888 300 888 23 0.847469 0.530845<0 551.827>
LayerCount: 2
Fore
SplineSet
171 1142 m 1,0,-1
 890 691 l 1,1,-1
 890 474 l 1,2,-1
 171 23 l 1,3,-1
 171 300 l 1,4,-1
 642 586 l 1,5,-1
 171 865 l 1,6,-1
 171 1142 l 1,0,-1
888 1142 m 1,7,-1
 1608 691 l 1,8,-1
 1608 474 l 1,9,-1
 888 23 l 1,10,-1
 888 300 l 1,11,-1
 1360 586 l 1,12,-1
 888 865 l 1,13,-1
 888 1142 l 1,7,-1
EndSplineSet
EndChar

StartChar: onequarter
Encoding: 188 188 128
Width: 1925
Flags: W
HStem: 66 161<1174 1459 1657 1804>
VStem: 305 216<495 1286> 1464 193<-178 66 228 656>
DStem2: 346 -30 519 -117 0.508421 0.861109<13.0403 1746.27> 937 227 1174 227 0.579742 0.8148<137.399 655.073>
LayerCount: 2
Fore
SplineSet
1464 227 m 1,0,-1
 1464 656 l 1,1,-1
 1174 227 l 1,2,-1
 1464 227 l 1,0,-1
1657 957 m 1,3,-1
 1657 228 l 1,4,-1
 1804 228 l 1,5,-1
 1804 66 l 1,6,-1
 1657 66 l 1,7,-1
 1657 -178 l 1,8,-1
 1459 -190 l 1,9,-1
 1459 66 l 1,10,-1
 965 66 l 1,11,-1
 937 227 l 1,12,-1
 1487 1000 l 1,13,-1
 1657 957 l 1,3,-1
1230 1476 m 1,14,-1
 1407 1387 l 1,15,-1
 519 -117 l 1,16,-1
 346 -30 l 1,17,-1
 1230 1476 l 1,14,-1
305 1286 m 1,18,-1
 156 1222 l 1,19,-1
 98 1366 l 1,20,-1
 364 1471 l 1,21,-1
 521 1438 l 1,22,-1
 521 495 l 1,23,-1
 305 495 l 1,24,-1
 305 1286 l 1,18,-1
EndSplineSet
EndChar

StartChar: onehalf
Encoding: 189 189 129
Width: 2110
Flags: W
HStem: -37 186<1578 1935> 760 179<1363.94 1696.23>
VStem: 333 216<495 1286> 1738 223<511.508 728.25>
DStem2: 361 -30 534 -117 0.508421 0.861109<13.0403 1746.27> 1259 861 1296 691 0.932847 0.360272<0 262.179> 1399.5 240.5 1578 149 0.753491 0.657458<74.3408 482.614>
LayerCount: 2
Fore
SplineSet
1738 630 m 0,0,1
 1738 695 1738 695 1697.5 727.5 c 128,-1,2
 1657 760 1657 760 1580 760 c 0,3,4
 1550 760 1550 760 1511 753 c 128,-1,5
 1472 746 1472 746 1432.5 735.5 c 128,-1,6
 1393 725 1393 725 1357 713 c 128,-1,7
 1321 701 1321 701 1296 691 c 1,8,-1
 1259 861 l 1,9,10
 1294 875 1294 875 1331.5 889 c 128,-1,11
 1369 903 1369 903 1411 914 c 128,-1,12
 1453 925 1453 925 1499 932 c 128,-1,13
 1545 939 1545 939 1598 939 c 0,14,15
 1684 939 1684 939 1751.5 917 c 128,-1,16
 1819 895 1819 895 1865.5 856.5 c 128,-1,17
 1912 818 1912 818 1936.5 765.5 c 128,-1,18
 1961 713 1961 713 1961 651 c 0,19,20
 1961 602 1961 602 1949.5 559.5 c 128,-1,21
 1938 517 1938 517 1911.5 474.5 c 128,-1,22
 1885 432 1885 432 1841.5 385.5 c 128,-1,23
 1798 339 1798 339 1733 283 c 2,24,-1
 1578 149 l 1,25,-1
 1935 149 l 1,26,-1
 1935 -37 l 1,27,-1
 1262 -37 l 1,28,-1
 1262 121 l 1,29,30
 1331 181 1331 181 1399.5 240.5 c 128,-1,31
 1468 300 1468 300 1537 360 c 0,32,33
 1582 399 1582 399 1619 432.5 c 128,-1,34
 1656 466 1656 466 1682.5 497.5 c 128,-1,35
 1709 529 1709 529 1723.5 561.5 c 128,-1,36
 1738 594 1738 594 1738 630 c 0,0,1
333 1286 m 1,37,-1
 184 1222 l 1,38,-1
 126 1366 l 1,39,-1
 392 1471 l 1,40,-1
 549 1438 l 1,41,-1
 549 495 l 1,42,-1
 333 495 l 1,43,-1
 333 1286 l 1,37,-1
1245 1476 m 1,44,-1
 1422 1387 l 1,45,-1
 534 -117 l 1,46,-1
 361 -30 l 1,47,-1
 1245 1476 l 1,44,-1
EndSplineSet
EndChar

StartChar: threequarters
Encoding: 190 190 130
Width: 2174
Flags: W
HStem: 66 161<1407 1707 1895 2042> 480 172<245.102 601.881> 994 169<401 568.617> 1441 175<252.823 588.552>
VStem: 636 205<1219.37 1407.28> 655 216<698.148 918.269> 1711 184<-178 66 227 661>
DStem2: 205 715 145 547 0.917184 -0.398463<11.9108 258.67> 256.5 1585.5 341 1424 0.973247 0.229761<-80.1687 160.201> 303 677 297 497.5 0.98199 -0.188932<-102.971 158.558> 584 -30 757 -117 0.507996 0.861359<12.945 1743.23> 1175 204 1407 227 0.567757 0.823196<150.653 680.518>
LayerCount: 2
Fore
SplineSet
1711 227 m 1,0,-1
 1711 661 l 1,1,-1
 1407 227 l 1,2,-1
 1711 227 l 1,0,-1
1895 957 m 1,3,-1
 1895 227 l 1,4,-1
 2042 227 l 1,5,-1
 2042 66 l 1,6,-1
 1895 66 l 1,7,-1
 1895 -178 l 1,8,-1
 1707 -190 l 1,9,-1
 1707 66 l 1,10,-1
 1203 66 l 1,11,-1
 1175 204 l 1,12,-1
 1724 1000 l 1,13,-1
 1895 957 l 1,3,-1
1462 1476 m 1,14,-1
 1644 1387 l 1,15,-1
 757 -117 l 1,16,-1
 584 -30 l 1,17,-1
 1462 1476 l 1,14,-1
636 1316 m 1,18,19
 636 1377 636 1377 590 1409 c 128,-1,20
 544 1441 544 1441 456 1441 c 0,21,22
 431 1441 431 1441 401.5 1436.5 c 128,-1,23
 372 1432 372 1432 341 1424 c 128,-1,24
 310 1416 310 1416 279 1405.5 c 128,-1,25
 248 1395 248 1395 221 1383 c 1,26,-1
 151 1541 l 1,27,28
 162 1548 162 1548 189.5 1560.5 c 128,-1,29
 217 1573 217 1573 256.5 1585.5 c 128,-1,30
 296 1598 296 1598 345 1607 c 128,-1,31
 394 1616 394 1616 448 1616 c 0,32,33
 521 1616 521 1616 591.5 1602 c 128,-1,34
 662 1588 662 1588 717.5 1553.5 c 128,-1,35
 773 1519 773 1519 807 1462 c 128,-1,36
 841 1405 841 1405 841 1319 c 0,37,38
 841 1265 841 1265 821.5 1222.5 c 128,-1,39
 802 1180 802 1180 771.5 1150 c 128,-1,40
 741 1120 741 1120 704.5 1102 c 128,-1,41
 668 1084 668 1084 635 1079 c 1,42,43
 675 1070 675 1070 716.5 1048.5 c 128,-1,44
 758 1027 758 1027 792.5 992.5 c 128,-1,45
 827 958 827 958 849 910 c 128,-1,46
 871 862 871 862 871 799 c 0,47,48
 871 712 871 712 835.5 651.5 c 128,-1,49
 800 591 800 591 741.5 552.5 c 128,-1,50
 683 514 683 514 606.5 497 c 128,-1,51
 530 480 530 480 448 480 c 0,52,53
 414 480 414 480 375.5 484.5 c 128,-1,54
 337 489 337 489 297 497.5 c 128,-1,55
 257 506 257 506 218 518.5 c 128,-1,56
 179 531 179 531 145 547 c 1,57,-1
 205 715 l 1,58,59
 218 708 218 708 243.5 697.5 c 128,-1,60
 269 687 269 687 303 677 c 128,-1,61
 337 667 337 667 377.5 659.5 c 128,-1,62
 418 652 418 652 461 652 c 0,63,64
 552 652 552 652 603.5 691.5 c 128,-1,65
 655 731 655 731 655 806 c 0,66,67
 655 891 655 891 586.5 938.5 c 128,-1,68
 518 986 518 986 401 994 c 1,69,-1
 401 1163 l 1,70,71
 446 1163 446 1163 488 1171.5 c 128,-1,72
 530 1180 530 1180 562.5 1198.5 c 128,-1,73
 595 1217 595 1217 615 1246 c 128,-1,74
 635 1275 635 1275 636 1316 c 1,18,19
EndSplineSet
EndChar

StartChar: questiondown
Encoding: 191 191 131
Width: 1213
Flags: W
HStem: -54 221<461.667 923.747> 1263 280<660.164 804.91> 1291.5 280.5<709.152 853.06>
VStem: 125 269<229.332 485.951> 610 267.5<1365.12 1521.51> 638 255<836.493 1172 1304.93 1469.75>
LayerCount: 2
Fore
SplineSet
905 1363 m 1,0,1
 879 1320 879 1320 827.5 1291.5 c 128,-1,2
 776 1263 776 1263 707 1263 c 1,3,4
 665 1290 665 1290 637.5 1345 c 128,-1,5
 610 1400 610 1400 610 1472 c 1,6,7
 635 1514 635 1514 687.5 1543 c 128,-1,8
 740 1572 740 1572 807 1572 c 1,9,10
 850 1544 850 1544 877.5 1487.5 c 128,-1,11
 905 1431 905 1431 905 1363 c 1,0,1
394 356 m 0,12,13
 394 299 394 299 414 262.5 c 128,-1,14
 434 226 434 226 470 205 c 128,-1,15
 506 184 506 184 557 175.5 c 128,-1,16
 608 167 608 167 670 167 c 256,17,18
 732 167 732 167 793.5 179 c 128,-1,19
 855 191 855 191 904.5 206 c 128,-1,20
 954 221 954 221 985 233.5 c 128,-1,21
 1016 246 1016 246 1016 247 c 2,22,-1
 1088 44 l 1,23,24
 1063 31 1063 31 1020.5 14 c 128,-1,25
 978 -3 978 -3 922 -18 c 128,-1,26
 866 -33 866 -33 798 -43.5 c 128,-1,27
 730 -54 730 -54 654 -54 c 0,28,29
 543 -54 543 -54 446.5 -32 c 128,-1,30
 350 -10 350 -10 278.5 37.5 c 128,-1,31
 207 85 207 85 166 159 c 128,-1,32
 125 233 125 233 125 338 c 0,33,34
 125 418 125 418 155.5 493 c 128,-1,35
 186 568 186 568 249 634 c 128,-1,36
 312 700 312 700 409 755 c 128,-1,37
 506 810 506 810 638 851 c 1,38,-1
 638 1172 l 1,39,-1
 893 1172 l 1,40,-1
 893 721 l 1,41,42
 794 687 794 687 703.5 652.5 c 128,-1,43
 613 618 613 618 544.5 576 c 128,-1,44
 476 534 476 534 435 481 c 128,-1,45
 394 428 394 428 394 356 c 0,12,13
EndSplineSet
EndChar

StartChar: AE
Encoding: 198 198 138
Width: 1982
Flags: W
HStem: 0 189<1214 1901> 365 149<549 945> 764 165<1214 1814> 1412 190<1213 1882>
VStem: 945 269<189 365 514 764 929 1412>
DStem2: 46 0 336 0 0.415599 0.909548<120.524 518.173 676.554 1179.79>
LayerCount: 2
Fore
SplineSet
945 1421 m 1,0,-1
 549 514 l 1,1,-1
 945 514 l 1,2,-1
 945 1421 l 1,0,-1
1882 1412 m 1,3,-1
 1213 1412 l 1,4,-1
 1213 929 l 1,5,-1
 1814 929 l 1,6,-1
 1814 764 l 1,7,-1
 1214 764 l 1,8,-1
 1214 189 l 1,9,-1
 1901 189 l 1,10,-1
 1901 0 l 1,11,-1
 946 0 l 1,12,-1
 946 365 l 1,13,-1
 494 365 l 1,14,-1
 336 0 l 1,15,-1
 46 0 l 1,16,-1
 778 1602 l 1,17,-1
 1882 1602 l 1,18,-1
 1882 1412 l 1,3,-1
EndSplineSet
EndChar

StartChar: Eth
Encoding: 208 208 148
Width: 1544
Flags: W
HStem: 0 189<447 911.094> 734 185<-3 160 447 699> 1417 185<447 747>
VStem: 160 287<189 734 919 1417> 1148 291<465.833 1138.6>
LayerCount: 2
Fore
SplineSet
1148 798 m 0,0,1
 1148 925 1148 925 1132 1032.5 c 128,-1,2
 1116 1140 1116 1140 1071.5 1221 c 128,-1,3
 1027 1302 1027 1302 949 1351.5 c 128,-1,4
 871 1401 871 1401 747 1411 c 0,5,6
 715 1413 715 1413 682 1415 c 128,-1,7
 649 1417 649 1417 614 1417 c 2,8,-1
 447 1417 l 1,9,-1
 447 919 l 1,10,-1
 699 919 l 1,11,-1
 699 734 l 1,12,-1
 447 734 l 1,13,-1
 447 189 l 1,14,-1
 614 189 l 2,15,16
 684 189 684 189 746 195 c 1,17,18
 872 205 872 205 950.5 253.5 c 128,-1,19
 1029 302 1029 302 1073 381.5 c 128,-1,20
 1117 461 1117 461 1132.5 567 c 128,-1,21
 1148 673 1148 673 1148 798 c 0,0,1
1439 796 m 0,22,23
 1439 618 1439 618 1396 471.5 c 128,-1,24
 1353 325 1353 325 1262.5 220 c 128,-1,25
 1172 115 1172 115 1031 57.5 c 128,-1,26
 890 0 890 0 694 0 c 2,27,-1
 160 0 l 1,28,-1
 160 734 l 1,29,-1
 -3 734 l 1,30,-1
 -3 919 l 1,31,-1
 160 919 l 1,32,-1
 160 1602 l 1,33,-1
 694 1602 l 2,34,35
 886 1602 886 1602 1026.5 1548 c 128,-1,36
 1167 1494 1167 1494 1258.5 1391 c 128,-1,37
 1350 1288 1350 1288 1394.5 1138 c 128,-1,38
 1439 988 1439 988 1439 796 c 0,22,23
EndSplineSet
EndChar

StartChar: multiply
Encoding: 215 215 155
Width: 1361
Flags: W
DStem2: 391 1003 246 850 0.716943 -0.697132<2.70457 422.067 639.3 1059.36> 246 265 391 111 0.716943 0.697132<0 420.059 637.293 1056.66>
LayerCount: 2
Fore
SplineSet
391 1003 m 1,0,-1
 698 704 l 1,1,-1
 1006 1003 l 1,2,-1
 1151 850 l 1,3,-1
 850 558 l 1,4,-1
 1151 265 l 1,5,-1
 1006 111 l 1,6,-1
 698 411 l 1,7,-1
 391 111 l 1,8,-1
 246 265 l 1,9,-1
 547 558 l 1,10,-1
 246 850 l 1,11,-1
 391 1003 l 1,0,-1
EndSplineSet
EndChar

StartChar: Oslash
Encoding: 216 216 156
Width: 1596
Flags: W
HStem: -35 213<650.987 988.357> 1418 213<605.958 989.892>
VStem: 104 291<580.531 1151.89> 1201 290<445.567 1150.47>
DStem2: 373 -120 493 -166 0.392971 0.919551<4.85712 185.225 427.929 1557.55 1841.31 2034.72>
LayerCount: 2
Fore
SplineSet
443 45 m 1,0,1
 364 88 364 88 301 154.5 c 128,-1,2
 238 221 238 221 194.5 313.5 c 128,-1,3
 151 406 151 406 127.5 526.5 c 128,-1,4
 104 647 104 647 104 798 c 0,5,6
 104 954 104 954 129.5 1077 c 128,-1,7
 155 1200 155 1200 201.5 1292.5 c 128,-1,8
 248 1385 248 1385 311.5 1449.5 c 128,-1,9
 375 1514 375 1514 451.5 1554.5 c 128,-1,10
 528 1595 528 1595 614 1613 c 128,-1,11
 700 1631 700 1631 790 1631 c 0,12,13
 878 1631 878 1631 954.5 1617 c 128,-1,14
 1031 1603 1031 1603 1099 1574 c 1,15,-1
 1175 1750 l 1,16,-1
 1293 1706 l 1,17,-1
 1210 1513 l 1,18,19
 1283 1462 1283 1462 1336 1389 c 128,-1,20
 1389 1316 1389 1316 1423.5 1225 c 128,-1,21
 1458 1134 1458 1134 1474.5 1026.5 c 128,-1,22
 1491 919 1491 919 1491 798 c 0,23,24
 1491 614 1491 614 1452 461 c 128,-1,25
 1413 308 1413 308 1329 197.5 c 128,-1,26
 1245 87 1245 87 1113.5 26 c 128,-1,27
 982 -35 982 -35 797 -35 c 0,28,29
 737 -35 737 -35 678.5 -28.5 c 128,-1,30
 620 -22 620 -22 563 -3 c 1,31,-1
 493 -166 l 1,32,-1
 373 -120 l 1,33,-1
 443 45 l 1,0,1
650 203 m 1,34,35
 664 199 664 199 702 188.5 c 128,-1,36
 740 178 740 178 798 178 c 0,37,38
 920 178 920 178 998.5 228.5 c 128,-1,39
 1077 279 1077 279 1122 364.5 c 128,-1,40
 1167 450 1167 450 1184 562 c 128,-1,41
 1201 674 1201 674 1201 798 c 0,42,43
 1201 953 1201 953 1178.5 1066 c 128,-1,44
 1156 1179 1156 1179 1105 1261 c 1,45,-1
 650 203 l 1,34,35
448 569 m 1,46,47
 449 539 449 539 451.5 500 c 128,-1,48
 454 461 454 461 463.5 420.5 c 128,-1,49
 473 380 473 380 491 341.5 c 128,-1,50
 509 303 509 303 540 274 c 1,51,-1
 1009 1362 l 1,52,53
 965 1392 965 1392 912.5 1405 c 128,-1,54
 860 1418 860 1418 801 1418 c 0,55,56
 679 1418 679 1418 600.5 1370 c 128,-1,57
 522 1322 522 1322 476.5 1238 c 128,-1,58
 431 1154 431 1154 413 1041 c 128,-1,59
 395 928 395 928 395 798 c 0,60,61
 395 728 395 728 406 668 c 128,-1,62
 417 608 417 608 448 569 c 1,46,47
EndSplineSet
EndChar

StartChar: Thorn
Encoding: 222 222 162
Width: 1417
Flags: W
HStem: 337 206<463.66 906.853> 1224 191<510.028 891.142> 1582 20G<155 423>
VStem: 155 278<-113 402 570.498 1188 1340 1602> 999 268<643.482 1110.8>
DStem2: 585.5 1394.5 433 1188 0.983561 0.180576<-168.466 86.3189>
LayerCount: 2
Fore
SplineSet
999 876 m 0,0,1
 999 964 999 964 984.5 1029.5 c 128,-1,2
 970 1095 970 1095 936 1138.5 c 128,-1,3
 902 1182 902 1182 846 1203 c 128,-1,4
 790 1224 790 1224 707 1224 c 0,5,6
 629 1224 629 1224 561 1211.5 c 128,-1,7
 493 1199 493 1199 433 1188 c 1,8,-1
 433 579 l 1,9,10
 515 562 515 562 584.5 552.5 c 128,-1,11
 654 543 654 543 714 543 c 0,12,13
 740 543 740 543 765 545 c 128,-1,14
 790 547 790 547 814 551 c 0,15,16
 877 561 877 561 914 594 c 128,-1,17
 951 627 951 627 969.5 673 c 128,-1,18
 988 719 988 719 993.5 772.5 c 128,-1,19
 999 826 999 826 999 876 c 0,0,1
654 337 m 0,20,21
 519 337 519 337 433 402 c 1,22,-1
 433 -113 l 1,23,-1
 155 -113 l 1,24,-1
 155 1602 l 1,25,-1
 423 1602 l 1,26,-1
 423 1340 l 1,27,28
 459 1357 459 1357 500.5 1371 c 128,-1,29
 542 1385 542 1385 585.5 1394.5 c 128,-1,30
 629 1404 629 1404 673.5 1409.5 c 128,-1,31
 718 1415 718 1415 760 1415 c 0,32,33
 771 1415 771 1415 781.5 1415 c 128,-1,34
 792 1415 792 1415 803 1414 c 0,35,36
 933 1404 933 1404 1022 1361.5 c 128,-1,37
 1111 1319 1111 1319 1165.5 1250 c 128,-1,38
 1220 1181 1220 1181 1243.5 1088 c 128,-1,39
 1267 995 1267 995 1267 883 c 0,40,41
 1267 755 1267 755 1231 653.5 c 128,-1,42
 1195 552 1195 552 1120 481.5 c 128,-1,43
 1045 411 1045 411 929 374 c 128,-1,44
 813 337 813 337 654 337 c 0,20,21
EndSplineSet
EndChar

StartChar: germandbls
Encoding: 223 223 163
Width: 1512
Flags: W
HStem: -166 223<593 904.583> 0 21G<155 443> 742 177<592 908.5> 1407 195<544.866 921.558>
VStem: 155 288<0 1294.45> 1004 253<1005.77 1329.4> 1150 280<233.758 570.386>
LayerCount: 2
Fore
SplineSet
592 742 m 1,0,1
 592 753 592 753 591.5 765.5 c 128,-1,2
 591 778 591 778 591 797.5 c 128,-1,3
 591 817 591 817 591 846 c 128,-1,4
 591 875 591 875 591 919 c 1,5,6
 703 919 703 919 781.5 927.5 c 128,-1,7
 860 936 860 936 909.5 963.5 c 128,-1,8
 959 991 959 991 981.5 1043.5 c 128,-1,9
 1004 1096 1004 1096 1004 1184 c 0,10,11
 1004 1241 1004 1241 988 1282.5 c 128,-1,12
 972 1324 972 1324 937 1352 c 128,-1,13
 902 1380 902 1380 846 1393.5 c 128,-1,14
 790 1407 790 1407 711 1407 c 0,15,16
 629 1407 629 1407 577 1382.5 c 128,-1,17
 525 1358 525 1358 495 1307.5 c 128,-1,18
 465 1257 465 1257 454 1179.5 c 128,-1,19
 443 1102 443 1102 443 996 c 2,20,-1
 443 0 l 1,21,-1
 155 0 l 1,22,-1
 155 1000 l 2,23,24
 155 1142 155 1142 184.5 1254 c 128,-1,25
 214 1366 214 1366 280 1443.5 c 128,-1,26
 346 1521 346 1521 452 1561.5 c 128,-1,27
 558 1602 558 1602 711 1602 c 0,28,29
 867 1602 867 1602 972 1567 c 128,-1,30
 1077 1532 1077 1532 1140 1474 c 128,-1,31
 1203 1416 1203 1416 1230 1340.5 c 128,-1,32
 1257 1265 1257 1265 1257 1184 c 0,33,34
 1257 1118 1257 1118 1239 1060 c 128,-1,35
 1221 1002 1221 1002 1184.5 957 c 128,-1,36
 1148 912 1148 912 1091.5 882 c 128,-1,37
 1035 852 1035 852 958 843 c 1,38,39
 1067 832 1067 832 1154.5 798.5 c 128,-1,40
 1242 765 1242 765 1303.5 708 c 128,-1,41
 1365 651 1365 651 1397.5 570 c 128,-1,42
 1430 489 1430 489 1430 382 c 0,43,44
 1430 279 1430 279 1396.5 198 c 128,-1,45
 1363 117 1363 117 1304 56 c 128,-1,46
 1245 -5 1245 -5 1165 -47 c 128,-1,47
 1085 -89 1085 -89 992 -115.5 c 128,-1,48
 899 -142 899 -142 797 -154 c 128,-1,49
 695 -166 695 -166 593 -166 c 1,50,-1
 593 57 l 1,51,52
 713 64 713 64 815 81 c 128,-1,53
 917 98 917 98 991.5 135.5 c 128,-1,54
 1066 173 1066 173 1108 237 c 128,-1,55
 1150 301 1150 301 1150 403 c 0,56,57
 1150 483 1150 483 1119.5 546 c 128,-1,58
 1089 609 1089 609 1022 652.5 c 128,-1,59
 955 696 955 696 849 719 c 128,-1,60
 743 742 743 742 592 742 c 1,0,1
EndSplineSet
EndChar

StartChar: ae
Encoding: 230 230 170
Width: 1900
Flags: W
HStem: -20 198<409.033 726.973 1213.29 1599.16> 542 147<1086 1586> 563 147<412.812 561.816 566.094 647.382 651.189 822> 576 155<432.312 821.28> 1005 201<357.174 768.579 1188.98 1504.09>
VStem: 95 264<227.183 509.354> 822 264<316.672 542 702 886.153> 1586 231<689 909.413>
LayerCount: 2
Fore
SplineSet
1586 689 m 1,0,1
 1586 782 1586 782 1567.5 845 c 128,-1,2
 1549 908 1549 908 1517 946.5 c 128,-1,3
 1485 985 1485 985 1442.5 1001 c 128,-1,4
 1400 1017 1400 1017 1351 1017 c 256,5,6
 1302 1017 1302 1017 1255 999.5 c 128,-1,7
 1208 982 1208 982 1171 943 c 128,-1,8
 1134 904 1134 904 1110.5 841.5 c 128,-1,9
 1087 779 1087 779 1086 689 c 1,10,-1
 1586 689 l 1,0,1
1760 90 m 1,11,12
 1741 76 1741 76 1699 57 c 128,-1,13
 1657 38 1657 38 1603 21 c 128,-1,14
 1549 4 1549 4 1488.5 -8 c 128,-1,15
 1428 -20 1428 -20 1372 -20 c 0,16,17
 1221 -20 1221 -20 1117 32 c 128,-1,18
 1013 84 1013 84 944 200 c 1,19,20
 909 146 909 146 860 104.5 c 128,-1,21
 811 63 811 63 753 35.5 c 128,-1,22
 695 8 695 8 629.5 -6.5 c 128,-1,23
 564 -21 564 -21 496 -21 c 0,24,25
 301 -21 301 -21 198 75.5 c 128,-1,26
 95 172 95 172 95 361 c 0,27,28
 95 459 95 459 130.5 529 c 128,-1,29
 166 599 166 599 228.5 644 c 128,-1,30
 291 689 291 689 377 710 c 128,-1,31
 463 731 463 731 565 731 c 0,32,33
 600 731 600 731 636 729 c 128,-1,34
 672 727 672 727 705.5 723 c 128,-1,35
 739 719 739 719 769 714 c 128,-1,36
 799 709 799 709 822 702 c 1,37,38
 822 780 822 780 817 837 c 128,-1,39
 812 894 812 894 791 931.5 c 128,-1,40
 770 969 770 969 728.5 987 c 128,-1,41
 687 1005 687 1005 614 1005 c 0,42,43
 552 1005 552 1005 487.5 992.5 c 128,-1,44
 423 980 423 980 368 963.5 c 128,-1,45
 313 947 313 947 274.5 930.5 c 128,-1,46
 236 914 236 914 226 907 c 1,47,-1
 167 1086 l 1,48,49
 182 1099 182 1099 229.5 1119.5 c 128,-1,50
 277 1140 277 1140 340.5 1159 c 128,-1,51
 404 1178 404 1178 476.5 1192 c 128,-1,52
 549 1206 549 1206 615 1206 c 0,53,54
 761 1206 761 1206 850.5 1162 c 128,-1,55
 940 1118 940 1118 982 1019 c 1,56,57
 1036 1114 1036 1114 1135 1160 c 128,-1,58
 1234 1206 1234 1206 1354 1206 c 0,59,60
 1465 1206 1465 1206 1551 1168 c 128,-1,61
 1637 1130 1637 1130 1696.5 1060.5 c 128,-1,62
 1756 991 1756 991 1786.5 894.5 c 128,-1,63
 1817 798 1817 798 1817 681 c 0,64,65
 1817 648 1817 648 1816 613 c 128,-1,66
 1815 578 1815 578 1813 542 c 1,67,-1
 1086 542 l 1,68,69
 1087 460 1087 460 1103 393 c 128,-1,70
 1119 326 1119 326 1154.5 278 c 128,-1,71
 1190 230 1190 230 1247 204 c 128,-1,72
 1304 178 1304 178 1386 178 c 0,73,74
 1437 178 1437 178 1485 188 c 128,-1,75
 1533 198 1533 198 1574 213 c 128,-1,76
 1615 228 1615 228 1646.5 245 c 128,-1,77
 1678 262 1678 262 1695 277 c 1,78,-1
 1760 90 l 1,11,12
359 376 m 0,79,80
 359 270 359 270 410 220.5 c 128,-1,81
 461 171 461 171 564 171 c 0,82,83
 630 171 630 171 693 203 c 128,-1,84
 756 235 756 235 822 295 c 1,85,-1
 822 562 l 1,86,87
 773 569 773 569 730.5 572.5 c 128,-1,88
 688 576 688 576 650 576 c 0,89,90
 566 576 566 576 510.5 563 c 128,-1,91
 455 550 455 550 421 525 c 128,-1,92
 387 500 387 500 373 462.5 c 128,-1,93
 359 425 359 425 359 376 c 0,79,80
EndSplineSet
EndChar

StartChar: igrave
Encoding: 236 236 176
Width: 645
Flags: W
HStem: 0 21G<199 470> 1162 20G<199 470> 1359 21G<283.469 340.706>
VStem: 199 271<0 1182>
LayerCount: 2
Fore
SplineSet
-53 1916 m 1,0,-1
 229 2035 l 1,1,-1
 410 1410 l 1,2,-1
 296 1359 l 1,3,-1
 -53 1916 l 1,0,-1
199 0 m 1,4,-1
 199 1182 l 1,5,-1
 470 1182 l 1,6,-1
 470 0 l 1,7,-1
 199 0 l 1,4,-1
EndSplineSet
EndChar

StartChar: iacute
Encoding: 237 237 177
Width: 645
Flags: W
HStem: 0 21G<199 470> 1162 20G<199 470>
VStem: 199 271<0 1182>
LayerCount: 2
Fore
SplineSet
140 1390 m 1,0,-1
 324 2011 l 1,1,-1
 601 1891 l 1,2,-1
 249 1339 l 1,3,-1
 140 1390 l 1,0,-1
199 0 m 1,4,-1
 199 1182 l 1,5,-1
 470 1182 l 1,6,-1
 470 0 l 1,7,-1
 199 0 l 1,4,-1
EndSplineSet
EndChar

StartChar: icircumflex
Encoding: 238 238 178
Width: 645
Flags: W
HStem: 0 21G<199 470> 1162 20G<199 470> 1351 21G<55.3846 168.497 478.554 592.128>
VStem: 199 271<0 1182>
LayerCount: 2
Fore
SplineSet
414 1959 m 1,0,-1
 692 1390 l 1,1,-1
 487 1351 l 1,2,-1
 324 1737 l 1,3,-1
 160 1351 l 1,4,-1
 -44 1390 l 1,5,-1
 235 1959 l 1,6,-1
 414 1959 l 1,0,-1
199 0 m 1,7,-1
 199 1182 l 1,8,-1
 470 1182 l 1,9,-1
 470 0 l 1,10,-1
 199 0 l 1,7,-1
EndSplineSet
EndChar

StartChar: idieresis
Encoding: 239 239 179
Width: 645
Flags: W
HStem: 0 21G<199 470> 1162 20G<199 470> 1335 315<-99.0148 120.014 490.985 710.014>
VStem: -145 312<1381.5 1603.5> 199 271<0 1182> 444 313<1381.5 1603.5>
LayerCount: 2
Fore
SplineSet
-145 1492 m 0,0,1
 -145 1525 -145 1525 -133.5 1553.5 c 128,-1,2
 -122 1582 -122 1582 -101 1603.5 c 128,-1,3
 -80 1625 -80 1625 -51.5 1637.5 c 128,-1,4
 -23 1650 -23 1650 10 1650 c 256,5,6
 43 1650 43 1650 72 1637.5 c 128,-1,7
 101 1625 101 1625 122 1603.5 c 128,-1,8
 143 1582 143 1582 155 1553.5 c 128,-1,9
 167 1525 167 1525 167 1492 c 256,10,11
 167 1459 167 1459 155 1430.5 c 128,-1,12
 143 1402 143 1402 122 1381 c 128,-1,13
 101 1360 101 1360 72 1347.5 c 128,-1,14
 43 1335 43 1335 10 1335 c 0,15,16
 -24 1335 -24 1335 -52.5 1347.5 c 128,-1,17
 -81 1360 -81 1360 -101.5 1381.5 c 128,-1,18
 -122 1403 -122 1403 -133.5 1431.5 c 128,-1,19
 -145 1460 -145 1460 -145 1492 c 0,0,1
444 1492 m 0,20,21
 444 1525 444 1525 456 1553.5 c 128,-1,22
 468 1582 468 1582 489 1603.5 c 128,-1,23
 510 1625 510 1625 538.5 1637.5 c 128,-1,24
 567 1650 567 1650 600 1650 c 256,25,26
 633 1650 633 1650 662 1637.5 c 128,-1,27
 691 1625 691 1625 712 1603.5 c 128,-1,28
 733 1582 733 1582 745 1553.5 c 128,-1,29
 757 1525 757 1525 757 1492 c 256,30,31
 757 1459 757 1459 745 1430.5 c 128,-1,32
 733 1402 733 1402 712 1381 c 128,-1,33
 691 1360 691 1360 662 1347.5 c 128,-1,34
 633 1335 633 1335 600 1335 c 0,35,36
 566 1335 566 1335 537.5 1347.5 c 128,-1,37
 509 1360 509 1360 488 1381.5 c 128,-1,38
 467 1403 467 1403 455.5 1431.5 c 128,-1,39
 444 1460 444 1460 444 1492 c 0,20,21
199 0 m 1,40,-1
 199 1182 l 1,41,-1
 470 1182 l 1,42,-1
 470 0 l 1,43,-1
 199 0 l 1,40,-1
EndSplineSet
EndChar

StartChar: eth
Encoding: 240 240 180
Width: 1268
Flags: W
HStem: -18 193<476.563 757.942> 1014 192<476.211 750.991> 1623 20G<1044.87 1116.05>
VStem: 88 271<320.437 874.225> 894 272<349.779 889.482>
DStem2: 415 1428 458 1306 0.955212 0.295923<4.97151 188.214 479.112 726.54>
LayerCount: 2
Fore
SplineSet
1166 660 m 0,0,1
 1166 312 1166 312 1023.5 147 c 128,-1,2
 881 -18 881 -18 606 -18 c 0,3,4
 471 -18 471 -18 373 31.5 c 128,-1,5
 275 81 275 81 212 165.5 c 128,-1,6
 149 250 149 250 118.5 362 c 128,-1,7
 88 474 88 474 88 600 c 0,8,9
 88 728 88 728 118.5 839 c 128,-1,10
 149 950 149 950 208 1031.5 c 128,-1,11
 267 1113 267 1113 353 1159.5 c 128,-1,12
 439 1206 439 1206 549 1206 c 0,13,14
 604 1206 604 1206 655.5 1194 c 128,-1,15
 707 1182 707 1182 751 1161.5 c 128,-1,16
 795 1141 795 1141 830.5 1113 c 128,-1,17
 866 1085 866 1085 891 1052 c 1,18,19
 871 1124 871 1124 820 1209.5 c 128,-1,20
 769 1295 769 1295 696 1379 c 1,21,-1
 458 1306 l 1,22,-1
 415 1428 l 1,23,-1
 595 1483 l 1,24,25
 547 1528 547 1528 500.5 1565 c 128,-1,26
 454 1602 454 1602 405 1631 c 1,27,-1
 525 1774 l 1,28,29
 561 1752 561 1752 595 1730.5 c 128,-1,30
 629 1709 629 1709 663.5 1683 c 128,-1,31
 698 1657 698 1657 735 1625 c 128,-1,32
 772 1593 772 1593 814 1551 c 1,33,-1
 1109 1643 l 1,34,-1
 1152 1521 l 1,35,-1
 911 1446 l 1,36,37
 967 1373 967 1373 1014 1290.5 c 128,-1,38
 1061 1208 1061 1208 1094.5 1111.5 c 128,-1,39
 1128 1015 1128 1015 1147 903.5 c 128,-1,40
 1166 792 1166 792 1166 660 c 0,0,1
359 595 m 0,41,42
 359 501 359 501 373 423.5 c 128,-1,43
 387 346 387 346 418 291 c 128,-1,44
 449 236 449 236 496.5 205.5 c 128,-1,45
 544 175 544 175 612 175 c 0,46,47
 676 175 676 175 725 199.5 c 128,-1,48
 774 224 774 224 808 269.5 c 128,-1,49
 842 315 842 315 862 380.5 c 128,-1,50
 882 446 882 446 889 528 c 1,51,52
 891 587 891 587 892.5 648 c 128,-1,53
 894 709 894 709 894 774 c 1,54,55
 881 843 881 843 850.5 889.5 c 128,-1,56
 820 936 820 936 780 963.5 c 128,-1,57
 740 991 740 991 695 1002.5 c 128,-1,58
 650 1014 650 1014 609 1014 c 0,59,60
 490 1014 490 1014 424.5 913.5 c 128,-1,61
 359 813 359 813 359 595 c 0,41,42
EndSplineSet
EndChar

StartChar: divide
Encoding: 247 247 187
Width: 1147
Flags: W
HStem: 150 315<481.533 697.107> 559 201<160 1018> 849 315<480.438 696.562>
VStem: 436 305<194.83 419.654 893.504 1119.5>
LayerCount: 2
Fore
SplineSet
436 1006 m 0,0,1
 436 1039 436 1039 447 1067.5 c 128,-1,2
 458 1096 458 1096 478.5 1117.5 c 128,-1,3
 499 1139 499 1139 527 1151.5 c 128,-1,4
 555 1164 555 1164 589 1164 c 0,5,6
 622 1164 622 1164 650 1151.5 c 128,-1,7
 678 1139 678 1139 698 1118 c 128,-1,8
 718 1097 718 1097 729.5 1068 c 128,-1,9
 741 1039 741 1039 741 1006 c 256,10,11
 741 973 741 973 730 944.5 c 128,-1,12
 719 916 719 916 698.5 894.5 c 128,-1,13
 678 873 678 873 650 861 c 128,-1,14
 622 849 622 849 589 849 c 0,15,16
 555 849 555 849 527 861.5 c 128,-1,17
 499 874 499 874 478.5 895.5 c 128,-1,18
 458 917 458 917 447 945.5 c 128,-1,19
 436 974 436 974 436 1006 c 0,0,1
436 307 m 0,20,21
 436 340 436 340 447.5 368.5 c 128,-1,22
 459 397 459 397 479.5 418.5 c 128,-1,23
 500 440 500 440 528 452.5 c 128,-1,24
 556 465 556 465 590 465 c 0,25,26
 623 465 623 465 650.5 452.5 c 128,-1,27
 678 440 678 440 698.5 419 c 128,-1,28
 719 398 719 398 730 369 c 128,-1,29
 741 340 741 340 741 307 c 256,30,31
 741 274 741 274 730 245.5 c 128,-1,32
 719 217 719 217 699 195.5 c 128,-1,33
 679 174 679 174 651 162 c 128,-1,34
 623 150 623 150 590 150 c 0,35,36
 556 150 556 150 527.5 162.5 c 128,-1,37
 499 175 499 175 479 196.5 c 128,-1,38
 459 218 459 218 447.5 246.5 c 128,-1,39
 436 275 436 275 436 307 c 0,20,21
160 559 m 1,40,-1
 160 760 l 1,41,-1
 1018 760 l 1,42,-1
 1018 559 l 1,43,-1
 160 559 l 1,40,-1
EndSplineSet
EndChar

StartChar: oslash
Encoding: 248 248 188
Width: 1293
Flags: W
HStem: -18 173<557.41 807.289> 1030 176<484.792 736.068>
VStem: 88 246<339.288 854.57> 963 241<337.01 843.398>
DStem2: 337 -157 436 -190 0.320647 0.947199<0.486499 199.533 396.869 1220.18 1417.83 1625.89>
LayerCount: 2
Fore
SplineSet
737 1018 m 1,0,1
 701 1030 701 1030 646 1030 c 0,2,3
 574 1030 574 1030 516.5 1003.5 c 128,-1,4
 459 977 459 977 418.5 924 c 128,-1,5
 378 871 378 871 356 790.5 c 128,-1,6
 334 710 334 710 334 602 c 0,7,8
 334 520 334 520 346 455.5 c 128,-1,9
 358 391 358 391 376.5 343.5 c 128,-1,10
 395 296 395 296 418 265 c 128,-1,11
 441 234 441 234 464 219 c 1,12,-1
 737 1018 l 1,0,1
436 -190 m 1,13,-1
 337 -157 l 1,14,-1
 400 27 l 1,15,16
 243 95 243 95 165.5 239.5 c 128,-1,17
 88 384 88 384 88 590 c 0,18,19
 88 723 88 723 123 836 c 128,-1,20
 158 949 158 949 228 1031 c 128,-1,21
 298 1113 298 1113 402.5 1159.5 c 128,-1,22
 507 1206 507 1206 646 1206 c 0,23,24
 685 1206 685 1206 721.5 1202 c 128,-1,25
 758 1198 758 1198 793 1190 c 1,26,-1
 859 1385 l 1,27,-1
 953 1351 l 1,28,-1
 888 1160 l 1,29,30
 968 1125 968 1125 1027.5 1069 c 128,-1,31
 1087 1013 1087 1013 1126 940.5 c 128,-1,32
 1165 868 1165 868 1184.5 779.5 c 128,-1,33
 1204 691 1204 691 1204 590 c 0,34,35
 1204 457 1204 457 1169 345.5 c 128,-1,36
 1134 234 1134 234 1064.5 153 c 128,-1,37
 995 72 995 72 890 27 c 128,-1,38
 785 -18 785 -18 646 -18 c 0,39,40
 566 -18 566 -18 499 -3 c 1,41,-1
 436 -190 l 1,13,-1
646 155 m 0,42,43
 727 155 727 155 786.5 187 c 128,-1,44
 846 219 846 219 885.5 276.5 c 128,-1,45
 925 334 925 334 944 414.5 c 128,-1,46
 963 495 963 495 963 592 c 0,47,48
 963 676 963 676 950 738.5 c 128,-1,49
 937 801 937 801 917 846 c 128,-1,50
 897 891 897 891 872.5 920 c 128,-1,51
 848 949 848 949 825 966 c 1,52,-1
 556 165 l 1,53,54
 587 155 587 155 646 155 c 0,42,43
EndSplineSet
EndChar

StartChar: thorn
Encoding: 254 254 194
Width: 1319
Flags: W
HStem: -453 21G<152 425> -18 192<531.174 853.977> 1008 193<560.658 841.508>
VStem: 152 275<-453 115 248.978 890 1038 1595> 958 273<302.159 861.707>
LayerCount: 2
Fore
SplineSet
958 575 m 0,0,1
 958 660 958 660 946.5 738.5 c 128,-1,2
 935 817 935 817 906.5 877 c 128,-1,3
 878 937 878 937 830 972.5 c 128,-1,4
 782 1008 782 1008 710 1008 c 0,5,6
 655 1008 655 1008 610 995 c 128,-1,7
 565 982 565 982 530 963 c 128,-1,8
 495 944 495 944 469.5 924 c 128,-1,9
 444 904 444 904 427 890 c 1,10,-1
 427 283 l 1,11,12
 455 258 455 258 490 238 c 128,-1,13
 525 218 525 218 564 203.5 c 128,-1,14
 603 189 603 189 645.5 181.5 c 128,-1,15
 688 174 688 174 730 174 c 0,16,17
 779 174 779 174 815 192 c 128,-1,18
 851 210 851 210 876.5 240.5 c 128,-1,19
 902 271 902 271 917.5 311.5 c 128,-1,20
 933 352 933 352 942 396.5 c 128,-1,21
 951 441 951 441 954.5 487 c 128,-1,22
 958 533 958 533 958 575 c 0,0,1
745 -18 m 0,23,24
 527 -18 527 -18 425 115 c 1,25,-1
 425 -453 l 1,26,-1
 152 -453 l 1,27,-1
 152 1595 l 1,28,-1
 422 1595 l 1,29,-1
 422 1038 l 1,30,31
 448 1075 448 1075 483.5 1105.5 c 128,-1,32
 519 1136 519 1136 562 1157 c 128,-1,33
 605 1178 605 1178 653 1189.5 c 128,-1,34
 701 1201 701 1201 752 1201 c 0,35,36
 878 1201 878 1201 968.5 1151.5 c 128,-1,37
 1059 1102 1059 1102 1117.5 1017.5 c 128,-1,38
 1176 933 1176 933 1203.5 820.5 c 128,-1,39
 1231 708 1231 708 1231 583 c 0,40,41
 1231 453 1231 453 1199.5 343 c 128,-1,42
 1168 233 1168 233 1106.5 152.5 c 128,-1,43
 1045 72 1045 72 954 27 c 128,-1,44
 863 -18 863 -18 745 -18 c 0,23,24
EndSplineSet
EndChar

StartChar: dotlessi
Encoding: 305 305 196
Width: 540
Flags: W
HStem: 0 21G<177 359>
VStem: 177 182<0 1169>
LayerCount: 2
Fore
SplineSet
177 1169 m 1,0,-1
 359 1169 l 1,1,-1
 359 0 l 1,2,-1
 177 0 l 1,3,-1
 177 1169 l 1,0,-1
EndSplineSet
EndChar

StartChar: OE
Encoding: 338 338 197
Width: 2314
Flags: W
HStem: -36 214<609.334 985.761> 0 189<1489 2250> 750 174<1492 2143> 1410 192<1489 2239> 1419 211<610.586 986.824>
VStem: 104 290<452.635 1146.59> 1203 286<475.5 924>
LayerCount: 2
Fore
SplineSet
1203 0 m 1,0,-1
 1203 1602 l 1,1,-1
 2239 1602 l 1,2,-1
 2239 1410 l 1,3,-1
 1489 1410 l 1,4,-1
 1489 924 l 1,5,-1
 2143 924 l 1,6,-1
 2143 750 l 1,7,-1
 1489 750 l 1,8,-1
 1489 189 l 1,9,-1
 2250 189 l 1,10,-1
 2250 0 l 1,11,-1
 1203 0 l 1,0,-1
1492 809 m 0,12,13
 1492 630 1492 630 1456 475.5 c 128,-1,14
 1420 321 1420 321 1338.5 207.5 c 128,-1,15
 1257 94 1257 94 1124 29 c 128,-1,16
 991 -36 991 -36 797 -36 c 0,17,18
 668 -36 668 -36 566 -6 c 128,-1,19
 464 24 464 24 387 79 c 128,-1,20
 310 134 310 134 256 212 c 128,-1,21
 202 290 202 290 168.5 385 c 128,-1,22
 135 480 135 480 119.5 590.5 c 128,-1,23
 104 701 104 701 104 821 c 0,24,25
 104 1010 104 1010 148 1160.5 c 128,-1,26
 192 1311 192 1311 279 1415 c 128,-1,27
 366 1519 366 1519 495.5 1574.5 c 128,-1,28
 625 1630 625 1630 797 1630 c 0,29,30
 970 1630 970 1630 1100.5 1574.5 c 128,-1,31
 1231 1519 1231 1519 1318 1413 c 128,-1,32
 1405 1307 1405 1307 1448.5 1154.5 c 128,-1,33
 1492 1002 1492 1002 1492 809 c 0,12,13
394 794 m 0,34,35
 394 651 394 651 416.5 537 c 128,-1,36
 439 423 439 423 487.5 343 c 128,-1,37
 536 263 536 263 612.5 220.5 c 128,-1,38
 689 178 689 178 797 178 c 0,39,40
 902 178 902 178 978.5 218.5 c 128,-1,41
 1055 259 1055 259 1104.5 337.5 c 128,-1,42
 1154 416 1154 416 1177.5 530.5 c 128,-1,43
 1201 645 1201 645 1201 794 c 0,44,45
 1201 944 1201 944 1178 1060 c 128,-1,46
 1155 1176 1155 1176 1106 1256 c 128,-1,47
 1057 1336 1057 1336 981.5 1377.5 c 128,-1,48
 906 1419 906 1419 801 1419 c 0,49,50
 693 1419 693 1419 616 1378 c 128,-1,51
 539 1337 539 1337 489.5 1257.5 c 128,-1,52
 440 1178 440 1178 417 1061.5 c 128,-1,53
 394 945 394 945 394 794 c 0,34,35
EndSplineSet
EndChar

StartChar: oe
Encoding: 339 339 198
Width: 2042
Flags: W
HStem: -33 190<494.917 801.143 1373.83 1717.14> 542 147<1217 1728> 1022 189<505.571 790.158 1346.07 1629.01>
VStem: 88 272<316.539 854.376> 935 282<319.442 542 689 852.748> 1728 230<689 909.239>
LayerCount: 2
Fore
SplineSet
1728 689 m 1,0,1
 1728 1019 1728 1019 1489 1022 c 1,2,3
 1426 1021 1426 1021 1376.5 996 c 128,-1,4
 1327 971 1327 971 1292.5 927.5 c 128,-1,5
 1258 884 1258 884 1238.5 823 c 128,-1,6
 1219 762 1219 762 1216 689 c 1,7,-1
 1728 689 l 1,0,1
647 157 m 0,8,9
 728 157 728 157 783 189.5 c 128,-1,10
 838 222 838 222 871.5 279.5 c 128,-1,11
 905 337 905 337 920 415 c 128,-1,12
 935 493 935 493 935 585 c 0,13,14
 935 676 935 676 920 754.5 c 128,-1,15
 905 833 905 833 871.5 891 c 128,-1,16
 838 949 838 949 783 982 c 128,-1,17
 728 1015 728 1015 647 1015 c 256,18,19
 566 1015 566 1015 511.5 982 c 128,-1,20
 457 949 457 949 423 891 c 128,-1,21
 389 833 389 833 374.5 754.5 c 128,-1,22
 360 676 360 676 360 585 c 0,23,24
 360 536 360 536 364.5 485.5 c 128,-1,25
 369 435 369 435 381 387.5 c 128,-1,26
 393 340 393 340 413.5 298 c 128,-1,27
 434 256 434 256 466 225 c 128,-1,28
 498 194 498 194 542.5 175.5 c 128,-1,29
 587 157 587 157 647 157 c 0,8,9
1901 86 m 1,30,31
 1857 59 1857 59 1807.5 39 c 128,-1,32
 1758 19 1758 19 1706.5 5 c 128,-1,33
 1655 -9 1655 -9 1605 -16 c 128,-1,34
 1555 -23 1555 -23 1511 -23 c 0,35,36
 1347 -23 1347 -23 1241 34.5 c 128,-1,37
 1135 92 1135 92 1076 202 c 1,38,39
 1052 142 1052 142 1007.5 98 c 128,-1,40
 963 54 963 54 906 25 c 128,-1,41
 849 -4 849 -4 782.5 -18.5 c 128,-1,42
 716 -33 716 -33 647 -33 c 0,43,44
 510 -33 510 -33 405.5 11 c 128,-1,45
 301 55 301 55 230.5 136 c 128,-1,46
 160 217 160 217 124 330.5 c 128,-1,47
 88 444 88 444 88 583 c 0,48,49
 88 707 88 707 118.5 819.5 c 128,-1,50
 149 932 149 932 215.5 1017.5 c 128,-1,51
 282 1103 282 1103 388.5 1153.5 c 128,-1,52
 495 1204 495 1204 647 1204 c 0,53,54
 720 1204 720 1204 784.5 1190.5 c 128,-1,55
 849 1177 849 1177 903.5 1147 c 128,-1,56
 958 1117 958 1117 1000.5 1070 c 128,-1,57
 1043 1023 1043 1023 1071 956 c 1,58,59
 1106 1022 1106 1022 1147 1070.5 c 128,-1,60
 1188 1119 1188 1119 1237.5 1150 c 128,-1,61
 1287 1181 1287 1181 1346.5 1196 c 128,-1,62
 1406 1211 1406 1211 1479 1211 c 0,63,64
 1594 1211 1594 1211 1683.5 1174.5 c 128,-1,65
 1773 1138 1773 1138 1834 1069.5 c 128,-1,66
 1895 1001 1895 1001 1926.5 903.5 c 128,-1,67
 1958 806 1958 806 1958 685 c 0,68,69
 1958 647 1958 647 1957 611.5 c 128,-1,70
 1956 576 1956 576 1954 542 c 1,71,-1
 1217 542 l 1,72,73
 1218 445 1218 445 1240 374 c 128,-1,74
 1262 303 1262 303 1302.5 257 c 128,-1,75
 1343 211 1343 211 1401.5 189 c 128,-1,76
 1460 167 1460 167 1533 167 c 0,77,78
 1625 167 1625 167 1696.5 193.5 c 128,-1,79
 1768 220 1768 220 1836 273 c 1,80,-1
 1901 86 l 1,30,31
EndSplineSet
EndChar

StartChar: florin
Encoding: 402 402 204
Width: 820
Flags: W
HStem: 1001 128<57 266 547 839> 1497 205<607.631 877.602>
VStem: 271 276<1129 1426.82>
LayerCount: 2
Fore
SplineSet
711 1497 m 0,0,1
 664 1497 664 1497 634 1478 c 128,-1,2
 604 1459 604 1459 586.5 1415.5 c 128,-1,3
 569 1372 569 1372 560.5 1302 c 128,-1,4
 552 1232 552 1232 547 1129 c 1,5,-1
 839 1129 l 1,6,-1
 839 1001 l 1,7,-1
 541 1001 l 1,8,-1
 509 340 l 1,9,10
 503 248 503 248 489.5 175 c 128,-1,11
 476 102 476 102 453.5 45.5 c 128,-1,12
 431 -11 431 -11 400.5 -52.5 c 128,-1,13
 370 -94 370 -94 331 -123 c 1,14,15
 281 -123 281 -123 235 -117 c 128,-1,16
 189 -111 189 -111 149 -103.5 c 128,-1,17
 109 -96 109 -96 76.5 -89.5 c 128,-1,18
 44 -83 44 -83 22 -83 c 1,19,-1
 59 38 l 1,20,21
 59 45 59 45 67.5 47.5 c 128,-1,22
 76 50 76 50 88.5 51.5 c 128,-1,23
 101 53 101 53 116 55.5 c 128,-1,24
 131 58 131 58 145 65 c 1,25,26
 179 94 179 94 201 144 c 128,-1,27
 223 194 223 194 228 281 c 2,28,-1
 266 1001 l 1,29,-1
 57 1001 l 1,30,-1
 57 1129 l 1,31,-1
 271 1129 l 1,32,33
 278 1279 278 1279 302.5 1387.5 c 128,-1,34
 327 1496 327 1496 374 1565.5 c 128,-1,35
 421 1635 421 1635 492.5 1668.5 c 128,-1,36
 564 1702 564 1702 665 1702 c 0,37,38
 707 1702 707 1702 745 1695 c 128,-1,39
 783 1688 783 1688 815.5 1678.5 c 128,-1,40
 848 1669 848 1669 872.5 1660 c 128,-1,41
 897 1651 897 1651 912 1647 c 1,42,-1
 878 1455 l 1,43,44
 870 1458 870 1458 852.5 1465 c 128,-1,45
 835 1472 835 1472 812 1479 c 128,-1,46
 789 1486 789 1486 762.5 1491.5 c 128,-1,47
 736 1497 736 1497 711 1497 c 0,0,1
EndSplineSet
EndChar

StartChar: circumflex
Encoding: 710 710 205
Width: 1347
Flags: W
HStem: 503 222<493 894>
LayerCount: 2
Fore
SplineSet
783 725 m 1,0,-1
 1062 155 l 1,1,-1
 857 116 l 1,2,-1
 693 503 l 1,3,-1
 529 116 l 1,4,-1
 325 155 l 1,5,-1
 604 725 l 1,6,-1
 783 725 l 1,0,-1
EndSplineSet
EndChar

StartChar: caron
Encoding: 711 711 206
Width: 1347
Flags: W
HStem: 127 222<493 894>
LayerCount: 2
Fore
SplineSet
604 127 m 1,0,-1
 325 697 l 1,1,-1
 530 736 l 1,2,-1
 694 349 l 1,3,-1
 858 736 l 1,4,-1
 1062 697 l 1,5,-1
 783 127 l 1,6,-1
 604 127 l 1,0,-1
EndSplineSet
EndChar

StartChar: ring
Encoding: 730 730 207
Width: 1331
Flags: W
HStem: 120 129<552.31 779.078> 580 130<551.876 779.532>
VStem: 356 145<300.396 528.918> 831 144<300.857 528.865>
LayerCount: 2
Fore
SplineSet
501 414 m 0,0,1
 501 379 501 379 513.5 349 c 128,-1,2
 526 319 526 319 548.5 297 c 128,-1,3
 571 275 571 275 600.5 262 c 128,-1,4
 630 249 630 249 665 249 c 256,5,6
 700 249 700 249 730 262 c 128,-1,7
 760 275 760 275 782.5 297 c 128,-1,8
 805 319 805 319 818 349 c 128,-1,9
 831 379 831 379 831 414 c 256,10,11
 831 449 831 449 818 479.5 c 128,-1,12
 805 510 805 510 782.5 532.5 c 128,-1,13
 760 555 760 555 729.5 567.5 c 128,-1,14
 699 580 699 580 665 580 c 0,15,16
 630 580 630 580 600 567 c 128,-1,17
 570 554 570 554 548 531.5 c 128,-1,18
 526 509 526 509 513.5 478.5 c 128,-1,19
 501 448 501 448 501 414 c 0,0,1
666 710 m 0,20,21
 730 710 730 710 786.5 687.5 c 128,-1,22
 843 665 843 665 885 625 c 128,-1,23
 927 585 927 585 951 530.5 c 128,-1,24
 975 476 975 476 975 412 c 256,25,26
 975 348 975 348 949.5 294.5 c 128,-1,27
 924 241 924 241 881 202 c 128,-1,28
 838 163 838 163 781 141.5 c 128,-1,29
 724 120 724 120 661 120 c 256,30,31
 598 120 598 120 542 143 c 128,-1,32
 486 166 486 166 445 206.5 c 128,-1,33
 404 247 404 247 380 301 c 128,-1,34
 356 355 356 355 356 417 c 0,35,36
 356 480 356 480 381 533.5 c 128,-1,37
 406 587 406 587 448.5 626.5 c 128,-1,38
 491 666 491 666 547 688 c 128,-1,39
 603 710 603 710 666 710 c 0,20,21
EndSplineSet
EndChar

StartChar: tilde
Encoding: 732 732 208
Width: 1483
Flags: W
HStem: 131 188<807.613 967.473> 264 187<533.742 698.032>
VStem: 333 185<147 238.724> 977 191<342.212 424>
DStem2: 664.5 430.5 622 254 0.906488 -0.422232<-6.69052 286.785>
LayerCount: 2
Fore
SplineSet
958 131 m 0,0,1
 922 131 922 131 885 141 c 128,-1,2
 848 151 848 151 812 165.5 c 128,-1,3
 776 180 776 180 742 197.5 c 128,-1,4
 708 215 708 215 677.5 229.5 c 128,-1,5
 647 244 647 244 622 254 c 128,-1,6
 597 264 597 264 579 264 c 0,7,8
 552 264 552 264 535 239.5 c 128,-1,9
 518 215 518 215 518 147 c 1,10,-1
 333 147 l 1,11,12
 333 451 333 451 552 451 c 0,13,14
 611 451 611 451 664.5 430.5 c 128,-1,15
 718 410 718 410 766 385 c 128,-1,16
 814 360 814 360 855 339.5 c 128,-1,17
 896 319 896 319 930 319 c 0,18,19
 953 319 953 319 965 341.5 c 128,-1,20
 977 364 977 364 977 424 c 1,21,-1
 1168 424 l 1,22,23
 1168 284 1168 284 1113 207.5 c 128,-1,24
 1058 131 1058 131 958 131 c 0,0,1
EndSplineSet
EndChar

StartChar: acutecomb
Encoding: 769 769 209
Width: 1113
Flags: W
HStem: 122 673
VStem: 456 461
LayerCount: 2
Fore
SplineSet
456 173 m 1,0,-1
 640 795 l 1,1,-1
 917 674 l 1,2,-1
 565 122 l 1,3,-1
 456 173 l 1,0,-1
EndSplineSet
EndChar

StartChar: uni0306
Encoding: 774 774 210
Width: 1049
Flags: W
HStem: 139 134<413.502 628.218>
VStem: 215 166<312.198 430> 660 166<312.198 430>
LayerCount: 2
Fore
SplineSet
826 430 m 1,0,1
 826 287 826 287 752 213 c 128,-1,2
 678 139 678 139 521 139 c 256,3,4
 364 139 364 139 289.5 214.5 c 128,-1,5
 215 290 215 290 215 430 c 1,6,-1
 381 430 l 1,7,8
 381 349 381 349 415 311 c 128,-1,9
 449 273 449 273 521 273 c 256,10,11
 593 273 593 273 626.5 311 c 128,-1,12
 660 349 660 349 660 430 c 1,13,-1
 826 430 l 1,0,1
EndSplineSet
EndChar

StartChar: uni0400
Encoding: 1024 1024 211
Width: 1298
Flags: W
HStem: 0 189<442 1203> 750 174<442 1096> 1410 192<442 1191>
VStem: 155 287<189 750 924 1410>
LayerCount: 2
Fore
SplineSet
342 2314 m 1,0,-1
 624 2433 l 1,1,-1
 805 1808 l 1,2,-1
 691 1757 l 1,3,-1
 342 2314 l 1,0,-1
155 0 m 1,4,-1
 155 1602 l 1,5,-1
 1191 1602 l 1,6,-1
 1191 1410 l 1,7,-1
 442 1410 l 1,8,-1
 442 924 l 1,9,-1
 1096 924 l 1,10,-1
 1096 750 l 1,11,-1
 442 750 l 1,12,-1
 442 189 l 1,13,-1
 1203 189 l 1,14,-1
 1203 0 l 1,15,-1
 155 0 l 1,4,-1
EndSplineSet
EndChar

StartChar: afii10023
Encoding: 1025 1025 212
Width: 1313
Flags: W
HStem: 0 189<457 1218> 750 174<457 1111> 1410 192<457 1206> 1755 315<266.439 485.342 856.439 1075.34>
VStem: 170 287<189 750 924 1410> 220 311<1800.83 2023.5> 810 311<1800.83 2023.5>
LayerCount: 2
Fore
SplineSet
220 1913 m 256,0,1
 220 1945 220 1945 232 1973.5 c 128,-1,2
 244 2002 244 2002 264.5 2023.5 c 128,-1,3
 285 2045 285 2045 313.5 2057.5 c 128,-1,4
 342 2070 342 2070 375 2070 c 256,5,6
 408 2070 408 2070 436.5 2058 c 128,-1,7
 465 2046 465 2046 486 2024.5 c 128,-1,8
 507 2003 507 2003 519 1974.5 c 128,-1,9
 531 1946 531 1946 531 1913 c 256,10,11
 531 1880 531 1880 519 1851 c 128,-1,12
 507 1822 507 1822 486 1800.5 c 128,-1,13
 465 1779 465 1779 436.5 1767 c 128,-1,14
 408 1755 408 1755 375 1755 c 0,15,16
 341 1755 341 1755 312.5 1767.5 c 128,-1,17
 284 1780 284 1780 263.5 1801.5 c 128,-1,18
 243 1823 243 1823 231.5 1852 c 128,-1,19
 220 1881 220 1881 220 1913 c 256,0,1
810 1913 m 256,20,21
 810 1945 810 1945 822 1973.5 c 128,-1,22
 834 2002 834 2002 854.5 2023.5 c 128,-1,23
 875 2045 875 2045 903.5 2057.5 c 128,-1,24
 932 2070 932 2070 965 2070 c 256,25,26
 998 2070 998 2070 1026.5 2058 c 128,-1,27
 1055 2046 1055 2046 1076 2024.5 c 128,-1,28
 1097 2003 1097 2003 1109 1974.5 c 128,-1,29
 1121 1946 1121 1946 1121 1913 c 256,30,31
 1121 1880 1121 1880 1109 1851 c 128,-1,32
 1097 1822 1097 1822 1076 1800.5 c 128,-1,33
 1055 1779 1055 1779 1026.5 1767 c 128,-1,34
 998 1755 998 1755 965 1755 c 0,35,36
 931 1755 931 1755 902.5 1767.5 c 128,-1,37
 874 1780 874 1780 853.5 1801.5 c 128,-1,38
 833 1823 833 1823 821.5 1852 c 128,-1,39
 810 1881 810 1881 810 1913 c 256,20,21
170 0 m 1,40,-1
 170 1602 l 1,41,-1
 1206 1602 l 1,42,-1
 1206 1410 l 1,43,-1
 457 1410 l 1,44,-1
 457 924 l 1,45,-1
 1111 924 l 1,46,-1
 1111 750 l 1,47,-1
 457 750 l 1,48,-1
 457 189 l 1,49,-1
 1218 189 l 1,50,-1
 1218 0 l 1,51,-1
 170 0 l 1,40,-1
EndSplineSet
EndChar

StartChar: afii10051
Encoding: 1026 1026 213
Width: 1640
Flags: W
HStem: -255 185<909 1132.98> 0 21G<458 745> 1019 192<883.673 1169.28> 1410 192<19 458 745 1181>
VStem: 458 287<0 937.35 1057 1410> 1241 277<39.1515 942.517>
LayerCount: 2
Fore
SplineSet
909 -70 m 1,0,1
 1013 -70 1013 -70 1078 -50.5 c 128,-1,2
 1143 -31 1143 -31 1179 13.5 c 128,-1,3
 1215 58 1215 58 1228 131 c 128,-1,4
 1241 204 1241 204 1241 311 c 2,5,-1
 1241 748 l 2,6,7
 1241 1019 1241 1019 1041 1019 c 0,8,9
 991 1019 991 1019 948 1009.5 c 128,-1,10
 905 1000 905 1000 868.5 983.5 c 128,-1,11
 832 967 832 967 801 945.5 c 128,-1,12
 770 924 770 924 745 900 c 1,13,-1
 745 0 l 1,14,-1
 458 0 l 1,15,-1
 458 1410 l 1,16,-1
 19 1410 l 1,17,-1
 19 1602 l 1,18,-1
 1181 1602 l 1,19,-1
 1181 1410 l 1,20,-1
 745 1410 l 1,21,-1
 745 1057 l 1,22,23
 804 1132 804 1132 895 1171.5 c 128,-1,24
 986 1211 986 1211 1109 1211 c 0,25,26
 1305 1211 1305 1211 1411.5 1092.5 c 128,-1,27
 1518 974 1518 974 1518 736 c 2,28,-1
 1518 234 l 2,29,30
 1518 115 1518 115 1486 24 c 128,-1,31
 1454 -67 1454 -67 1393 -129 c 128,-1,32
 1332 -191 1332 -191 1243.5 -223 c 128,-1,33
 1155 -255 1155 -255 1042 -255 c 0,34,35
 1004 -255 1004 -255 968.5 -251 c 128,-1,36
 933 -247 933 -247 899 -239 c 1,37,-1
 909 -70 l 1,0,1
EndSplineSet
EndChar

StartChar: afii10052
Encoding: 1027 1027 214
Width: 1199
Flags: W
HStem: 0 21G<155 442> 1410 192<442 1145>
VStem: 155 287<0 1410>
LayerCount: 2
Fore
SplineSet
634 1758 m 1,0,-1
 793 2369 l 1,1,-1
 1025 2278 l 1,2,-1
 691 1732 l 1,3,-1
 634 1758 l 1,0,-1
442 1410 m 1,4,-1
 442 0 l 1,5,-1
 155 0 l 1,6,-1
 155 1602 l 1,7,-1
 1145 1602 l 1,8,-1
 1145 1410 l 1,9,-1
 442 1410 l 1,4,-1
EndSplineSet
EndChar

StartChar: afii10053
Encoding: 1028 1028 215
Width: 1322
Flags: W
HStem: -35 213<613.244 1046.18> 720 174<397 1030> 1418 213<616.022 1057.79>
VStem: 104 292<453.254 720 894 1149.97>
LayerCount: 2
Fore
SplineSet
104 791 m 0,0,1
 104 993 104 993 148 1150 c 128,-1,2
 192 1307 192 1307 279.5 1413.5 c 128,-1,3
 367 1520 367 1520 497.5 1575.5 c 128,-1,4
 628 1631 628 1631 801 1631 c 0,5,6
 917 1631 917 1631 1024.5 1604 c 128,-1,7
 1132 1577 1132 1577 1246 1531 c 1,8,-1
 1172 1324 l 1,9,10
 1116 1351 1116 1351 1069 1369 c 128,-1,11
 1022 1387 1022 1387 979.5 1398 c 128,-1,12
 937 1409 937 1409 897.5 1413.5 c 128,-1,13
 858 1418 858 1418 818 1418 c 0,14,15
 615 1418 615 1418 512.5 1289.5 c 128,-1,16
 410 1161 410 1161 397 894 c 1,17,-1
 1030 894 l 1,18,-1
 1030 720 l 1,19,-1
 396 720 l 1,20,21
 409 451 409 451 508 314.5 c 128,-1,22
 607 178 607 178 804 178 c 0,23,24
 904 178 904 178 996.5 205.5 c 128,-1,25
 1089 233 1089 233 1181 287 c 1,26,-1
 1260 85 l 1,27,28
 1226 62 1226 62 1174.5 40.5 c 128,-1,29
 1123 19 1123 19 1060.5 2.5 c 128,-1,30
 998 -14 998 -14 929.5 -24.5 c 128,-1,31
 861 -35 861 -35 793 -35 c 0,32,33
 621 -35 621 -35 492 22.5 c 128,-1,34
 363 80 363 80 276.5 187 c 128,-1,35
 190 294 190 294 147 447 c 128,-1,36
 104 600 104 600 104 791 c 0,0,1
EndSplineSet
EndChar

StartChar: afii10056
Encoding: 1031 1031 218
Width: 824
Flags: W
HStem: 0 143<80 270 551 743> 1455 147<80 270 551 743> 1737 315<8.43945 227.342 598.439 817.342>
VStem: -38 311<1782.83 2005.5> 270 281<143 1455> 552 311<1782.83 2005.5>
LayerCount: 2
Fore
SplineSet
-38 1895 m 256,0,1
 -38 1927 -38 1927 -26 1955.5 c 128,-1,2
 -14 1984 -14 1984 6.5 2005.5 c 128,-1,3
 27 2027 27 2027 55.5 2039.5 c 128,-1,4
 84 2052 84 2052 117 2052 c 256,5,6
 150 2052 150 2052 178.5 2040 c 128,-1,7
 207 2028 207 2028 228 2006.5 c 128,-1,8
 249 1985 249 1985 261 1956.5 c 128,-1,9
 273 1928 273 1928 273 1895 c 256,10,11
 273 1862 273 1862 261 1833 c 128,-1,12
 249 1804 249 1804 228 1782.5 c 128,-1,13
 207 1761 207 1761 178.5 1749 c 128,-1,14
 150 1737 150 1737 117 1737 c 0,15,16
 83 1737 83 1737 54.5 1749.5 c 128,-1,17
 26 1762 26 1762 5.5 1783.5 c 128,-1,18
 -15 1805 -15 1805 -26.5 1834 c 128,-1,19
 -38 1863 -38 1863 -38 1895 c 256,0,1
552 1895 m 256,20,21
 552 1927 552 1927 564 1955.5 c 128,-1,22
 576 1984 576 1984 596.5 2005.5 c 128,-1,23
 617 2027 617 2027 645.5 2039.5 c 128,-1,24
 674 2052 674 2052 707 2052 c 256,25,26
 740 2052 740 2052 768.5 2040 c 128,-1,27
 797 2028 797 2028 818 2006.5 c 128,-1,28
 839 1985 839 1985 851 1956.5 c 128,-1,29
 863 1928 863 1928 863 1895 c 256,30,31
 863 1862 863 1862 851 1833 c 128,-1,32
 839 1804 839 1804 818 1782.5 c 128,-1,33
 797 1761 797 1761 768.5 1749 c 128,-1,34
 740 1737 740 1737 707 1737 c 0,35,36
 673 1737 673 1737 644.5 1749.5 c 128,-1,37
 616 1762 616 1762 595.5 1783.5 c 128,-1,38
 575 1805 575 1805 563.5 1834 c 128,-1,39
 552 1863 552 1863 552 1895 c 256,20,21
270 143 m 1,40,-1
 270 1455 l 1,41,-1
 80 1455 l 1,42,-1
 80 1602 l 1,43,-1
 743 1602 l 1,44,-1
 743 1455 l 1,45,-1
 551 1455 l 1,46,-1
 551 143 l 1,47,-1
 743 143 l 1,48,-1
 743 0 l 1,49,-1
 80 0 l 1,50,-1
 80 143 l 1,51,-1
 270 143 l 1,40,-1
EndSplineSet
EndChar

StartChar: afii10058
Encoding: 1033 1033 220
Width: 2632
Flags: W
HStem: -10 246<65 272.646> 0 192<1672 2123.5> 812 186<1672 2111.01> 1410 192<731 1385>
VStem: 415 298<411.239 1146.7> 446 285<1116.3 1410> 1385 287<192 812 998 1410> 2267 280<316.334 684.724>
LayerCount: 2
Fore
SplineSet
2267 518 m 0,0,1
 2267 606 2267 606 2236 663 c 128,-1,2
 2205 720 2205 720 2143.5 753 c 128,-1,3
 2082 786 2082 786 1991.5 799 c 128,-1,4
 1901 812 1901 812 1783 812 c 2,5,-1
 1672 812 l 1,6,-1
 1672 192 l 1,7,-1
 1821 192 l 2,8,9
 1959 192 1959 192 2046 211.5 c 128,-1,10
 2133 231 2133 231 2182 271 c 128,-1,11
 2231 311 2231 311 2249 372.5 c 128,-1,12
 2267 434 2267 434 2267 518 c 0,0,1
1385 0 m 1,13,-1
 1385 1410 l 1,14,-1
 731 1410 l 1,15,-1
 713 844 l 2,16,17
 710 724 710 724 699.5 612 c 128,-1,18
 689 500 689 500 665 397 c 1,19,20
 645 294 645 294 601 217.5 c 128,-1,21
 557 141 557 141 483.5 90.5 c 128,-1,22
 410 40 410 40 306 15 c 128,-1,23
 202 -10 202 -10 63 -10 c 1,24,-1
 65 236 l 1,25,26
 152 239 152 239 211.5 256 c 128,-1,27
 271 273 271 273 309.5 303.5 c 128,-1,28
 348 334 348 334 369.5 378 c 128,-1,29
 391 422 391 422 401.5 478.5 c 128,-1,30
 412 535 412 535 415 604.5 c 128,-1,31
 418 674 418 674 421 755 c 2,32,-1
 446 1602 l 1,33,-1
 1672 1602 l 1,34,-1
 1672 998 l 1,35,-1
 1784 998 l 2,36,37
 1977 998 1977 998 2120 971.5 c 128,-1,38
 2263 945 2263 945 2358 886 c 128,-1,39
 2453 827 2453 827 2500 733.5 c 128,-1,40
 2547 640 2547 640 2547 507 c 0,41,42
 2547 349 2547 349 2493.5 250.5 c 128,-1,43
 2440 152 2440 152 2339.5 96 c 128,-1,44
 2239 40 2239 40 2094.5 20 c 128,-1,45
 1950 0 1950 0 1769 0 c 2,46,-1
 1385 0 l 1,13,-1
EndSplineSet
EndChar

StartChar: afii10059
Encoding: 1034 1034 221
Width: 2392
Flags: W
HStem: 0 192<1432 1881.47> 744 174<442 1145> 812 186<1432 1871.01> 1582 20G<155 442 1145 1432>
VStem: 155 287<0 744 918 1602> 1145 287<192 744 998 1602> 2026 281<314.763 684.724>
LayerCount: 2
Fore
SplineSet
2026 518 m 0,0,1
 2026 606 2026 606 1995 663 c 128,-1,2
 1964 720 1964 720 1903 753 c 128,-1,3
 1842 786 1842 786 1751.5 799 c 128,-1,4
 1661 812 1661 812 1543 812 c 2,5,-1
 1432 812 l 1,6,-1
 1432 192 l 1,7,-1
 1581 192 l 2,8,9
 1719 192 1719 192 1806 211.5 c 128,-1,10
 1893 231 1893 231 1941.5 271 c 128,-1,11
 1990 311 1990 311 2008 372.5 c 128,-1,12
 2026 434 2026 434 2026 518 c 0,0,1
1145 744 m 1,13,-1
 442 744 l 1,14,-1
 442 0 l 1,15,-1
 155 0 l 1,16,-1
 155 1602 l 1,17,-1
 442 1602 l 1,18,-1
 442 918 l 1,19,-1
 1145 918 l 1,20,-1
 1145 1602 l 1,21,-1
 1432 1602 l 1,22,-1
 1432 998 l 1,23,-1
 1544 998 l 2,24,25
 1737 998 1737 998 1880 971.5 c 128,-1,26
 2023 945 2023 945 2118 886 c 128,-1,27
 2213 827 2213 827 2260 733.5 c 128,-1,28
 2307 640 2307 640 2307 507 c 0,29,30
 2307 357 2307 357 2256.5 259 c 128,-1,31
 2206 161 2206 161 2111.5 103.5 c 128,-1,32
 2017 46 2017 46 1881.5 23 c 128,-1,33
 1746 0 1746 0 1575 0 c 2,34,-1
 1145 0 l 1,35,-1
 1145 744 l 1,13,-1
EndSplineSet
EndChar

StartChar: afii10060
Encoding: 1035 1035 222
Width: 1645
Flags: W
HStem: 0 21G<454 742 1236 1514> 804 193<742 1160.73> 1410 192<30 454 741 1192>
VStem: 454 288<0 804 997 1410> 1236 278<0 719.193>
LayerCount: 2
Fore
SplineSet
742 0 m 1,0,-1
 454 0 l 1,1,-1
 454 1410 l 1,2,-1
 30 1410 l 1,3,-1
 30 1602 l 1,4,-1
 1192 1602 l 1,5,-1
 1192 1410 l 1,6,-1
 741 1410 l 1,7,-1
 741 997 l 1,8,-1
 1106 997 l 2,9,10
 1201 997 1201 997 1277 968 c 128,-1,11
 1353 939 1353 939 1405.5 879.5 c 128,-1,12
 1458 820 1458 820 1486 730.5 c 128,-1,13
 1514 641 1514 641 1514 521 c 2,14,-1
 1514 0 l 1,15,-1
 1236 0 l 1,16,-1
 1236 460 l 2,17,18
 1236 552 1236 552 1224.5 617 c 128,-1,19
 1213 682 1213 682 1189 723.5 c 128,-1,20
 1165 765 1165 765 1127.5 784.5 c 128,-1,21
 1090 804 1090 804 1039 804 c 2,22,-1
 742 804 l 1,23,-1
 742 0 l 1,0,-1
EndSplineSet
EndChar

StartChar: afii10061
Encoding: 1036 1036 223
Width: 1448
Flags: W
HStem: 0 21G<155 442 1109.13 1423> 721 170<442 588> 1582 20G<155 442 1058.61 1362>
VStem: 155 287<0 721 891 1602> 1072 290<1312 1602> 1124 299<0 299>
DStem2: 998 575 588 721 0.596611 -0.802531<-303.793 536.628> 596 891 922 957 0.556317 0.83097<50.2075 855.627>
LayerCount: 2
Fore
SplineSet
442 0 m 1,0,-1
 155 0 l 1,1,-1
 155 1602 l 1,2,-1
 442 1602 l 1,3,-1
 442 891 l 1,4,-1
 596 891 l 1,5,-1
 1072 1602 l 1,6,-1
 1362 1602 l 1,7,-1
 995 1060 l 2,8,9
 954 1000 954 1000 922 957 c 128,-1,10
 890 914 890 914 860 884.5 c 128,-1,11
 830 855 830 855 799 837 c 128,-1,12
 768 819 768 819 731 809 c 1,13,14
 770 800 770 800 803.5 780.5 c 128,-1,15
 837 761 837 761 868.5 731 c 128,-1,16
 900 701 900 701 931.5 661.5 c 128,-1,17
 963 622 963 622 998 575 c 2,18,-1
 1423 0 l 1,19,-1
 1124 0 l 1,20,-1
 588 721 l 1,21,-1
 442 721 l 1,22,-1
 442 0 l 1,0,-1
655 1755 m 1,23,-1
 839 2376 l 1,24,-1
 1116 2256 l 1,25,-1
 764 1704 l 1,26,-1
 655 1755 l 1,23,-1
EndSplineSet
EndChar

StartChar: afii10145
Encoding: 1039 1039 226
Width: 1609
Flags: W
HStem: -395 21G<675 950> 0 192<442 675 950 1166> 1582 20G<155 442 1166 1453>
VStem: 155 287<192 1602> 675 275<-395 0> 1166 287<192 1602>
LayerCount: 2
Fore
SplineSet
155 1602 m 1,0,-1
 442 1602 l 1,1,-1
 442 192 l 1,2,-1
 1166 192 l 1,3,-1
 1166 1602 l 1,4,-1
 1453 1602 l 1,5,-1
 1453 0 l 1,6,-1
 950 0 l 1,7,-1
 950 -395 l 1,8,-1
 675 -395 l 1,9,-1
 675 0 l 1,10,-1
 155 0 l 1,11,-1
 155 1602 l 1,0,-1
EndSplineSet
EndChar

StartChar: afii10018
Encoding: 1041 1041 228
Width: 1494
Flags: W
HStem: 0 192<531 1003.27> 812 186<531 959.932> 1383 219<155 244> 1410 192<531 1254>
VStem: 244 287<192 812 998 1383> 1130 281<306.678 674.901>
LayerCount: 2
Fore
SplineSet
531 192 m 1,0,-1
 685 192 l 2,1,2
 813 192 813 192 898.5 205.5 c 128,-1,3
 984 219 984 219 1035.5 255 c 128,-1,4
 1087 291 1087 291 1108.5 354.5 c 128,-1,5
 1130 418 1130 418 1130 518 c 0,6,7
 1130 614 1130 614 1088.5 671.5 c 128,-1,8
 1047 729 1047 729 979 760.5 c 128,-1,9
 911 792 911 792 824 802 c 128,-1,10
 737 812 737 812 647 812 c 2,11,-1
 531 812 l 1,12,-1
 531 192 l 1,0,-1
1411 504 m 1,13,14
 1411 363 1411 363 1365 266.5 c 128,-1,15
 1319 170 1319 170 1227.5 110.5 c 128,-1,16
 1136 51 1136 51 999 25.5 c 128,-1,17
 862 0 862 0 679 0 c 2,18,-1
 600 0 l 1,19,-1
 244 0 l 1,20,-1
 244 1383 l 1,21,-1
 155 1383 l 1,22,-1
 155 1602 l 1,23,-1
 1254 1602 l 1,24,-1
 1254 1410 l 1,25,-1
 531 1410 l 1,26,-1
 531 998 l 1,27,-1
 648 998 l 2,28,29
 840 998 840 998 982.5 972 c 128,-1,30
 1125 946 1125 946 1219.5 887.5 c 128,-1,31
 1314 829 1314 829 1361.5 734.5 c 128,-1,32
 1409 640 1409 640 1411 504 c 1,13,14
EndSplineSet
EndChar

StartChar: afii10020
Encoding: 1043 1043 230
Width: 1190
Flags: W
HStem: 0 21G<155 442> 1410 192<442 1145>
VStem: 155 287<0 1410>
LayerCount: 2
Fore
SplineSet
442 1410 m 1,0,-1
 442 0 l 1,1,-1
 155 0 l 1,2,-1
 155 1602 l 1,3,-1
 1145 1602 l 1,4,-1
 1145 1410 l 1,5,-1
 442 1410 l 1,0,-1
EndSplineSet
EndChar

StartChar: afii10021
Encoding: 1044 1044 231
Width: 1740
Flags: W
HStem: -433 20G<42 341 1381 1639> -11 177<461 1246> 1410 183<620 1246>
VStem: 42 299<-433 -11> 333 287<573.522 1410> 1246 288<166 1410> 1381 258<-434 -11>
LayerCount: 2
Fore
SplineSet
1246 166 m 1,0,-1
 1246 1410 l 1,1,-1
 620 1410 l 1,2,-1
 620 1021 l 2,3,4
 620 914 620 914 616.5 799.5 c 128,-1,5
 613 685 613 685 597.5 573.5 c 128,-1,6
 582 462 582 462 550 357.5 c 128,-1,7
 518 253 518 253 461 166 c 1,8,-1
 1246 166 l 1,0,-1
125 166 m 1,9,10
 164 220 164 220 201.5 295.5 c 128,-1,11
 239 371 239 371 268.5 484 c 128,-1,12
 298 597 298 597 315.5 755.5 c 128,-1,13
 333 914 333 914 333 1136 c 2,14,-1
 333 1593 l 1,15,-1
 1534 1593 l 1,16,-1
 1534 116 l 1,17,-1
 1639 116 l 1,18,-1
 1639 -434 l 1,19,-1
 1381 -434 l 1,20,-1
 1381 -11 l 1,21,-1
 341 -11 l 1,22,-1
 341 -433 l 1,23,-1
 42 -433 l 1,24,-1
 42 166 l 1,25,-1
 125 166 l 1,9,10
EndSplineSet
EndChar

StartChar: afii10024
Encoding: 1046 1046 233
Width: 2209
Flags: W
HStem: 0 21G<25 339.008 962 1249 1870.96 2185> 721 170<830 962 1249 1379> 1582 20G<87 389.518 962 1249 1820.45 2133>
VStem: 25 300<0 300> 87 290<1312 1602> 962 287<0 721 891 1602> 1833 300<1302 1602> 1885 300<0 300>
DStem2: 25 0 325 0 0.573691 0.819072<172.107 987.981> 377 1602 87 1602 0.530535 -0.847663<0 763.963> 1769 587 1379 721 0.574452 -0.818538<-275.664 547.118> 1387 891 1774 1060 0.53139 0.847127<57.7014 839.307>
LayerCount: 2
Fore
SplineSet
962 721 m 1,0,-1
 830 721 l 1,1,-1
 325 0 l 1,2,-1
 25 0 l 1,3,-1
 442 586 l 2,4,5
 478 636 478 636 508 674 c 128,-1,6
 538 712 538 712 567 739 c 128,-1,7
 596 766 596 766 627.5 783 c 128,-1,8
 659 800 659 800 697 809 c 1,9,10
 657 820 657 820 625 839.5 c 128,-1,11
 593 859 593 859 563 889.5 c 128,-1,12
 533 920 533 920 503 961.5 c 128,-1,13
 473 1003 473 1003 437 1059 c 2,14,-1
 87 1602 l 1,15,-1
 377 1602 l 1,16,-1
 822 891 l 1,17,-1
 962 891 l 1,18,-1
 962 1602 l 1,19,-1
 1249 1602 l 1,20,-1
 1249 891 l 1,21,-1
 1387 891 l 1,22,-1
 1833 1602 l 1,23,-1
 2133 1602 l 1,24,-1
 1774 1060 l 2,25,26
 1738 1005 1738 1005 1707.5 963 c 128,-1,27
 1677 921 1677 921 1647 890 c 128,-1,28
 1617 859 1617 859 1584.5 839 c 128,-1,29
 1552 819 1552 819 1512 809 c 1,30,31
 1550 800 1550 800 1581 783.5 c 128,-1,32
 1612 767 1612 767 1641.5 740 c 128,-1,33
 1671 713 1671 713 1701.5 675.5 c 128,-1,34
 1732 638 1732 638 1769 587 c 2,35,-1
 2185 0 l 1,36,-1
 1885 0 l 1,37,-1
 1379 721 l 1,38,-1
 1249 721 l 1,39,-1
 1249 0 l 1,40,-1
 962 0 l 1,41,-1
 962 721 l 1,0,-1
EndSplineSet
EndChar

StartChar: afii10025
Encoding: 1047 1047 234
Width: 1285
Flags: W
HStem: -36 214<307.75 763.062> 712 199<338 739.426> 1418 213<293.931 783.354>
VStem: 869 267<1025.31 1336.81> 881 275<293.383 598.984>
LayerCount: 2
Fore
SplineSet
817 816 m 1,0,1
 886 809 886 809 948 778.5 c 128,-1,2
 1010 748 1010 748 1056 697 c 128,-1,3
 1102 646 1102 646 1129 575.5 c 128,-1,4
 1156 505 1156 505 1156 419 c 0,5,6
 1156 298 1156 298 1110 212 c 128,-1,7
 1064 126 1064 126 984.5 71 c 128,-1,8
 905 16 905 16 799.5 -10 c 128,-1,9
 694 -36 694 -36 576 -36 c 0,10,11
 467 -36 467 -36 355 -9 c 128,-1,12
 243 18 243 18 122 69 c 1,13,-1
 187 267 l 1,14,15
 221 251 221 251 268.5 235 c 128,-1,16
 316 219 316 219 368.5 206.5 c 128,-1,17
 421 194 421 194 475.5 186 c 128,-1,18
 530 178 530 178 578 178 c 0,19,20
 640 178 640 178 687 191 c 128,-1,21
 734 204 734 204 767.5 225.5 c 128,-1,22
 801 247 801 247 823 274.5 c 128,-1,23
 845 302 845 302 858 332 c 128,-1,24
 871 362 871 362 876 392 c 128,-1,25
 881 422 881 422 881 447 c 0,26,27
 881 520 881 520 854.5 570.5 c 128,-1,28
 828 621 828 621 774 652.5 c 128,-1,29
 720 684 720 684 637.5 698 c 128,-1,30
 555 712 555 712 443 712 c 2,31,-1
 338 712 l 1,32,-1
 338 911 l 1,33,-1
 497 911 l 2,34,35
 687 911 687 911 778 979 c 128,-1,36
 869 1047 869 1047 869 1178 c 0,37,38
 869 1238 869 1238 854 1283 c 128,-1,39
 839 1328 839 1328 804.5 1358 c 128,-1,40
 770 1388 770 1388 713.5 1403 c 128,-1,41
 657 1418 657 1418 575 1418 c 0,42,43
 510 1418 510 1418 452 1409 c 128,-1,44
 394 1400 394 1400 344.5 1387.5 c 128,-1,45
 295 1375 295 1375 256.5 1360 c 128,-1,46
 218 1345 218 1345 194 1333 c 1,47,-1
 128 1527 l 1,48,49
 174 1553 174 1553 229 1572.5 c 128,-1,50
 284 1592 284 1592 343 1605 c 128,-1,51
 402 1618 402 1618 463 1624.5 c 128,-1,52
 524 1631 524 1631 581 1631 c 0,53,54
 698 1631 698 1631 799.5 1606.5 c 128,-1,55
 901 1582 901 1582 975.5 1530 c 128,-1,56
 1050 1478 1050 1478 1093 1396 c 128,-1,57
 1136 1314 1136 1314 1136 1200 c 0,58,59
 1136 1111 1136 1111 1110.5 1042.5 c 128,-1,60
 1085 974 1085 974 1041 926 c 128,-1,61
 997 878 997 878 939 850.5 c 128,-1,62
 881 823 881 823 817 816 c 1,0,1
EndSplineSet
EndChar

StartChar: afii10026
Encoding: 1048 1048 235
Width: 1623
Flags: W
HStem: 0 21G<155 405 1217 1468> 1582 20G<155 404 1120.88 1468>
VStem: 155 249<0 102 489 1602> 1217 251<0 1285>
LayerCount: 2
Fore
SplineSet
404 1602 m 1,0,-1
 404 489 l 1,1,-1
 1134 1602 l 1,2,-1
 1468 1602 l 1,3,-1
 1468 0 l 1,4,-1
 1217 0 l 1,5,-1
 1217 1285 l 1,6,-1
 405 102 l 1,7,-1
 405 0 l 1,8,-1
 155 0 l 1,9,-1
 155 1602 l 1,10,-1
 404 1602 l 1,0,-1
EndSplineSet
EndChar

StartChar: afii10028
Encoding: 1050 1050 237
Width: 1448
Flags: W
HStem: 0 21G<155 442 1109.13 1423> 721 170<442 588> 1582 20G<155 442 1058.61 1362>
VStem: 155 287<0 721 891 1602> 1072 290<1312 1602> 1124 299<0 299>
DStem2: 998 575 588 721 0.596611 -0.802531<-303.793 536.628> 596 891 922 957 0.556317 0.83097<50.2075 855.627>
LayerCount: 2
Fore
SplineSet
442 0 m 1,0,-1
 155 0 l 1,1,-1
 155 1602 l 1,2,-1
 442 1602 l 1,3,-1
 442 891 l 1,4,-1
 596 891 l 1,5,-1
 1072 1602 l 1,6,-1
 1362 1602 l 1,7,-1
 995 1060 l 2,8,9
 954 1000 954 1000 922 957 c 128,-1,10
 890 914 890 914 860 884.5 c 128,-1,11
 830 855 830 855 799 837 c 128,-1,12
 768 819 768 819 731 809 c 1,13,14
 770 800 770 800 803.5 780.5 c 128,-1,15
 837 761 837 761 868.5 731 c 128,-1,16
 900 701 900 701 931.5 661.5 c 128,-1,17
 963 622 963 622 998 575 c 2,18,-1
 1423 0 l 1,19,-1
 1124 0 l 1,20,-1
 588 721 l 1,21,-1
 442 721 l 1,22,-1
 442 0 l 1,0,-1
EndSplineSet
EndChar

StartChar: afii10029
Encoding: 1051 1051 238
Width: 1810
Flags: W
HStem: -11 246<48 268.13> 1410 192<714 1368>
VStem: 405 287<391.288 1186.7> 429 285<1070.37 1410> 1368 287<0 1410>
LayerCount: 2
Fore
SplineSet
1655 0 m 1,0,-1
 1368 0 l 1,1,-1
 1368 1410 l 1,2,-1
 714 1410 l 1,3,-1
 692 769 l 2,4,5
 688 650 688 650 678 545.5 c 128,-1,6
 668 441 668 441 643 354.5 c 128,-1,7
 618 268 618 268 574 200 c 128,-1,8
 530 132 530 132 459.5 85 c 128,-1,9
 389 38 389 38 287.5 13.5 c 128,-1,10
 186 -11 186 -11 46 -11 c 1,11,-1
 48 235 l 1,12,13
 156 238 156 238 223.5 259.5 c 128,-1,14
 291 281 291 281 329.5 333.5 c 128,-1,15
 368 386 368 386 384 477.5 c 128,-1,16
 400 569 400 569 405 712 c 1,17,-1
 429 1602 l 1,18,-1
 1655 1602 l 1,19,-1
 1655 0 l 1,0,-1
EndSplineSet
EndChar

StartChar: afii10033
Encoding: 1055 1055 242
Width: 1609
Flags: W
HStem: 0 21G<155 442 1166 1453> 1410 192<442 1166>
VStem: 155 287<0 1410> 1166 287<0 1410>
LayerCount: 2
Fore
SplineSet
1453 0 m 1,0,-1
 1166 0 l 1,1,-1
 1166 1410 l 1,2,-1
 442 1410 l 1,3,-1
 442 0 l 1,4,-1
 155 0 l 1,5,-1
 155 1602 l 1,6,-1
 1453 1602 l 1,7,-1
 1453 0 l 1,0,-1
EndSplineSet
EndChar

StartChar: afii10037
Encoding: 1059 1059 246
Width: 1195
Flags: W
HStem: 1582 20G<-13 275.01 907.376 1205>
VStem: 472 255<100.624 483>
DStem2: 267 1602 -13 1602 0.397676 -0.917526<0 892.657>
LayerCount: 2
Fore
SplineSet
915 1602 m 1,0,-1
 1205 1602 l 1,1,-1
 727 484 l 1,2,-1
 727 278 l 2,3,4
 727 150 727 150 680 67.5 c 128,-1,5
 633 -15 633 -15 533 -60 c 1,6,-1
 328 3 l 1,7,8
 359 26 359 26 385 50 c 128,-1,9
 411 74 411 74 430.5 105.5 c 128,-1,10
 450 137 450 137 461 179.5 c 128,-1,11
 472 222 472 222 472 281 c 2,12,-1
 472 483 l 1,13,-1
 -13 1602 l 1,14,-1
 267 1602 l 1,15,-1
 599 773 l 1,16,-1
 915 1602 l 1,0,-1
EndSplineSet
EndChar

StartChar: afii10038
Encoding: 1060 1060 247
Width: 1766
Flags: W
HStem: 118 213<580.875 736 1020 1187.72> 1266 214<570.375 736 1020 1197.08> 1623 20G<736 1020>
VStem: 104 288<541.407 1071.7> 736 284<-41 118 331 1266 1480 1643> 1373 289<537.605 1069.88>
LayerCount: 2
Fore
SplineSet
1020 -41 m 1,0,-1
 736 -41 l 1,1,-1
 736 118 l 1,2,3
 569 124 569 124 449.5 179 c 128,-1,4
 330 234 330 234 253 325 c 128,-1,5
 176 416 176 416 140 537.5 c 128,-1,6
 104 659 104 659 104 799 c 0,7,8
 104 960 104 960 150.5 1084.5 c 128,-1,9
 197 1209 197 1209 280.5 1295 c 128,-1,10
 364 1381 364 1381 480 1427.5 c 128,-1,11
 596 1474 596 1474 736 1480 c 1,12,-1
 736 1643 l 1,13,-1
 1020 1643 l 1,14,-1
 1020 1480 l 1,15,16
 1159 1478 1159 1478 1276.5 1430 c 128,-1,17
 1394 1382 1394 1382 1479.5 1294 c 128,-1,18
 1565 1206 1565 1206 1613.5 1081 c 128,-1,19
 1662 956 1662 956 1662 800 c 0,20,21
 1662 711 1662 711 1646.5 627 c 128,-1,22
 1631 543 1631 543 1597.5 468.5 c 128,-1,23
 1564 394 1564 394 1512.5 331 c 128,-1,24
 1461 268 1461 268 1390 222 c 128,-1,25
 1319 176 1319 176 1226.5 148.5 c 128,-1,26
 1134 121 1134 121 1020 118 c 1,27,-1
 1020 -41 l 1,0,-1
736 1266 m 1,28,29
 653 1258 653 1258 589 1231 c 128,-1,30
 525 1204 525 1204 481.5 1149 c 128,-1,31
 438 1094 438 1094 415 1008.5 c 128,-1,32
 392 923 392 923 392 800 c 0,33,34
 392 680 392 680 417.5 594.5 c 128,-1,35
 443 509 443 509 488.5 452.5 c 128,-1,36
 534 396 534 396 597.5 367 c 128,-1,37
 661 338 661 338 736 331 c 1,38,-1
 736 1266 l 1,28,29
1020 330 m 1,39,40
 1099 335 1099 335 1164 363.5 c 128,-1,41
 1229 392 1229 392 1275.5 448 c 128,-1,42
 1322 504 1322 504 1347.5 591 c 128,-1,43
 1373 678 1373 678 1373 800 c 0,44,45
 1373 926 1373 926 1349 1012.5 c 128,-1,46
 1325 1099 1325 1099 1280 1153.5 c 128,-1,47
 1235 1208 1235 1208 1169.5 1234.5 c 128,-1,48
 1104 1261 1104 1261 1020 1268 c 1,49,-1
 1020 330 l 1,39,40
EndSplineSet
EndChar

StartChar: afii10040
Encoding: 1062 1062 249
Width: 1731
Flags: W
HStem: -395 21G<1300 1576> 0 192<442 1156> 1582 20G<155 442 1156 1443>
VStem: 155 287<192 1602> 1156 287<192 1602> 1300 276<-395 0>
LayerCount: 2
Fore
SplineSet
155 1602 m 1,0,-1
 442 1602 l 1,1,-1
 442 192 l 1,2,-1
 1156 192 l 1,3,-1
 1156 1602 l 1,4,-1
 1443 1602 l 1,5,-1
 1443 88 l 1,6,-1
 1576 88 l 1,7,-1
 1576 -395 l 1,8,-1
 1300 -395 l 1,9,-1
 1300 0 l 1,10,-1
 155 0 l 1,11,-1
 155 1602 l 1,0,-1
EndSplineSet
EndChar

StartChar: afii10041
Encoding: 1063 1063 250
Width: 1322
Flags: W
HStem: 0 21G<889 1167> 391 192<466.478 737.376> 1582 20G<115 392 889 1167>
VStem: 115 277<661.125 1602> 889 278<0 563 663.967 1602>
LayerCount: 2
Fore
SplineSet
889 563 m 1,0,1
 848 515 848 515 807.5 482 c 128,-1,2
 767 449 767 449 724 429 c 128,-1,3
 681 409 681 409 633.5 400 c 128,-1,4
 586 391 586 391 532 391 c 0,5,6
 433 391 433 391 355.5 420 c 128,-1,7
 278 449 278 449 224.5 507.5 c 128,-1,8
 171 566 171 566 143 655.5 c 128,-1,9
 115 745 115 745 115 866 c 2,10,-1
 115 1602 l 1,11,-1
 392 1602 l 1,12,-1
 392 854 l 2,13,14
 392 713 392 713 445.5 648 c 128,-1,15
 499 583 499 583 591 583 c 0,16,17
 649 583 649 583 695.5 594.5 c 128,-1,18
 742 606 742 606 778 623.5 c 128,-1,19
 814 641 814 641 841.5 662 c 128,-1,20
 869 683 869 683 889 703 c 1,21,-1
 889 1602 l 1,22,-1
 1167 1602 l 1,23,-1
 1167 0 l 1,24,-1
 889 0 l 1,25,-1
 889 563 l 1,0,1
EndSplineSet
EndChar

StartChar: afii10042
Encoding: 1064 1064 251
Width: 2396
Flags: W
HStem: 0 192<442 1054 1342 1954> 1582 20G<155 442 1054 1342 1954 2241>
VStem: 155 287<192 1602> 1054 288<192 1602> 1954 287<192 1602>
CounterMasks: 1 38
LayerCount: 2
Fore
SplineSet
1342 192 m 1,0,-1
 1954 192 l 1,1,-1
 1954 1602 l 1,2,-1
 2241 1602 l 1,3,-1
 2241 0 l 1,4,-1
 155 0 l 1,5,-1
 155 1602 l 1,6,-1
 442 1602 l 1,7,-1
 442 192 l 1,8,-1
 1054 192 l 1,9,-1
 1054 1602 l 1,10,-1
 1342 1602 l 1,11,-1
 1342 192 l 1,0,-1
EndSplineSet
EndChar

StartChar: afii10043
Encoding: 1065 1065 252
Width: 2450
Flags: W
HStem: -435 21G<2090 2339> 0 191<442 1054 1342 1955> 1582 20G<155 442 1054 1342 1955 2233>
VStem: 155 287<191 1602> 1054 288<191 1602> 1955 278<191 1602> 2090 249<-435 0>
LayerCount: 2
Fore
SplineSet
1342 191 m 1,0,-1
 1955 191 l 1,1,-1
 1955 1602 l 1,2,-1
 2233 1602 l 1,3,-1
 2233 44 l 1,4,-1
 2339 44 l 1,5,-1
 2339 -435 l 1,6,-1
 2090 -435 l 1,7,-1
 2090 0 l 1,8,-1
 155 0 l 1,9,-1
 155 1602 l 1,10,-1
 442 1602 l 1,11,-1
 442 191 l 1,12,-1
 1054 191 l 1,13,-1
 1054 1602 l 1,14,-1
 1342 1602 l 1,15,-1
 1342 191 l 1,0,-1
EndSplineSet
EndChar

StartChar: afii10044
Encoding: 1066 1066 253
Width: 1603
Flags: W
HStem: 0 192<638 1096.77> 812 186<638 1067.36> 1413 189<34 351>
VStem: 351 287<192 812 998 1413> 1237 281<320.063 674.901>
LayerCount: 2
Fore
SplineSet
638 192 m 1,0,-1
 792 192 l 2,1,2
 907 192 907 192 991 205.5 c 128,-1,3
 1075 219 1075 219 1130 255 c 128,-1,4
 1185 291 1185 291 1211 354.5 c 128,-1,5
 1237 418 1237 418 1237 518 c 0,6,7
 1237 614 1237 614 1195.5 671.5 c 128,-1,8
 1154 729 1154 729 1086 760.5 c 128,-1,9
 1018 792 1018 792 931 802 c 128,-1,10
 844 812 844 812 754 812 c 2,11,-1
 638 812 l 1,12,-1
 638 192 l 1,0,-1
638 998 m 1,13,-1
 755 998 l 2,14,15
 947 998 947 998 1090 972 c 128,-1,16
 1233 946 1233 946 1328 887.5 c 128,-1,17
 1423 829 1423 829 1470.5 734.5 c 128,-1,18
 1518 640 1518 640 1518 504 c 0,19,20
 1518 363 1518 363 1472 266.5 c 128,-1,21
 1426 170 1426 170 1334.5 110.5 c 128,-1,22
 1243 51 1243 51 1106 25.5 c 128,-1,23
 969 0 969 0 786 0 c 2,24,-1
 351 0 l 1,25,-1
 351 1413 l 1,26,-1
 34 1413 l 1,27,-1
 34 1602 l 1,28,-1
 638 1602 l 1,29,-1
 638 998 l 1,13,-1
EndSplineSet
EndChar

StartChar: afii10045
Encoding: 1067 1067 254
Width: 2047
Flags: W
HStem: 0 192<415 874.393> 812 186<415 843.932> 1599 3G<128 415 1605 1891>
VStem: 128 287<192 812 998 1602> 1014 281<317.515 674.901> 1605 286<0 1619>
LayerCount: 2
Fore
SplineSet
1891 0 m 1,0,-1
 1605 0 l 1,1,-1
 1605 1619 l 1,2,-1
 1891 1619 l 1,3,-1
 1891 0 l 1,0,-1
1295 504 m 1,4,5
 1295 363 1295 363 1249 266.5 c 128,-1,6
 1203 170 1203 170 1111.5 110.5 c 128,-1,7
 1020 51 1020 51 883 25.5 c 128,-1,8
 746 0 746 0 563 0 c 2,9,-1
 128 0 l 1,10,-1
 128 1602 l 1,11,-1
 415 1602 l 1,12,-1
 415 998 l 1,13,-1
 532 998 l 2,14,15
 724 998 724 998 866.5 972 c 128,-1,16
 1009 946 1009 946 1103.5 887.5 c 128,-1,17
 1198 829 1198 829 1245.5 734.5 c 128,-1,18
 1293 640 1293 640 1295 504 c 1,4,5
415 192 m 1,19,-1
 569 192 l 2,20,21
 687 192 687 192 771 205.5 c 128,-1,22
 855 219 855 219 909 255 c 128,-1,23
 963 291 963 291 988.5 354.5 c 128,-1,24
 1014 418 1014 418 1014 518 c 0,25,26
 1014 614 1014 614 972.5 671.5 c 128,-1,27
 931 729 931 729 863 760.5 c 128,-1,28
 795 792 795 792 708 802 c 128,-1,29
 621 812 621 812 531 812 c 2,30,-1
 415 812 l 1,31,-1
 415 192 l 1,19,-1
EndSplineSet
EndChar

StartChar: afii10046
Encoding: 1068 1068 255
Width: 1379
Flags: W
HStem: 0 192<415 874.393> 812 186<415 843.932> 1582 20G<128 415>
VStem: 128 287<192 812 998 1602> 1014 281<317.515 674.901>
LayerCount: 2
Fore
SplineSet
1295 504 m 1,0,1
 1295 363 1295 363 1249 266.5 c 128,-1,2
 1203 170 1203 170 1111.5 110.5 c 128,-1,3
 1020 51 1020 51 883 25.5 c 128,-1,4
 746 0 746 0 563 0 c 2,5,-1
 128 0 l 1,6,-1
 128 1602 l 1,7,-1
 415 1602 l 1,8,-1
 415 998 l 1,9,-1
 532 998 l 2,10,11
 724 998 724 998 866.5 972 c 128,-1,12
 1009 946 1009 946 1103.5 887.5 c 128,-1,13
 1198 829 1198 829 1245.5 734.5 c 128,-1,14
 1293 640 1293 640 1295 504 c 1,0,1
415 192 m 1,15,-1
 569 192 l 2,16,17
 687 192 687 192 771 205.5 c 128,-1,18
 855 219 855 219 909 255 c 128,-1,19
 963 291 963 291 988.5 354.5 c 128,-1,20
 1014 418 1014 418 1014 518 c 0,21,22
 1014 614 1014 614 972.5 671.5 c 128,-1,23
 931 729 931 729 863 760.5 c 128,-1,24
 795 792 795 792 708 802 c 128,-1,25
 621 812 621 812 531 812 c 2,26,-1
 415 812 l 1,27,-1
 415 192 l 1,15,-1
EndSplineSet
EndChar

